<svg version="1.2" xmlns="http://www.w3.org/2000/svg" viewBox="0 0 1000 1000" width="1000" height="1000">
	<defs>
		<clipPath clipPathUnits="userSpaceOnUse" id="cp1">
			<path d="m998.27 918.76h-997.1v-616.72h997.1z"/>
		</clipPath>
	</defs>
	<style>
		tspan { white-space:pre } 
		.s0 { fill: #fce0e3 } 
		.s1 { mix-blend-mode: multiply;fill: #fce0e3 } 
		.s2 { fill: #ffffff } 
		.s3 { opacity: .2;mix-blend-mode: multiply;fill: #fce0e3 } 
		.s4 { fill: #f46b75 } 
		.s5 { opacity: .64;mix-blend-mode: multiply;fill: #f46b75 } 
		.s6 { opacity: .3;mix-blend-mode: multiply;fill: #f46b75 } 
		.s7 { mix-blend-mode: multiply;fill: #f46b75 } 
		.s8 { fill: #facecf } 
		.s9 { opacity: .93;mix-blend-mode: multiply;fill: #facecf } 
		.s10 { opacity: .24;mix-blend-mode: multiply;fill: #facecf } 
		.s11 { mix-blend-mode: multiply;fill: #facecf } 
		.s12 { mix-blend-mode: screen;fill: #facecf } 
		.s13 { opacity: .47;mix-blend-mode: multiply;fill: #facecf } 
		.s14 { opacity: .42;mix-blend-mode: screen;fill: #facecf } 
		.s15 { opacity: .4;mix-blend-mode: multiply;fill: #facecf } 
		.s16 { opacity: .61;mix-blend-mode: multiply;fill: #facecf } 
		.s17 { opacity: .46;mix-blend-mode: multiply;fill: #f46b75 } 
		.s18 { fill: #f8b400 } 
		.s19 { opacity: .39;mix-blend-mode: multiply;fill: #f8b400 } 
		.s20 { opacity: .49;mix-blend-mode: multiply;fill: #f46b75 } 
		.s21 { fill: #4d72ff } 
		.s22 { fill: #5e85ff } 
		.s23 { mix-blend-mode: screen;fill: #4d72ff } 
		.s24 { fill: #f699d5 } 
		.s25 { opacity: .57;mix-blend-mode: multiply;fill: #f699d5 } 
		.t26 { font-size: 20px;line-height: 20px;text-transform: uppercase;fill: #ffffff;font-weight: 900;font-family: "Poppins-Black", "Poppins" } 
		.s27 { fill: none;stroke: #47333c;stroke-miterlimit:10;stroke-width: 2 } 
		.s28 { opacity: .5;fill: #ffffff } 
		.s29 { opacity: .51;mix-blend-mode: multiply;fill: #4d72ff } 
		.s30 { fill: #47333c } 
		.s31 { fill: #f8b58e } 
		.s32 { opacity: .48;mix-blend-mode: multiply;fill: #f8b58e } 
		.s33 { mix-blend-mode: multiply;fill: #f8b58e } 
		.s34 { mix-blend-mode: multiply;fill: #4d72ff } 
		.s35 { fill: #b263e6 } 
		.s36 { mix-blend-mode: multiply;fill: #b263e6 } 
	</style>
	<g id="BACKGROUND">
		<g id="&lt;Group&gt;">
			<path id="&lt;Path&gt;" class="s0" d="m1000 1000h-1000v-1000h1000z"/>
			<path id="&lt;Path&gt;" class="s1" d="m733.43 938.51c0-8.93-114.41-16.16-255.53-16.16-141.13 0-255.53 7.23-255.53 16.16 0 8.93 114.4 16.16 255.53 16.16 141.12 0 255.53-7.23 255.53-16.16z"/>
			<g id="&lt;Group&gt;">
				<path id="&lt;Compound Path&gt;" class="s2" d="m948.55 172.35h-1.16c-0.12-0.35-0.43-0.64-0.91-0.64-11.85-0.08-23.54-4.85-32-13.1-3.99-3.93-6.95-9.06-11.79-12.06-3.91-2.42-8.79-2.69-13.09-1.17-4.3 1.54-7.92 4.68-9.6 8.89-5.91-4.5-13.54-6.3-20.87-4.93 1.29-5.03-0.1-10.64-3.78-14.38-3.58-3.61-9.02-5.09-13.98-4.1 3.49-8.4 4.73-17.63 3.47-26.66-1.14-8.26-4.32-17.93-12.14-22.27-3.31-1.85-7.2-2.09-10.63-0.45-3.31 1.58-5.48 4.74-6.91 7.99-1.72 3.94-2.46 8.17-3.17 12.38q-1.36 8.16-2.29 16.37-1.65 14.89-1.78 29.87c-2.46-4.46-6.87-7.89-12.02-8.65-6.93-1.02-13.94 2.78-17.21 8.77-2.69-6.9-9.59-11.83-17-12.57-8.6-0.86-16.09 4.83-19.09 12.61-1.14 2.98-1.55 6.23-1.16 9.39-4.9-4.44-12.02-6.39-18.51-4.52-7.32 2.1-12.76 8.75-13.76 16.17-13.23-8.01-31.11-6.86-43.21 2.79-0.86 0.68 0.05 1.81 0.96 1.66 0.12 0.35 0.43 0.66 0.93 0.66h280.7c1.32 0 1.32-2.05 0-2.05z"/>
				<path id="&lt;Compound Path&gt;" class="s2" d="m685.04 324.09c0 0 158.42 2.55 182.94 1.11 0.81-0.06 1.5-0.66 1.5-1.5 0.1-7.66-4.34-15.27-11.36-18.62-6.18-2.93-13.45-2.43-19.27 0.9-0.06-7.16-4.92-14.19-12.12-15.96-4.92-1.23-9.98 0.15-13.87 3.08 1.45-5.12 2.23-10.39 1.26-15.69-1.02-5.63-4.22-11.2-9.49-13.86-5.1-2.61-11.07-2.07-16.17 0.24-11.39 5.21-14.95 17.69-15.8 29.25-5.12-4.73-12.54-6.88-19.41-4.94-7.48 2.1-12.94 8.63-14.3 16.11-19.23-7.07-42.33-0.09-54.06 16.74-0.06 0.06-0.06 0.15-0.09 0.21-1.66 0.27-1.6 2.93 0.24 2.93z"/>
				<path id="&lt;Path&gt;" class="s2" d="m956.4 436.27c-5.04-15.33-13.8-38.9-27.68-39.69-8.55-0.49-16.61 5.01-21.21 11.84-4.9 7.32-6.17 16.21-6.52 24.96-2.71-4.82-7.61-8.42-13.27-9.05-7.89-0.87-15.67 4.47-18.21 11.77-4.53-3.47-10.77-4.52-16.12-2.3-5.75 2.39-9.59 8.19-9.8 14.35-0.02 0.51 75.1 0.89 117.66 1.06-0.84 0-2.41-5.5-4.85-12.94z"/>
				<path id="&lt;Path&gt;" class="s2" d="m159.52 281.15c-5.04-15.32-13.8-38.89-27.68-39.69-8.55-0.49-16.61 5.01-21.21 11.84-4.9 7.33-6.17 16.22-6.52 24.97-2.71-4.82-7.61-8.43-13.27-9.06-7.89-0.86-15.66 4.47-18.21 11.77-4.52-3.46-10.77-4.51-16.12-2.29-5.74 2.38-9.59 8.19-9.8 14.34-0.01 0.52 75.11 0.9 117.66 1.07-0.84 0-2.41-5.5-4.85-12.95z"/>
				<path id="&lt;Path&gt;" class="s2" d="m353.1 157.16c-0.24-7.13-4.69-13.86-11.36-16.63-6.2-2.58-13.44-1.36-18.69 2.66-2.95-8.46-11.96-14.65-21.11-13.65-6.56 0.74-12.24 4.91-15.39 10.5-0.41-10.14-1.88-20.45-7.56-28.94-5.25-7.81-14.41-14.08-24.16-13.72q-0.04 0-0.08-0.01-0.08 0-0.17 0-0.09 0-0.18 0-0.04 0.01-0.07 0.01c-9.76-0.36-18.91 5.91-24.16 13.72-5.68 8.49-7.16 18.8-7.57 28.94-3.14-5.59-8.82-9.76-15.38-10.5-9.15-1-18.17 5.19-21.12 13.65-5.24-4.02-12.48-5.24-18.69-2.66-6.66 2.77-11.11 9.5-11.36 16.63-0.01 0.34 197.07 0.34 197.05 0z"/>
			</g>
		</g>
	</g>
	<g id="OBJECTS">
		<g id="&lt;Clip Group&gt;" clip-path="url(#cp1)">
			<path id="&lt;Path&gt;" class="s3" d="m1138.61 839.47c0-22.46-287.88-40.67-642.99-40.67-355.11 0-642.99 18.21-642.99 40.67 0 22.46 287.88 40.67 642.99 40.67 355.11 0 642.99-18.21 642.99-40.67z"/>
			<g id="&lt;Group&gt;">
				<path id="&lt;Path&gt;" class="s0" d="m1166.42 799.27h-1332.84v-5.33h1332.84z"/>
			</g>
			<g id="&lt;Group&gt;">
				<g id="&lt;Group&gt;">
					<g id="&lt;Group&gt;">
						<path id="&lt;Path&gt;" class="s4" d="m36.61 464.17c2.41 0.91 4.29 2.52 5.84 4.5-0.19-2.4 0.1-4.75 1.01-6.53 0.93-1.8 2.1-2.59 3.3-2.64 2.04-0.13 4.19 1.8 5.37 4.29 2.09 4.4 1.64 9.69 1.97 14.46 0.1 1.48 0.38 2.95 0.72 4.41 0.46 2.01 1.01 4.01 1.35 6q2.34 3.61 4.7 7.2 0.01 0.01 0.01 0.01c-2.24-6.81-3.43-14.64-1.64-21.32 0.99-3.7 5.32-8.36 7.65-2.75 3.73 9 0.13 19.82-2.52 28.46l-0.42 0.21q1.11 1.63 2.24 3.26 0.06 0.09 0.11 0.17c3.86 5.51 7.95 10.86 12.54 15.89q0 0.01 0.01 0.02c-0.63-2.4-1.01-4.82-1.05-7.22-0.07-4.35 3.21-10.86 7.5-5.54 5.52 6.85 6.26 16.53 6.24 25.4 6.45 6.11 13.12 12.04 19.93 17.73-4.69-7.01-8.47-15.45-8.6-23.61-0.08-4.67 3.44-11.65 8.04-5.94 7.39 9.16 6.8 23.07 6.59 34.1l-0.23 0.21q0 0 0.01 0 4.86 3.93 9.81 7.7 2.43 1.85 4.87 3.67 0.01 0.01 0.02 0.01c-6.7-9.53-12.24-20.91-12.82-31.73-0.33-6.17 4.05-15.21 10.53-7.42 10.36 12.44 10.29 30.69 10.55 45.22q0.01 0 0.01 0c4.67 3.41 9.36 6.78 14.03 10.17-3.12-10.44-10.84-31.66-12.79-38.73-0.9-3.31-2.18-11.31 3.5-10.94 3.14 0.2 7.16 5.5 8.58 8.2 3.18 6.01 7.25 30.29 7.93 46.75q0 0 0 0 4.97 3.63 9.86 7.39 1.8 1.39 3.64 2.69c-5.94-15.02-15.63-45.16-15.2-53.21 0.22-4.1 1.58-10.75 6.46-11.16 5.06-0.42 6.77 7.24 8.56 10.9 4.14 8.44 6.89 38.14 6.64 43.71-0.2 4.32-1.31 8.77-1.73 13.01q0.08 0.05 0.16 0.09 4.24 2.77 8.58 5.24-0.03-0.38-0.05-0.78c-0.86-13.31-4.36-41.43-4.75-50.54-0.18-4.24 0.47-14.2 7.15-12.12 3.7 1.16 7.05 8.69 8.01 12.34 2.03 7.57 0.63 34.47-2.54 54.23q-0.09 0.54-0.19 1.07c9.58 5.05 19.39 9.6 29.25 14.89 2.98 1.58 0.8 6.55-2.19 4.94-14.24-7.63-28.8-13.45-42.38-21.98-12.45 14.7-41.02 27.33-44.76 25.63-8.25-3.74 0.4-13.98 5.15-16.89 9.25-5.65 31.43-10.1 37.72-9.96q-2.78-1.8-5.48-3.78-4.99-3.68-10-7.33c-4.67 4.52-14.13 14.65-33.47 16.11-3.25 0.25-7.58 0.27-9.66-2.76-2.88-4.21 2.13-6.03 5.33-7.09 5.48-1.81 24.62-6.69 33.41-9.47-6.67-4.9-13.36-9.79-20.01-14.71-10.43 6.85-23.14 15.11-36.07 13.21-8.47-1.25-3.77-9.2 0.87-12 8.31-5.02 19.27-6.27 29.27-5.63q-4.69-3.5-9.33-7.02-0.84-0.64-1.67-1.27c-4.85 3.82-9.13 8.03-15.14 10-5.93 1.94-12.07 0.82-17.55-1.84-2.41-1.19-5.5-2.27-6.6-5.1-1.54-3.95 3.17-3.47 5.97-3.44 5.94 0.04 12.02-0.27 17.91-0.89 3.26-0.35 6.32-0.57 9.49-0.6 0.82-0.01 1.92-0.19 3.03-0.38q-6.56-5.1-12.93-10.5c-9.97 3.18-22.05 6.94-32.13 2.4-6.61-2.99-1.06-8.39 3.33-9.61 6.79-1.89 14.59-1 21.76 1.13q-2.72-2.41-5.41-4.85c-12.19-0.15-27.3-0.12-36.88-9.01-6.09-5.65 1.9-9.56 7.12-9.31 5.12 0.26 10.26 1.88 15.13 4.28q-1.16-1.16-2.3-2.34-2.74-2.82-5.26-5.79c-10.36 1.34-22.96 2.93-32.14-3.41-6-4.13 0.38-8.47 4.9-8.88 7.16-0.65 14.88 1.77 21.67 5.28-2.38-3.16-4.65-6.4-6.86-9.7-8.51-0.25-18.8-0.63-25.41-6.92-4.33-4.14 1.34-6.82 5.04-6.57 5.37 0.38 10.8 2.88 15.55 6.16-2.37-3.64-4.72-7.29-7.14-10.92-3.56-1.47-7.19-3.32-10.3-4.99-3.69-1.98-7.49-4.76-8.29-9.32-1.05-6 2.67-8.3 7.97-6.3z"/>
						<path id="&lt;Path&gt;" class="s5" d="m36.61 464.17c2.41 0.91 4.29 2.52 5.84 4.5-0.19-2.4 0.1-4.75 1.01-6.53 0.93-1.8 2.1-2.59 3.3-2.64 2.04-0.13 4.19 1.8 5.37 4.29 2.09 4.4 1.64 9.69 1.97 14.46 0.1 1.48 0.38 2.95 0.72 4.41 0.46 2.01 1.01 4.01 1.35 6q2.34 3.61 4.7 7.2 0.01 0.01 0.01 0.01c-2.24-6.81-3.43-14.64-1.64-21.32 0.99-3.7 5.32-8.36 7.65-2.75 3.73 9 0.13 19.82-2.52 28.46l-0.42 0.21q1.11 1.63 2.24 3.26 0.06 0.09 0.11 0.17c3.86 5.51 7.95 10.86 12.54 15.89q0 0.01 0.01 0.02c-0.63-2.4-1.01-4.82-1.05-7.22-0.07-4.35 3.21-10.86 7.5-5.54 5.52 6.85 6.26 16.53 6.24 25.4 6.45 6.11 13.12 12.04 19.93 17.73-4.69-7.01-8.47-15.45-8.6-23.61-0.08-4.67 3.44-11.65 8.04-5.94 7.39 9.16 6.8 23.07 6.59 34.1l-0.23 0.21q0 0 0.01 0 4.86 3.93 9.81 7.7 2.43 1.85 4.87 3.67 0.01 0.01 0.02 0.01c-6.7-9.53-12.24-20.91-12.82-31.73-0.33-6.17 4.05-15.21 10.53-7.42 10.36 12.44 10.29 30.69 10.55 45.22q0.01 0 0.01 0c4.67 3.41 9.36 6.78 14.03 10.17-3.12-10.44-10.84-31.66-12.79-38.73-0.9-3.31-2.18-11.31 3.5-10.94 3.14 0.2 7.16 5.5 8.58 8.2 3.18 6.01 7.25 30.29 7.93 46.75q0 0 0 0 4.97 3.63 9.86 7.39 1.8 1.39 3.64 2.69c-5.94-15.02-15.63-45.16-15.2-53.21 0.22-4.1 1.58-10.75 6.46-11.16 5.06-0.42 6.77 7.24 8.56 10.9 4.14 8.44 6.89 38.14 6.64 43.71-0.2 4.32-1.31 8.77-1.73 13.01q0.08 0.05 0.16 0.09 4.24 2.77 8.58 5.24-0.03-0.38-0.05-0.78c-0.86-13.31-4.36-41.43-4.75-50.54-0.18-4.24 0.47-14.2 7.15-12.12 3.7 1.16 7.05 8.69 8.01 12.34 2.03 7.57 0.63 34.47-2.54 54.23q-0.09 0.54-0.19 1.07c9.58 5.05 19.39 9.6 29.25 14.89 2.98 1.58 0.8 6.55-2.19 4.94-14.24-7.63-28.8-13.45-42.38-21.98-12.45 14.7-41.02 27.33-44.76 25.63-8.25-3.74 0.4-13.98 5.15-16.89 9.25-5.65 31.43-10.1 37.72-9.96q-2.78-1.8-5.48-3.78-4.99-3.68-10-7.33c-4.67 4.52-14.13 14.65-33.47 16.11-3.25 0.25-7.58 0.27-9.66-2.76-2.88-4.21 2.13-6.03 5.33-7.09 5.48-1.81 24.62-6.69 33.41-9.47-6.67-4.9-13.36-9.79-20.01-14.71-10.43 6.85-23.14 15.11-36.07 13.21-8.47-1.25-3.77-9.2 0.87-12 8.31-5.02 19.27-6.27 29.27-5.63q-4.69-3.5-9.33-7.02-0.84-0.64-1.67-1.27c-4.85 3.82-9.13 8.03-15.14 10-5.93 1.94-12.07 0.82-17.55-1.84-2.41-1.19-5.5-2.27-6.6-5.1-1.54-3.95 3.17-3.47 5.97-3.44 5.94 0.04 12.02-0.27 17.91-0.89 3.26-0.35 6.32-0.57 9.49-0.6 0.82-0.01 1.92-0.19 3.03-0.38q-6.56-5.1-12.93-10.5c-9.97 3.18-22.05 6.94-32.13 2.4-6.61-2.99-1.06-8.39 3.33-9.61 6.79-1.89 14.59-1 21.76 1.13q-2.72-2.41-5.41-4.85c-12.19-0.15-27.3-0.12-36.88-9.01-6.09-5.65 1.9-9.56 7.12-9.31 5.12 0.26 10.26 1.88 15.13 4.28q-1.16-1.16-2.3-2.34-2.74-2.82-5.26-5.79c-10.36 1.34-22.96 2.93-32.14-3.41-6-4.13 0.38-8.47 4.9-8.88 7.16-0.65 14.88 1.77 21.67 5.28-2.38-3.16-4.65-6.4-6.86-9.7-8.51-0.25-18.8-0.63-25.41-6.92-4.33-4.14 1.34-6.82 5.04-6.57 5.37 0.38 10.8 2.88 15.55 6.16-2.37-3.64-4.72-7.29-7.14-10.92-3.56-1.47-7.19-3.32-10.3-4.99-3.69-1.98-7.49-4.76-8.29-9.32-1.05-6 2.67-8.3 7.97-6.3z"/>
					</g>
					<g id="&lt;Group&gt;">
						<path id="&lt;Path&gt;" class="s4" d="m149.16 568.08c15.76 17.02 34.56-12.16 40.86-20.83 4.64-6.38 9.04-14.77 8.84-3.68-0.19 9.75-15.46 23.04-21.9 32.08-3.15 4.43-16.54 2.34-13.63 13.26 2.91 10.92 35.44 56.51 57.03 56.61 19.89 0.09 29.4-32.9 31.18-52.01 0.22-2.42 1.9-6.48 1.82-8.91 9.71 11.53 22.52 21.09 35.38 27.97 16.75 8.98 26.22 7.5 35.62-10.46 11.6-22.17 13.17-53.16 11.23-78.06-0.69-8.81-2.46-9.79-9.87-8.11-5.47 1.25-11.65 5.1-16.96 6.19-10.24 2.1-21.42 4.36-30.14-1.06-13.73-8.54-2.11-12.56 7.56-14.69 11.25-2.47 21.56 5.21 31.72-6.15 17.43-19.49-43.96-64.34-63.91-68.43-3.25 12.29-14.87 26.05-27.8 26.75-11.35 0.62-7.38-5.76-3.81-10.34 4.11-5.26 12.25-6.35 11-13.74-5.11-30.27-74.28-20.8-91.71-16.57-17.42 4.24-16.41 1.72-27.95-4.41-3.3-1.75-3.24-4.38-6.17-6.27-3.66 19.26-8.81 42.1 7.06 57.13 7.69 7.27 21.23 7.83 30.24 10.45 6.21 1.8 28.64 8 12.04 9.57-11.59 1.1-23.83-5.43-35.72-4.49 2.91 9.29 3.9 23.28 13.27 28.89 11.22 6.74 25.86-1.37 38.1-0.51-8.64 11.32-24.16 8.17-37.05 9.38 1.37 15.82 2.85 38.76 13.67 50.44z"/>
						<path id="&lt;Path&gt;" class="s6" d="m149.16 568.08c15.76 17.02 34.56-12.16 40.86-20.83 4.64-6.38 9.04-14.77 8.84-3.68-0.19 9.75-15.46 23.04-21.9 32.08-3.15 4.43-16.54 2.34-13.63 13.26 2.91 10.92 35.44 56.51 57.03 56.61 19.89 0.09 29.4-32.9 31.18-52.01 0.22-2.42 1.9-6.48 1.82-8.91 9.71 11.53 22.52 21.09 35.38 27.97 16.75 8.98 26.22 7.5 35.62-10.46 11.6-22.17 13.17-53.16 11.23-78.06-0.69-8.81-2.46-9.79-9.87-8.11-5.47 1.25-11.65 5.1-16.96 6.19-10.24 2.1-21.42 4.36-30.14-1.06-13.73-8.54-2.11-12.56 7.56-14.69 11.25-2.47 21.56 5.21 31.72-6.15 17.43-19.49-43.96-64.34-63.91-68.43-3.25 12.29-14.87 26.05-27.8 26.75-11.35 0.62-7.38-5.76-3.81-10.34 4.11-5.26 12.25-6.35 11-13.74-3.17-18.77-29.16-20.94-44.08-21.32-11.3-0.29-21.92 0.8-32.96 3.12-13.51 2.84-28.98 6.42-41.28-2.03-1.26-0.87-7.8-5.49-7.51-7.02-3.66 19.26-8.81 42.1 7.06 57.13 7.69 7.27 21.23 7.83 30.24 10.45 6.21 1.8 28.64 8 12.04 9.57-11.59 1.1-23.83-5.43-35.72-4.49 2.91 9.29 3.9 23.28 13.27 28.89 11.22 6.74 25.86-1.37 38.1-0.51-8.64 11.32-24.16 8.17-37.05 9.38 1.37 15.82 2.85 38.76 13.67 50.44z"/>
						<g id="&lt;Group&gt;">
							<path id="&lt;Path&gt;" class="s4" d="m227.95 576.57c7.93-0.79 14.52-3.18 22.73-1.34-1.5 4.31 4.59 30.04 4.77 30.34 3.56 5.97 5.13 1.25 5.4-0.68 0.05-0.35-0.24-0.98-0.45-1.61-3.15-9.33-4.25-19.25-5.28-29.14 5.33-9.07 11.45-22.49 20.65-27.09 3.32-1.66 3.32-7.15-0.04-5.87-9.95 3.78-15.72 16.94-21.2 25.79-0.55-6.38-1.05-12.88-1.65-19.37 3.87-7.49 8.43-16.7 12.56-23.44 1.83-2.98-1.19-6.91-2.82-3.95-3.57 6.49-7.25 13.71-10.55 20.51-0.77-7.23-2.19-14.33-3.76-21.46-0.05-0.21 0.19-0.49 0.19-0.74-0.11-7.24 2.22-14.05 4.59-20.37 1.15-3.08-3.46-6.07-4.77-3.04-2.31 5.36-4.71 11.06-4.52 17.19-4.27-6.12-8.29-8.13-13.68-15.56-0.05-0.07-2.67-17.82-3.28-21.55-0.28-1.68-6.29-5.16-6.26-1.41 0.06 7.03 1.99 11.94 2.78 18.5-11.23-9.3-23.82-18.45-35.5-26.59-3.5-2.44-7.75-0.01-4.21 2.69 10.02 7.65 20.37 14.64 30.16 22.45-5.87-0.78-12.84-1.05-18.57-0.97-7.72 0.12-18.63-0.08-23.19 6.06-2.11 2.85 2.83 5.45 5.5 2.8 4.77-4.75 14.81-4.21 21.99-3.96 7.19 0.25 15.36 0.65 22.54 2.65 6.32 4.97 12.38 10.24 18.02 15.92-3.01 0.1-6.54 0.58-9.42 1.2-9.79 2.1-18.96 4.97-27.2 10.52-3.29 2.22 0.39 5.32 3.66 3.39 6.88-4.08 14.85-6.97 23.11-8.64 4.02-0.81 8.87-2.07 12.95-0.59 2.31 7.36 3.37 15.04 4.41 22.65-7.78-3.56-14.88-2.26-22.5 1.2-3.06 1.39-1.96 5.68 0.05 5.17 9.69-2.48 15.16-3.15 23.31 1.55 0.48 6.16 1.06 12.33 1.52 18.49-7.42-0.18-14.79 1.1-21.9 2.93-2.69 0.69-2.99 5.65-0.14 5.37z"/>
						</g>
						<g id="&lt;Group&gt;" style="mix-blend-mode: multiply">
							<path id="&lt;Path&gt;" class="s4" d="m227.95 576.57c7.93-0.79 14.52-3.18 22.73-1.34-1.5 4.31 4.59 30.04 4.77 30.34 3.56 5.97 5.13 1.25 5.4-0.68 0.05-0.35-0.24-0.98-0.45-1.61-3.15-9.33-4.25-19.25-5.28-29.14 5.33-9.07 11.45-22.49 20.65-27.09 3.32-1.66 3.32-7.15-0.04-5.87-9.95 3.78-15.72 16.94-21.2 25.79-0.55-6.38-1.05-12.88-1.65-19.37 3.87-7.49 8.43-16.7 12.56-23.44 1.83-2.98-1.19-6.91-2.82-3.95-3.57 6.49-7.25 13.71-10.55 20.51-0.77-7.23-2.19-14.33-3.76-21.46-0.05-0.21 0.19-0.49 0.19-0.74-0.11-7.24 2.22-14.05 4.59-20.37 1.15-3.08-3.46-6.07-4.77-3.04-2.31 5.36-4.71 11.06-4.52 17.19-4.27-6.12-8.29-8.13-13.68-15.56-0.05-0.07-2.67-17.82-3.28-21.55-0.28-1.68-6.29-5.16-6.26-1.41 0.06 7.03 1.99 11.94 2.78 18.5-11.23-9.3-23.82-18.45-35.5-26.59-3.5-2.44-7.75-0.01-4.21 2.69 10.02 7.65 20.37 14.64 30.16 22.45-5.87-0.78-12.84-1.05-18.57-0.97-7.72 0.12-18.63-0.08-23.19 6.06-2.11 2.85 2.83 5.45 5.5 2.8 4.77-4.75 14.81-4.21 21.99-3.96 7.19 0.25 15.36 0.65 22.54 2.65 6.32 4.97 12.38 10.24 18.02 15.92-3.01 0.1-6.54 0.58-9.42 1.2-9.79 2.1-18.96 4.97-27.2 10.52-3.29 2.22 0.39 5.32 3.66 3.39 6.88-4.08 14.85-6.97 23.11-8.64 4.02-0.81 8.87-2.07 12.95-0.59 2.31 7.36 3.37 15.04 4.41 22.65-7.78-3.56-14.88-2.26-22.5 1.2-3.06 1.39-1.96 5.68 0.05 5.17 9.69-2.48 15.16-3.15 23.31 1.55 0.48 6.16 1.06 12.33 1.52 18.49-7.42-0.18-14.79 1.1-21.9 2.93-2.69 0.69-2.99 5.65-0.14 5.37z"/>
						</g>
					</g>
					<g id="&lt;Group&gt;">
						<path id="&lt;Path&gt;" class="s4" d="m340 417.2c7.51 28.9 23.07 81.42-7.51 105.32-7.65 5.98-17.12 7.75-25.65 9.68-10.85 2.45-20.68 6.77-31.1 0.57-14.95-8.9-24.99-38.18-24.78-54.48 0.12-9.52 7.45-13.72 7.39-22.4-0.05-7.32-3.07-12.69-6.31-19.03-3.24-6.34-6.01-13.19-4.29-20.17 1.72-6.98 7.85-10.63 8.14-18 0.34-8.33-6.68-13.74-12.63-18.83-5.94-5.09-10.93-10.78-15.1-17.44-2.74-4.37-4.87-8.94-4.63-14.24 0.19-4 2.12-7.43 4.58-10.46 1.27-1.57 2.71-3.13 4.44-4.18 7.73-4.71 15.69-8.03 24.74-4.18 10.62 4.52 17.11 14.74 25.13 23.23 2.31 2.45 5.31 5.35 8.27 7.97 11.36 10.06 24.38 14.32 34.73 26.75 8 9.61 10.43 13.91 14.58 29.89z"/>
						<path id="&lt;Path&gt;" class="s4" d="m310.15 489.13c8.44-6.48 17.12-12.62 23.6-21.22 1.5-1.99-1.86-3.47-3.3-1.49-5.53 7.65-13.14 13.45-20.64 19.2-0.04-0.95-0.07-1.83-0.13-2.79-0.28-4.55-1.05-9.04-1.74-13.55-0.03-0.21 0.24-0.43 0.17-0.68 7.73-6.15 12.21-13.32 14.43-22.87 0.63-2.67-3.01-3.22-3.72-0.68-2.14 7.73-5.38 14.84-11.71 20.12-1.29-5.81-2.91-11.6-4.36-17.38 2.23-2.34 3.91-4.78 5.35-7.74 1.78-3.65 3.2-8.03 2.61-12.08-0.42-2.88-3.95-3.07-3.84 0.17 0.11 3.25-0.77 6.81-2.33 9.74-0.96 1.81-1.84 3.33-3.07 4.9-1.34-4.98-2.62-9.98-4.3-14.86 1.42-4.85 3.75-9.7 6.18-13.95 1.33-2.34-1.38-5.27-3.1-3.03-2.4 3.11-3.82 6.86-5.4 10.42-1.05-3.1-2.17-6.2-3.23-9.33 3.62-3.76 2.96-9.63 4.52-14.1 0.88-2.55-1.98-5.26-3.32-2.95-1.34 2.31-1.2 4.75-1.75 7.26-0.38 1.68-0.55 3.6-1.43 5.18q-2.74-6.28-6.05-12.29c1.02-2.37 2.29-5.18 2.9-7.57 0.61-2.39-2.42-5.04-3.71-2.5-0.92 1.82-1.1 3.68-1.96 5.46-1.17-1.88-2.35-3.81-3.63-5.62 1.21-2.1 1.8-4.34 1.77-6.8-0.04-2.47-3.57-3.79-4.31-0.97-0.28 1.05-0.16 2.01-0.44 3.02-0.07 0.27-0.1 0.51-0.19 0.76-0.79-0.84-1.43-2.02-2.26-2.79-2.02-1.86-4.61-0.27-3.15 2.25 0.46 0.81 1.2 1.45 1.72 2.22-0.89-0.17-1.47-0.41-2.42-0.62-0.96-0.22-2.13 0.36-2.15 1.58-0.03 1.21 0.85 2.11 1.97 2.48 2.13 0.71 4.32 1.01 6.5 1.48 0.9 1.26 1.74 2.61 2.57 3.91 0.01 0.02-0.04 0-0.07-0.01-0.98-0.2-1.85-0.33-2.73-0.94-0.87-0.6-2.09-0.84-2.82 0.07-0.72 0.92-0.58 2.25 0.32 2.92 2.34 1.75 5.06 2.09 7.84 2.66 0.11 0.02 0.27-0.05 0.33 0.06 2.09 3.59 3.84 7.39 5.64 11.16-0.16-0.06-0.29-0.11-0.46-0.18-1.32-0.5-2.51-1.14-3.5-2.14-1.99-2.02-4.43 0.51-2.79 2.7 2.17 2.9 6.18 3.74 9.28 5.48 1.34 3.73 2.6 7.49 3.9 11.24-0.45-0.25-0.83-0.58-1.25-0.86-1.3-0.85-2.24-2.13-3.6-2.9-2.39-1.33-4 1.75-2.15 3.54 1.39 1.35 3.11 2.58 4.71 3.84 0.99 0.78 2.35 1.31 3.52 1.75 0.39 0.15 0.45 0.87 0.95 0.98 1.43 4.24 2.46 8.59 3.61 12.88-4.3-2.5-7.71-5.62-10.59-9.6-1.67-2.32-4.47 0.03-3.04 2.42 3.39 5.68 8.94 9.16 14.61 12.58 0.14 0.09 0.29-0.01 0.42 0.23 0.12 0.25 0.24 0.91 0.34 1.32 1.26 5.08 2.61 10.21 3.76 15.33-0.49-0.38-1.23-1-1.65-1.34-1.46-1.15-2.72-1.89-4.15-3.05-3.87-3.1-7.76-6.64-11.6-9.76-1.9-1.54-4.61 0.86-2.76 2.51 4.65 4.17 9.49 7.86 14.36 11.72 2.09 1.66 4.08 3.32 6.7 4.08 0.62 3.48 1.24 7.05 1.55 10.56 0.15 1.68 0.21 3.26 0.27 4.92-7.05-3.19-12.7-8.78-19.27-12.56-1.91-1.1-4.24 1.33-2.36 2.53 7.34 4.68 13.52 10.22 21.6 13.49-0.38 6.69-1.31 13.25-2.39 19.88-0.11 0.68-0.2 1.47-0.36 2.13-6.58-3.56-14.06-10.96-20.68-12.85-3.2-0.92-3.26 1.77-1.87 2.7 3.46 2.3 6.97 4.22 10.5 6.74 3.52 2.53 7.5 5.32 11.59 7.12-2.98 20.91-0.92 41.74 1.35 62.59 0.27 2.44 4.2 2.95 3.97 0.44-1.9-21.14-4.69-41.87-1.52-62.86 0.06-0.39 0.04-0.57 0.19-1.02 9.63-6.27 22.16-16.31 27.13-25.8 1.67-3.18-1.94-3.55-3.58-0.68-4.44 7.73-14.9 17.23-23.04 22.79 1.11-6.84 2.32-13.84 2.74-20.86 0.14-0.09 0.27-0.14 0.4-0.24z"/>
						<path id="&lt;Path&gt;" class="s7" d="m310.15 489.13c8.44-6.48 17.12-12.62 23.6-21.22 1.5-1.99-1.86-3.47-3.3-1.49-5.53 7.65-13.14 13.45-20.64 19.2-0.04-0.95-0.07-1.83-0.13-2.79-0.28-4.55-1.05-9.04-1.74-13.55-0.03-0.21 0.24-0.43 0.17-0.68 7.73-6.15 12.21-13.32 14.43-22.87 0.63-2.67-3.01-3.22-3.72-0.68-2.14 7.73-5.38 14.84-11.71 20.12-1.29-5.81-2.91-11.6-4.36-17.38 2.23-2.34 3.91-4.78 5.35-7.74 1.78-3.65 3.2-8.03 2.61-12.08-0.42-2.88-3.95-3.07-3.84 0.17 0.11 3.25-0.77 6.81-2.33 9.74-0.96 1.81-1.84 3.33-3.07 4.9-1.34-4.98-2.62-9.98-4.3-14.86 1.42-4.85 3.75-9.7 6.18-13.95 1.33-2.34-1.38-5.27-3.1-3.03-2.4 3.11-3.82 6.86-5.4 10.42-1.05-3.1-2.17-6.2-3.23-9.33 3.62-3.76 2.96-9.63 4.52-14.1 0.88-2.55-1.98-5.26-3.32-2.95-1.34 2.31-1.2 4.75-1.75 7.26-0.38 1.68-0.55 3.6-1.43 5.18q-2.74-6.28-6.05-12.29c1.02-2.37 2.29-5.18 2.9-7.57 0.61-2.39-2.42-5.04-3.71-2.5-0.92 1.82-1.1 3.68-1.96 5.46-1.17-1.88-2.35-3.81-3.63-5.62 1.21-2.1 1.8-4.34 1.77-6.8-0.04-2.47-3.57-3.79-4.31-0.97-0.28 1.05-0.16 2.01-0.44 3.02-0.07 0.27-0.1 0.51-0.19 0.76-0.79-0.84-1.43-2.02-2.26-2.79-2.02-1.86-4.61-0.27-3.15 2.25 0.46 0.81 1.2 1.45 1.72 2.22-0.89-0.17-1.47-0.41-2.42-0.62-0.96-0.22-2.13 0.36-2.15 1.58-0.03 1.21 0.85 2.11 1.97 2.48 2.13 0.71 4.32 1.01 6.5 1.48 0.9 1.26 1.74 2.61 2.57 3.91 0.01 0.02-0.04 0-0.07-0.01-0.98-0.2-1.85-0.33-2.73-0.94-0.87-0.6-2.09-0.84-2.82 0.07-0.72 0.92-0.58 2.25 0.32 2.92 2.34 1.75 5.06 2.09 7.84 2.66 0.11 0.02 0.27-0.05 0.33 0.06 2.09 3.59 3.84 7.39 5.64 11.16-0.16-0.06-0.29-0.11-0.46-0.18-1.32-0.5-2.51-1.14-3.5-2.14-1.99-2.02-4.43 0.51-2.79 2.7 2.17 2.9 6.18 3.74 9.28 5.48 1.34 3.73 2.6 7.49 3.9 11.24-0.45-0.25-0.83-0.58-1.25-0.86-1.3-0.85-2.24-2.13-3.6-2.9-2.39-1.33-4 1.75-2.15 3.54 1.39 1.35 3.11 2.58 4.71 3.84 0.99 0.78 2.35 1.31 3.52 1.75 0.39 0.15 0.45 0.87 0.95 0.98 1.43 4.24 2.46 8.59 3.61 12.88-4.3-2.5-7.71-5.62-10.59-9.6-1.67-2.32-4.47 0.03-3.04 2.42 3.39 5.68 8.94 9.16 14.61 12.58 0.14 0.09 0.29-0.01 0.42 0.23 0.12 0.25 0.24 0.91 0.34 1.32 1.26 5.08 2.61 10.21 3.76 15.33-0.49-0.38-1.23-1-1.65-1.34-1.46-1.15-2.72-1.89-4.15-3.05-3.87-3.1-7.76-6.64-11.6-9.76-1.9-1.54-4.61 0.86-2.76 2.51 4.65 4.17 9.49 7.86 14.36 11.72 2.09 1.66 4.08 3.32 6.7 4.08 0.62 3.48 1.24 7.05 1.55 10.56 0.15 1.68 0.21 3.26 0.27 4.92-7.05-3.19-12.7-8.78-19.27-12.56-1.91-1.1-4.24 1.33-2.36 2.53 7.34 4.68 13.52 10.22 21.6 13.49-0.38 6.69-1.31 13.25-2.39 19.88-0.11 0.68-0.2 1.47-0.36 2.13-6.58-3.56-14.06-10.96-20.68-12.85-3.2-0.92-3.26 1.77-1.87 2.7 3.46 2.3 6.97 4.22 10.5 6.74 3.52 2.53 7.5 5.32 11.59 7.12-2.98 20.91-0.92 41.74 1.35 62.59 0.27 2.44 4.2 2.95 3.97 0.44-1.9-21.14-4.69-41.87-1.52-62.86 0.06-0.39 0.04-0.57 0.19-1.02 9.63-6.27 22.16-16.31 27.13-25.8 1.67-3.18-1.94-3.55-3.58-0.68-4.44 7.73-14.9 17.23-23.04 22.79 1.11-6.84 2.32-13.84 2.74-20.86 0.14-0.09 0.27-0.14 0.4-0.24z"/>
					</g>
				</g>
				<g id="&lt;Group&gt;">
					<g id="&lt;Group&gt;">
						<g id="&lt;Group&gt;">
							<g id="&lt;Group&gt;">
								<path id="&lt;Path&gt;" class="s8" d="m1121.99 681.14h-120.33v142.5h120.33z"/>
								<path id="&lt;Path&gt;" class="s9" d="m1121.99 681.13v15.57h-103.76v126.95h-16.56v-142.52z"/>
								<g id="&lt;Group&gt;">
									<path id="&lt;Path&gt;" class="s8" d="m1138.58 683.57h-136.91v-75.38h114.92z"/>
									<path id="&lt;Path&gt;" class="s10" d="m1111.02 683.57h-109.35v-75.38h90.48z"/>
									<path id="&lt;Path&gt;" class="s8" d="m1084.17 683.57h-82.5v-75.38h66.68z"/>
									<path id="&lt;Path&gt;" class="s10" d="m1060.15 683.57h-58.48v-75.38h45.4z"/>
									<path id="&lt;Path&gt;" class="s8" d="m1034.83 683.57h-33.16v-75.38h22.96z"/>
									<path id="&lt;Path&gt;" class="s10" d="m1011.47 683.57h-9.8v-75.38h2.27z"/>
								</g>
								<g id="&lt;Group&gt;">
									<path id="&lt;Compound Path&gt;" fill-rule="evenodd" class="s11" d="m1085.89 727.15v59.82h-59.79v-59.82zm-35.38 5.54h-18.86v48.74h18.86zm29.84 0h-18.87v48.73h18.87z"/>
									<path id="&lt;Path&gt;" class="s8" d="m1050.51 732.69v48.74h-18.87v-48.74z"/>
									<path id="&lt;Path&gt;" class="s8" d="m1080.35 732.69v48.74h-18.87v-48.74z"/>
									<g id="&lt;Group&gt;">
										<path id="&lt;Path&gt;" class="s12" d="m1050.51 732.69v9.12l-18.87 6.62v-10.39l15.21-5.35z"/>
										<path id="&lt;Path&gt;" class="s12" d="m1076.39 732.69l-14.91 5.24v-5.24z"/>
										<path id="&lt;Path&gt;" class="s12" d="m1031.64 758.51l18.87-6.65v10.39l-18.87 6.65z"/>
										<path id="&lt;Path&gt;" class="s12" d="m1080.35 741.36v10.39l-18.87 6.65v-10.41z"/>
										<path id="&lt;Path&gt;" class="s12" d="m1031.64 778.96l18.87-6.65v9.12h-18.87z"/>
										<path id="&lt;Path&gt;" class="s12" d="m1080.35 761.81v10.42l-18.87 6.62v-10.39z"/>
									</g>
								</g>
							</g>
							<g id="&lt;Group&gt;">
								<path id="&lt;Path&gt;" class="s8" d="m545.14 681.14h120.33v142.5h-120.33z"/>
								<path id="&lt;Path&gt;" class="s9" d="m545.13 681.13v15.57h103.76v126.95h16.57v-142.52z"/>
								<g id="&lt;Group&gt;">
									<path id="&lt;Path&gt;" class="s8" d="m528.54 683.57h136.92v-75.38h-114.92z"/>
									<path id="&lt;Path&gt;" class="s10" d="m556.1 683.57h109.36v-75.38h-90.49z"/>
									<path id="&lt;Path&gt;" class="s8" d="m582.95 683.57h82.51v-75.38h-66.69z"/>
									<path id="&lt;Path&gt;" class="s10" d="m606.97 683.57h58.49v-75.38h-45.41z"/>
									<path id="&lt;Path&gt;" class="s8" d="m632.29 683.57h33.17v-75.38h-22.97z"/>
									<path id="&lt;Path&gt;" class="s10" d="m655.65 683.57h9.81v-75.38h-2.28z"/>
								</g>
								<g id="&lt;Group&gt;">
									<path id="&lt;Compound Path&gt;" fill-rule="evenodd" class="s11" d="m641.02 727.15v59.82h-59.79v-59.82zm-24.41 54.28h18.87v-48.74h-18.87zm-29.83 0h18.86v-48.73h-18.86z"/>
									<path id="&lt;Path&gt;" class="s8" d="m616.61 732.69v48.74h18.87v-48.74z"/>
									<path id="&lt;Path&gt;" class="s8" d="m586.77 732.69v48.74h18.87v-48.74z"/>
									<g id="&lt;Group&gt;">
										<path id="&lt;Path&gt;" class="s12" d="m616.61 732.69v9.12l18.87 6.62v-10.39l-15.21-5.35z"/>
										<path id="&lt;Path&gt;" class="s12" d="m590.74 732.69l14.9 5.24v-5.24z"/>
										<path id="&lt;Path&gt;" class="s12" d="m635.48 758.51l-18.87-6.65v10.39l18.87 6.65z"/>
										<path id="&lt;Path&gt;" class="s12" d="m586.77 741.36v10.39l18.87 6.65v-10.41z"/>
										<path id="&lt;Path&gt;" class="s12" d="m635.48 778.96l-18.87-6.65v9.12h18.87z"/>
										<path id="&lt;Path&gt;" class="s12" d="m586.77 761.81v10.42l18.87 6.62v-10.39z"/>
									</g>
								</g>
							</g>
						</g>
						<path id="&lt;Path&gt;" class="s8" d="m1001.67 655.21h-337.05v-126.66h337.05z"/>
						<path id="&lt;Path&gt;" class="s13" d="m1001.67 567.82l-337.05-39.27h337.05z"/>
						<g id="&lt;Group&gt;">
							<path id="&lt;Compound Path&gt;" fill-rule="evenodd" class="s9" d="m750.25 557.05v59.81h-59.79v-59.81zm-35.38 5.54h-18.87v48.73h18.87zm29.84 0h-18.87v48.73h18.87z"/>
							<path id="&lt;Path&gt;" class="s8" d="m714.87 562.59v48.73h-18.87v-48.73z"/>
							<path id="&lt;Path&gt;" class="s8" d="m744.71 562.59v48.73h-18.87v-48.73z"/>
							<g id="&lt;Group&gt;">
								<path id="&lt;Path&gt;" class="s12" d="m714.87 562.59v9.11l-18.87 6.62v-10.39l15.21-5.34z"/>
								<path id="&lt;Path&gt;" class="s12" d="m740.74 562.59l-14.9 5.23v-5.23z"/>
								<path id="&lt;Path&gt;" class="s12" d="m696 588.41l18.87-6.65v10.39l-18.87 6.65z"/>
								<path id="&lt;Path&gt;" class="s12" d="m744.71 571.26v10.39l-18.87 6.65v-10.42z"/>
								<path id="&lt;Path&gt;" class="s12" d="m696 608.85l18.87-6.64v9.11h-18.87z"/>
								<path id="&lt;Path&gt;" class="s12" d="m744.71 591.71v10.41l-18.87 6.62v-10.39z"/>
							</g>
						</g>
						<g id="&lt;Group&gt;">
							<path id="&lt;Compound Path&gt;" fill-rule="evenodd" class="s9" d="m863.01 557.05v59.81h-59.79v-59.81zm-35.38 5.54h-18.87v48.73h18.87zm29.84 0h-18.87v48.73h18.87z"/>
							<path id="&lt;Path&gt;" class="s8" d="m827.63 562.59v48.73h-18.87v-48.73z"/>
							<path id="&lt;Path&gt;" class="s8" d="m857.47 562.59v48.73h-18.87v-48.73z"/>
							<g id="&lt;Group&gt;">
								<path id="&lt;Path&gt;" class="s12" d="m827.63 562.59v9.11l-18.87 6.62v-10.39l15.21-5.34z"/>
								<path id="&lt;Path&gt;" class="s12" d="m853.5 562.59l-14.9 5.23v-5.23z"/>
								<path id="&lt;Path&gt;" class="s12" d="m808.76 588.41l18.87-6.65v10.39l-18.87 6.65z"/>
								<path id="&lt;Path&gt;" class="s12" d="m857.47 571.26v10.39l-18.87 6.65v-10.42z"/>
								<path id="&lt;Path&gt;" class="s12" d="m808.76 608.85l18.87-6.64v9.11h-18.87z"/>
								<path id="&lt;Path&gt;" class="s12" d="m857.47 591.71v10.41l-18.87 6.62v-10.39z"/>
							</g>
						</g>
						<g id="&lt;Group&gt;">
							<path id="&lt;Compound Path&gt;" fill-rule="evenodd" class="s9" d="m969 557.05v59.81h-59.79v-59.81zm-35.38 5.54h-18.86v48.73h18.86zm29.84 0h-18.87v48.73h18.87z"/>
							<path id="&lt;Path&gt;" class="s8" d="m933.62 562.59v48.73h-18.87v-48.73z"/>
							<path id="&lt;Path&gt;" class="s8" d="m963.46 562.59v48.73h-18.87v-48.73z"/>
							<g id="&lt;Group&gt;">
								<path id="&lt;Path&gt;" class="s12" d="m933.62 562.59v9.11l-18.87 6.62v-10.39l15.21-5.34z"/>
								<path id="&lt;Path&gt;" class="s12" d="m959.5 562.59l-14.91 5.23v-5.23z"/>
								<path id="&lt;Path&gt;" class="s12" d="m914.75 588.41l18.87-6.65v10.39l-18.87 6.65z"/>
								<path id="&lt;Path&gt;" class="s12" d="m963.46 571.26v10.39l-18.87 6.65v-10.42z"/>
								<path id="&lt;Path&gt;" class="s12" d="m914.75 608.85l18.87-6.64v9.11h-18.87z"/>
								<path id="&lt;Path&gt;" class="s12" d="m963.46 591.71v10.41l-18.87 6.62v-10.39z"/>
							</g>
						</g>
						<g id="&lt;Group&gt;">
							<path id="&lt;Path&gt;" class="s8" d="m1004.43 701.12h-348.6v-45.91h348.6z"/>
							<path id="&lt;Compound Path&gt;" fill-rule="evenodd" class="s13" d="m1004.43 624.11v77.01h-348.6v-77.01c0-1.53 1.24-2.77 2.78-2.77h343.05c1.52 0 2.77 1.24 2.77 2.77zm-13.73 28.33h8.18v-25.56h-8.18zm-13.72 0h8.18v-25.56h-8.18zm-13.72 0h8.18v-25.56h-8.18zm-13.72 0h8.18v-25.57h-8.18zm-13.72 0h8.18v-25.56h-8.18zm-13.73 0h8.18v-25.56h-8.18zm-13.72 0h8.18v-25.56h-8.18zm-13.72 0h8.18v-25.56h-8.18zm-13.72 0h8.18v-25.57h-8.18zm-13.72 0h8.18v-25.56h-8.18zm-13.73 0h8.19v-25.56h-8.19zm-13.72 0h8.18v-25.56h-8.18zm-13.72 0h8.18v-25.56h-8.18zm-13.72 0h8.18v-25.57h-8.18zm-13.72 0h8.18v-25.56h-8.18zm-13.73 0h8.19v-25.56h-8.19zm-13.72 0h8.18v-25.56h-8.18zm-13.72 0h8.18v-25.56h-8.18zm-13.72 0h8.18v-25.57h-8.18zm-13.73 0h8.19v-25.56h-8.19zm-13.72 0h8.18v-25.56h-8.18zm-13.72 0h8.18v-25.56h-8.18zm-13.72 0h8.18v-25.56h-8.18zm-13.72 0h8.18v-25.57h-8.18zm-13.72 0h8.18v-25.56h-8.18z"/>
						</g>
						<path id="&lt;Path&gt;" class="s8" d="m1001.66 823.64h-340.14v-122.52h340.14z"/>
						<path id="&lt;Path&gt;" class="s9" d="m1001.66 711.94h-340.14v-10.82h340.14z"/>
						<g id="&lt;Group&gt;">
							<path id="&lt;Path&gt;" class="s11" d="m828.07 724.46h-0.47c-15.28 0-27.66 12.38-27.66 27.66v71.52h55.79v-71.52c0-15.28-12.39-27.66-27.66-27.66z"/>
							<path id="&lt;Path&gt;" class="s14" d="m827.13 731.67c-11.34 0.37-20.43 9.66-20.43 21.1v73.15h20.43z"/>
							<path id="&lt;Path&gt;" class="s14" d="m829.9 731.74v94.18h19.07v-73.15c0-10.97-8.37-19.99-19.07-21.03z"/>
							<g id="&lt;Group&gt;">
								<path id="&lt;Path&gt;" class="s8" d="m839.43 780.36c0 1.75-1.41 3.16-3.16 3.16-1.74 0-3.16-1.41-3.16-3.16 0-1.74 1.42-3.16 3.16-3.16 1.75 0 3.16 1.42 3.16 3.16z"/>
								<path id="&lt;Path&gt;" class="s8" d="m824.61 780.36c0 1.75-1.41 3.16-3.16 3.16-1.74 0-3.16-1.41-3.16-3.16 0-1.74 1.42-3.16 3.16-3.16 1.75 0 3.16 1.42 3.16 3.16z"/>
							</g>
						</g>
						<g id="&lt;Group&gt;">
							<path id="&lt;Path&gt;" class="s8" d="m1025.85 545.71h-386.69l22-33.71h342.69z"/>
							<path id="&lt;Path&gt;" class="s10" d="m998.27 545.71h-331.54l18.87-33.71h293.81z"/>
							<path id="&lt;Path&gt;" class="s8" d="m971.44 545.71h-277.88l15.81-33.71h246.26z"/>
							<path id="&lt;Path&gt;" class="s10" d="m947.41 545.71h-229.81l13.07-33.71h203.66z"/>
							<path id="&lt;Path&gt;" class="s8" d="m922.09 545.71h-179.18l10.19-33.71h158.8z"/>
							<path id="&lt;Path&gt;" class="s10" d="m898.74 545.71h-132.48l7.54-33.71h117.4z"/>
							<path id="&lt;Path&gt;" class="s8" d="m876.62 545.71h-88.24l5.02-33.71h78.2z"/>
							<path id="&lt;Path&gt;" class="s10" d="m856.1 545.71h-47.19l2.68-33.71h41.82z"/>
							<path id="&lt;Path&gt;" class="s8" d="m839.76 545.71h-14.52l0.83-33.71h12.87z"/>
						</g>
						<g id="&lt;Group&gt;">
							<g id="&lt;Group&gt;">
								<path id="&lt;Compound Path&gt;" fill-rule="evenodd" class="s11" d="m979.43 722.78v59.82h-59.79v-59.82zm-35.37 5.55h-18.87v48.73h18.87zm29.83 0h-18.86v48.73h18.86z"/>
								<path id="&lt;Path&gt;" class="s8" d="m944.05 728.33v48.73h-18.86v-48.73z"/>
								<path id="&lt;Path&gt;" class="s8" d="m973.89 728.33v48.73h-18.87v-48.73z"/>
								<g id="&lt;Group&gt;">
									<path id="&lt;Path&gt;" class="s12" d="m944.05 728.33v9.11l-18.86 6.62v-10.39l15.21-5.34z"/>
									<path id="&lt;Path&gt;" class="s12" d="m969.93 728.33l-14.91 5.23v-5.23z"/>
									<path id="&lt;Path&gt;" class="s12" d="m925.19 754.15l18.86-6.65v10.39l-18.86 6.65z"/>
									<path id="&lt;Path&gt;" class="s12" d="m973.89 737v10.39l-18.87 6.65v-10.42z"/>
									<path id="&lt;Path&gt;" class="s12" d="m925.19 774.59l18.86-6.65v9.12h-18.86z"/>
									<path id="&lt;Path&gt;" class="s12" d="m973.89 757.44v10.42l-18.87 6.62v-10.39z"/>
								</g>
							</g>
							<g id="&lt;Group&gt;">
								<path id="&lt;Compound Path&gt;" fill-rule="evenodd" class="s11" d="m740.62 722.78v59.82h-59.79v-59.82zm-35.38 5.55h-18.87v48.73h18.87zm29.84 0h-18.87v48.73h18.87z"/>
								<path id="&lt;Path&gt;" class="s8" d="m705.24 728.33v48.73h-18.87v-48.73z"/>
								<path id="&lt;Path&gt;" class="s8" d="m735.08 728.33v48.73h-18.87v-48.73z"/>
								<g id="&lt;Group&gt;">
									<path id="&lt;Path&gt;" class="s12" d="m705.24 728.33v9.11l-18.87 6.62v-10.39l15.21-5.34z"/>
									<path id="&lt;Path&gt;" class="s12" d="m731.11 728.33l-14.9 5.23v-5.23z"/>
									<path id="&lt;Path&gt;" class="s12" d="m686.37 754.15l18.87-6.65v10.39l-18.87 6.65z"/>
									<path id="&lt;Path&gt;" class="s12" d="m735.08 737v10.39l-18.87 6.65v-10.42z"/>
									<path id="&lt;Path&gt;" class="s12" d="m686.37 774.59l18.87-6.65v9.12h-18.87z"/>
									<path id="&lt;Path&gt;" class="s12" d="m735.08 757.44v10.42l-18.87 6.62v-10.39z"/>
								</g>
							</g>
						</g>
					</g>
				</g>
				<g id="&lt;Group&gt;">
					<path id="&lt;Path&gt;" class="s8" d="m101.86 590.84v235.08h321.37v-182.13l-18.98-3.12-84.15-13.88-33.42-5.5-84.15-13.86z"/>
					<path id="&lt;Path&gt;" class="s11" d="m101.86 590.84v235.08h321.37v-182.13l-18.98-3.12-84.15-13.88-33.42-5.5-84.15-13.86z"/>
					<path id="&lt;Path&gt;" class="s11" d="m101.86 590.84v235.08h12.77v-222.26l308.6 50.84v-10.71z"/>
					<path id="&lt;Path&gt;" class="s8" d="m101.86 568.06v22.78l335.15 62.48v-16.42z"/>
					<path id="&lt;Path&gt;" class="s15" d="m101.86 579.07v11.77l335.15 62.48v-10.81z"/>
					<path id="&lt;Path&gt;" class="s8" d="m-99.88 611.81v214.11h201.73v-284.03l-0.41 0.15z"/>
					<path id="&lt;Path&gt;" class="s11" d="m-99.89 611.81v13.47l201.75-69.92v-13.48z"/>
					<g id="&lt;Group&gt;">
						<path id="&lt;Path&gt;" class="s8" d="m189.57 687.69v138.23h-6.45v-10.31-121.66h-51.9v121.66 10.31h-5.61v-138.23z"/>
						<path id="&lt;Path&gt;" class="s8" d="m131.22 693.79h51.9v118.6 13.53h-51.9v-13.53z"/>
						<path id="&lt;Path&gt;" class="s16" d="m131.22 693.95h51.9v121.66 10.31h-51.9v-10.31z"/>
						<path id="&lt;Path&gt;" class="s8" d="m134.86 759.69c0 2.25 1.82 4.07 4.07 4.07 2.24 0 4.06-1.82 4.06-4.07 0-2.24-1.82-4.06-4.06-4.06-2.25 0-4.07 1.82-4.07 4.06z"/>
					</g>
					<g id="&lt;Group&gt;">
						<path id="&lt;Path&gt;" class="s8" d="m-138.58 613.47l4.3 11.26 1.91-0.68 281.87-98.86-2.69-5.25-4.72-9.18z"/>
						<path id="&lt;Path&gt;" class="s15" d="m-133.03 622.37l0.66 1.68 281.87-98.86-2.69-5.25z"/>
					</g>
					<g id="&lt;Group&gt;">
						<path id="&lt;Path&gt;" class="s11" d="m-78.49 784.01h159.33v-159.34h-159.33z"/>
						<g id="&lt;Group&gt;">
							<path id="&lt;Path&gt;" class="s8" d="m16.4 659.04v25.97h47.52v-25.97z"/>
							<g id="&lt;Group&gt;">
								<path id="&lt;Compound Path&gt;" fill-rule="evenodd" class="s8" d="m71.45 651.51v104.53h-62.6v-104.53zm-55.04 96.98h47.51v-55.93h-47.51zm0-63.49h47.51v-25.96h-47.51z"/>
								<path id="&lt;Path&gt;" class="s8" d="m16.4 692.56v55.94h47.52v-55.94z"/>
								<g id="&lt;Group&gt;">
									<path id="&lt;Path&gt;" class="s12" d="m16.4 659.04v0.28l47.52 19.08v-10.84l-21.22-8.52z"/>
									<path id="&lt;Path&gt;" class="s12" d="m63.92 692.56h-12.93l12.93 5.18z"/>
									<path id="&lt;Path&gt;" class="s12" d="m16.4 667.84v10.84l15.79 6.33h27z"/>
									<path id="&lt;Path&gt;" class="s12" d="m16.4 692.56v5.48l47.52 19.06v-10.84l-34.17-13.7z"/>
									<path id="&lt;Path&gt;" class="s12" d="m16.4 706.54v10.83l47.52 19.09v-10.84z"/>
									<path id="&lt;Path&gt;" class="s12" d="m16.4 725.9v10.83l29.31 11.77h18.21v-3.55z"/>
								</g>
							</g>
						</g>
						<g id="&lt;Group&gt;">
							<path id="&lt;Path&gt;" class="s8" d="m-61.43 659.04v25.97h47.52v-25.97z"/>
							<g id="&lt;Group&gt;">
								<path id="&lt;Compound Path&gt;" fill-rule="evenodd" class="s8" d="m-6.36 651.51v104.53h-62.6v-104.53zm-55.07 96.98h47.53v-55.93h-47.53zm0-63.49h47.53v-25.96h-47.53z"/>
								<path id="&lt;Path&gt;" class="s8" d="m-61.43 692.56v55.94h47.52v-55.94z"/>
								<g id="&lt;Group&gt;">
									<path id="&lt;Path&gt;" class="s12" d="m-61.43 659.04v0.28l47.52 19.08v-10.84l-21.22-8.52z"/>
									<path id="&lt;Path&gt;" class="s12" d="m-13.91 692.56h-12.92l12.92 5.18z"/>
									<path id="&lt;Path&gt;" class="s12" d="m-61.43 667.84v10.84l15.79 6.33h27.01z"/>
									<path id="&lt;Path&gt;" class="s12" d="m-61.43 692.56v5.48l47.52 19.06v-10.84l-34.17-13.7z"/>
									<path id="&lt;Path&gt;" class="s12" d="m-61.43 706.54v10.83l47.52 19.09v-10.84z"/>
									<path id="&lt;Path&gt;" class="s12" d="m-61.43 725.9v10.83l29.32 11.77h18.2v-3.55z"/>
								</g>
							</g>
						</g>
					</g>
					<g id="&lt;Group&gt;">
						<path id="&lt;Path&gt;" class="s8" d="m338.41 687.69v25.97h47.52v-25.97z"/>
						<g id="&lt;Group&gt;">
							<path id="&lt;Compound Path&gt;" fill-rule="evenodd" class="s8" d="m393.48 680.15v104.53h-62.62v-104.53zm-55.06 97h47.51v-55.95h-47.51zm0-63.49h47.51v-25.98h-47.51z"/>
							<path id="&lt;Path&gt;" class="s8" d="m338.41 721.2v55.95h47.52v-55.95z"/>
							<g id="&lt;Group&gt;">
								<path id="&lt;Path&gt;" class="s12" d="m338.41 687.69v0.27l47.52 19.09v-10.84l-21.22-8.52z"/>
								<path id="&lt;Path&gt;" class="s12" d="m385.93 721.2h-12.92l12.92 5.18z"/>
								<path id="&lt;Path&gt;" class="s12" d="m338.41 696.49v10.83l15.79 6.34h27z"/>
								<path id="&lt;Path&gt;" class="s12" d="m338.41 721.2v5.48l47.52 19.06v-10.83l-34.17-13.71z"/>
								<path id="&lt;Path&gt;" class="s12" d="m338.41 735.18v10.84l47.52 19.08v-10.83z"/>
								<path id="&lt;Path&gt;" class="s12" d="m338.41 754.54v10.84l29.32 11.77h18.2v-3.55z"/>
							</g>
						</g>
					</g>
					<g id="&lt;Group&gt;">
						<path id="&lt;Path&gt;" class="s8" d="m220.26 687.69v25.97h47.52v-25.97z"/>
						<g id="&lt;Group&gt;">
							<path id="&lt;Compound Path&gt;" fill-rule="evenodd" class="s8" d="m275.33 680.15v104.53h-62.61v-104.53zm-55.07 97h47.51v-55.95h-47.51zm0-63.49h47.51v-25.98h-47.51z"/>
							<path id="&lt;Path&gt;" class="s8" d="m220.26 721.2v55.95h47.52v-55.95z"/>
							<g id="&lt;Group&gt;">
								<path id="&lt;Path&gt;" class="s12" d="m220.26 687.69v0.27l47.52 19.09v-10.84l-21.22-8.52z"/>
								<path id="&lt;Path&gt;" class="s12" d="m267.78 721.2h-12.92l12.92 5.18z"/>
								<path id="&lt;Path&gt;" class="s12" d="m220.26 696.49v10.83l15.79 6.34h27.01z"/>
								<path id="&lt;Path&gt;" class="s12" d="m220.26 721.2v5.48l47.52 19.06v-10.83l-34.16-13.71z"/>
								<path id="&lt;Path&gt;" class="s12" d="m220.26 735.18v10.84l47.52 19.08v-10.83z"/>
								<path id="&lt;Path&gt;" class="s12" d="m220.26 754.54v10.84l29.32 11.77h18.2v-3.55z"/>
							</g>
						</g>
					</g>
				</g>
			</g>
		</g>
		<g id="&lt;Group&gt;">
			<g id="&lt;Group&gt;">
				<path id="&lt;Path&gt;" class="s2" d="m649.31 834.75h-352.17v-686.57h352.17z"/>
				<g id="&lt;Group&gt;">
					<g id="&lt;Group&gt;">
						<path id="&lt;Path&gt;" class="s4" d="m529.97 269.95c0 33.75-61.12 108.96-61.12 108.96 0 0-61.12-75.21-61.12-108.96 0-33.76 27.36-61.13 61.12-61.13 33.76 0 61.12 27.37 61.12 61.13z"/>
						<path id="&lt;Path&gt;" class="s17" d="m514.32 270.89c0 25.11-20.36 45.46-45.47 45.46-25.11 0-45.47-20.35-45.47-45.46 0-25.12 20.36-45.47 45.47-45.47 25.11 0 45.47 20.35 45.47 45.47z"/>
						<path id="&lt;Path&gt;" class="s2" d="m500 270.89c0 17.2-13.95 31.15-31.15 31.15-17.2 0-31.15-13.95-31.15-31.15 0-17.21 13.95-31.15 31.15-31.15 17.2 0 31.15 13.94 31.15 31.15z"/>
					</g>
					<g id="&lt;Group&gt;">
						<g id="&lt;Group&gt;">
							<g id="&lt;Group&gt;">
								<g id="&lt;Group&gt;">
									<path id="&lt;Path&gt;" class="s18" d="m622.72 648.05h-153.87v-230.82h153.87z"/>
									<path id="&lt;Path&gt;" class="s19" d="m481.86 648.05h-13.01v-230.82l153.52 4.24-140.51 10.88z"/>
									<path id="&lt;Path&gt;" class="s4" d="m626.38 422.94h-157.53v-10.56h157.53z"/>
									<path id="&lt;Path&gt;" class="s20" d="m626.38 422.94h-157.53v-10.56h157.53z"/>
									<path id="&lt;Path&gt;" class="s4" d="m626.38 412.76h-309.42v-10.56h309.42z"/>
									<g id="&lt;Group&gt;">
										<path id="&lt;Path&gt;" class="s21" d="m580 648.05h-68.42v-95.29h68.42z"/>
										<path id="&lt;Path&gt;" class="s22" d="m573.7 648.05h-55.83v-88.54h55.83z"/>
										<path id="&lt;Path&gt;" class="s21" d="m546.01 559.51h0.96v88.54h-0.96z"/>
										<path id="&lt;Path&gt;" class="s21" d="m543.39 610.74c-1.1 0-2-0.89-2-1.99v-9.94c0-1.1 0.9-1.99 2-1.99 1.1 0 1.99 0.89 1.99 1.99v9.94c0 1.1-0.89 1.99-1.99 1.99z"/>
										<path id="&lt;Path&gt;" class="s21" d="m549.67 610.74c-1.1 0-2-0.89-2-1.99v-9.94c0-1.1 0.9-1.99 2-1.99 1.1 0 1.99 0.89 1.99 1.99v9.94c0 1.1-0.89 1.99-1.99 1.99z"/>
									</g>
									<path id="&lt;Path&gt;" class="s18" d="m468.85 412.38h-146.94v235.67h146.94z"/>
									<g id="&lt;Group&gt;">
										<g id="&lt;Group&gt;">
											<path id="&lt;Compound Path&gt;" fill-rule="evenodd" class="s21" d="m592.05 445.01v59.97h-92.51v-59.97zm-68.95 6.59h-16.98v46.8h16.98zm38.8 0h-32.21v46.81h32.21zm23.57 0h-16.99v46.8h16.99z"/>
											<path id="&lt;Path&gt;" class="s22" d="m585.47 451.6v46.8h-16.99v-46.8z"/>
											<path id="&lt;Path&gt;" class="s22" d="m561.9 451.6v46.8h-32.21v-46.8z"/>
											<path id="&lt;Path&gt;" class="s22" d="m523.11 451.6v46.8h-16.99v-46.8z"/>
											<g id="&lt;Group&gt;">
												<path id="&lt;Path&gt;" class="s23" d="m506.12 487.03l16.99-6.53v5.66l-16.99 6.54z"/>
												<path id="&lt;Path&gt;" class="s23" d="m529.69 477.95l32.21-12.42v5.66l-32.21 12.42z"/>
												<path id="&lt;Path&gt;" class="s23" d="m585.47 456.45v5.66l-16.99 6.54v-5.67z"/>
												<g id="&lt;Group&gt;">
													<path id="&lt;Path&gt;" class="s23" d="m523.11 451.6v4.38l-16.99 6.57v-5.67l13.74-5.28z"/>
													<path id="&lt;Path&gt;" class="s23" d="m534.52 451.6l-4.83 1.86v-1.86z"/>
													<path id="&lt;Path&gt;" class="s23" d="m551.52 498.4l10.38-3.99v3.99z"/>
													<path id="&lt;Path&gt;" class="s23" d="m585.47 485.32v5.64l-16.99 6.56v-5.66z"/>
													<path id="&lt;Path&gt;" class="s23" d="m506.12 470.14l16.99-6.54v8.21l-16.99 6.56z"/>
													<path id="&lt;Path&gt;" class="s23" d="m561.9 451.6v5.26l-32.21 12.42v-8.23l24.53-9.45z"/>
													<path id="&lt;Path&gt;" class="s23" d="m575.55 451.6l-7.07 2.72v-2.72z"/>
													<path id="&lt;Path&gt;" class="s23" d="m511.3 498.4l11.81-4.56v4.56z"/>
													<path id="&lt;Path&gt;" class="s23" d="m529.69 491.31l32.21-12.42v8.21l-29.29 11.3h-2.92z"/>
													<path id="&lt;Path&gt;" class="s23" d="m585.47 469.81v8.21l-16.99 6.56v-8.23z"/>
												</g>
											</g>
										</g>
										<g id="&lt;Group&gt;">
											<path id="&lt;Compound Path&gt;" fill-rule="evenodd" class="s21" d="m422.94 426.19v59.94h-54.42v-59.94zm-30.85 6.58h-16.99v46.78h16.99zm24.26 0h-17.68v46.78h17.68z"/>
											<path id="&lt;Path&gt;" class="s22" d="m392.08 432.77v46.78h-16.98v-46.78z"/>
											<path id="&lt;Path&gt;" class="s22" d="m416.35 432.77v46.78h-17.68v-46.78z"/>
											<g id="&lt;Group&gt;">
												<path id="&lt;Path&gt;" class="s23" d="m375.1 466.32l16.98-6.56v5.66l-16.98 6.54z"/>
												<path id="&lt;Path&gt;" class="s23" d="m416.35 450.41v5.64l-17.68 6.82v-5.63z"/>
												<g id="&lt;Group&gt;">
													<path id="&lt;Path&gt;" class="s23" d="m392.08 432.77v2.5l-16.98 6.54v-5.66l8.78-3.38z"/>
													<path id="&lt;Path&gt;" class="s23" d="m416.35 479.29v0.26h-0.7z"/>
													<path id="&lt;Path&gt;" class="s23" d="m375.1 449.42l16.98-6.56v8.23l-16.98 6.56z"/>
													<path id="&lt;Path&gt;" class="s23" d="m416.35 433.51v8.23l-17.68 6.81v-8.23z"/>
													<path id="&lt;Path&gt;" class="s23" d="m375.41 479.55l16.67-6.43v6.43z"/>
													<path id="&lt;Path&gt;" class="s23" d="m416.35 463.75v8.23l-17.68 6.83v-8.23z"/>
												</g>
											</g>
										</g>
										<g id="&lt;Group&gt;">
											<path id="&lt;Compound Path&gt;" fill-rule="evenodd" class="s21" d="m442.66 556.83v59.98h-92.51v-59.98zm-68.94 6.59h-16.99v46.8h16.99zm38.79 0h-32.21v46.81h32.21zm23.57 0h-16.99v46.8h16.99z"/>
											<path id="&lt;Path&gt;" class="s22" d="m436.08 563.42v46.8h-16.98v-46.8z"/>
											<path id="&lt;Path&gt;" class="s22" d="m412.51 563.42v46.8h-32.21v-46.8z"/>
											<path id="&lt;Path&gt;" class="s22" d="m373.72 563.42v46.8h-16.99v-46.8z"/>
											<g id="&lt;Group&gt;">
												<path id="&lt;Path&gt;" class="s23" d="m373.72 594.25v5.66l-16.99 6.54v-5.64z"/>
												<path id="&lt;Path&gt;" class="s23" d="m380.3 591.72l32.21-12.42v5.64l-32.21 12.42z"/>
												<path id="&lt;Path&gt;" class="s23" d="m436.08 570.2v5.64l-16.98 6.56v-5.64z"/>
												<g id="&lt;Group&gt;">
													<path id="&lt;Path&gt;" class="s23" d="m373.72 564.1v5.66l-16.99 6.54v-5.66z"/>
													<path id="&lt;Path&gt;" class="s23" d="m390.15 563.42l-9.85 3.79v-3.79z"/>
													<path id="&lt;Path&gt;" class="s23" d="m407.18 610.22l5.33-2.06v2.06z"/>
													<path id="&lt;Path&gt;" class="s23" d="m436.08 599.08v5.66l-14.26 5.48h-2.72v-4.58z"/>
													<path id="&lt;Path&gt;" class="s23" d="m373.72 577.35v8.23l-16.99 6.54v-8.21z"/>
													<path id="&lt;Path&gt;" class="s23" d="m412.51 563.42v7.2l-32.21 12.41v-8.22l29.54-11.39z"/>
													<path id="&lt;Path&gt;" class="s23" d="m431.21 563.42l-12.11 4.67v-4.67z"/>
													<path id="&lt;Path&gt;" class="s23" d="m366.94 610.22l6.78-2.61v2.61z"/>
													<path id="&lt;Path&gt;" class="s23" d="m380.3 605.07l32.21-12.42v8.22l-24.24 9.35h-7.97z"/>
													<path id="&lt;Path&gt;" class="s23" d="m436.08 583.56v8.23l-16.98 6.54v-8.23z"/>
												</g>
											</g>
										</g>
									</g>
									<path id="&lt;Path&gt;" class="s4" d="m471.62 516.09h-152.49v-11.11h152.49z"/>
								</g>
							</g>
						</g>
						<path id="&lt;Path&gt;" class="s4" d="m649.31 831.75h-345.91v-184.49h345.91z"/>
						<path id="&lt;Path&gt;" class="s20" d="m649.31 831.75h-345.91v-165.57h345.91z"/>
						<g id="&lt;Group&gt;">
							<path id="&lt;Path&gt;" class="s24" d="m574.87 777.97h-193.94c-5.86 0-10.6-4.74-10.6-10.6v-36.81c0-5.86 4.74-10.6 10.6-10.6h193.94c5.85 0 10.6 4.74 10.6 10.6v36.81c0 5.86-4.75 10.6-10.6 10.6z"/>
							<path id="&lt;Path&gt;" class="s25" d="m574.87 777.97h-193.94c-5.86 0-10.6-4.74-10.6-10.6v-36.81c0-5.86 4.74-10.6 10.6-10.6h193.94c5.85 0 10.6 4.74 10.6 10.6v36.81c0 5.86-4.75 10.6-10.6 10.6z"/>
							<path id="&lt;Path&gt;" class="s24" d="m574.87 770.06h-193.94c-5.86 0-10.6-4.74-10.6-10.6v-36.81c0-5.86 4.74-10.6 10.6-10.6h193.94c5.85 0 10.6 4.74 10.6 10.6v36.81c0 5.86-4.75 10.6-10.6 10.6z"/>
							<text id="SearcH
" style="transform: matrix(2,0,0,2,396.085,756.641)" >
								<tspan x="0" y="0" class="t26">SEARCH
</tspan>
							</text>
						</g>
					</g>
					<path id="&lt;Path&gt;" class="s27" d="m637.72 173.01v629.44c0 10.86-10.17 19.66-22.73 19.66h-288.14c-12.55 0-22.72-8.8-22.72-19.66v-629.44c0-10.86 10.17-19.68 22.72-19.68h53.83v7.24c0 12.6 11.79 22.79 26.36 22.79h138.01c14.57 0 26.36-10.19 26.36-22.79v-7.24h43.58c12.56 0 22.73 8.82 22.73 19.68z"/>
					<path id="&lt;Path&gt;" class="s27" d="m637.72 173.01v629.44c0 10.86-10.17 19.65-22.74 19.65h-288.12c-12.56 0-22.74-8.79-22.74-19.65v-629.44c0-10.87 10.18-19.68 22.74-19.68h53.83v7.24c0 12.6 11.78 22.79 26.35 22.79h138.01c14.58 0 26.36-10.19 26.36-22.79v-7.24h43.57c12.57 0 22.74 8.81 22.74 19.68z"/>
					<g id="&lt;Group&gt;" style="opacity: .44;mix-blend-mode: screen">
						<path id="&lt;Path&gt;" class="s28" d="m624.97 155.65c-3.19-1.47-6.83-2.32-10.7-2.32h-43.58v7.24c0 12.6-11.79 22.79-26.36 22.79h-138.01c-14.57 0-26.36-10.19-26.36-22.79v-7.24h-53.83c-12.56 0-22.73 8.82-22.73 19.68v296.99q160.79-157.17 321.57-314.35z"/>
						<path id="&lt;Path&gt;" class="s28" d="m636.99 366.9v-182.73q-166.79 163.05-333.59 326.1v182.73z"/>
						<path id="&lt;Path&gt;" class="s2" d="m303.4 733.27v69.17c0 10.86 10.17 19.66 22.73 19.66h288.14c12.55 0 22.72-8.8 22.72-19.66v-395.27z"/>
					</g>
					<path id="&lt;Compound Path&gt;" fill-rule="evenodd" class="s21" d="m664.65 180.52v677.39c0 11.87-3.94 22.84-10.66 31.85-3.44 4.66-7.66 8.76-12.45 12.2-4.14 2.96-8.72 5.43-13.63 7.23-6.56 2.47-13.69 3.83-21.15 3.83h-270.94c-13.04 0-25.11-4.13-34.78-11.06-14.03-10.06-23.11-26.03-23.11-44.05v-677.39c0-28.05 22.02-51.19 50.48-54.63q3.63-0.48 7.41-0.47h270.94c31.95 0 57.89 24.67 57.89 55.1zm-26.56-3.81q0-1.51-0.23-2.99-0.07-0.65-0.23-1.3-0.04-0.23-0.13-0.46-0.04-0.29-0.13-0.54-0.16-0.62-0.36-1.2-0.12-0.37-0.25-0.7-0.24-0.57-0.44-1.06c-0.03-0.08-0.08-0.14-0.1-0.22q-0.08-0.08-0.08-0.16-0.31-0.6-0.62-1.17-0.65-1.17-1.41-2.22-0.27-0.34-0.54-0.68-0.34-0.41-0.67-0.79-0.4-0.48-0.88-0.92-0.51-0.54-1.05-1-1.11-0.98-2.34-1.8-0.61-0.41-1.26-0.78-0.58-0.33-1.19-0.65-0.06-0.01-0.13-0.06-0.58-0.28-1.21-0.57-0.63-0.28-1.26-0.49-0.59-0.24-1.18-0.4-0.46-0.16-0.93-0.27-0.47-0.13-0.97-0.22-0.43-0.12-0.9-0.19-0.13-0.03-0.29-0.06-0.19-0.04-0.38-0.05-0.12-0.03-0.23-0.03-0.94-0.15-1.91-0.19-0.7-0.04-1.44-0.05h-43.58v7.81c0 2.96-0.57 5.81-1.6 8.44q-0.46 1.14-1 2.2c-0.39 0.73-0.77 1.41-1.21 2.09q-0.53 0.85-1.18 1.63c-0.05 0.11-0.16 0.21-0.23 0.32h-0.03q0 0.04 0 0.03-0.15 0.2-0.31 0.35-0.58 0.78-1.29 1.47-0.84 0.85-1.8 1.65-0.46 0.42-0.92 0.76c-0.31 0.25-0.67 0.49-1.01 0.74q-0.27 0.19-0.54 0.38-0.39 0.27-0.82 0.51-0.35 0.22-0.75 0.44-0.49 0.28-1.02 0.57-2.7 1.35-5.74 2.14-0.61 0.13-1.26 0.27-0.66 0.16-1.37 0.24-0.45 0.08-0.9 0.11-0.33 0.08-0.67 0.08-1.35 0.13-2.7 0.14h-138c-14.59 0-26.37-10.99-26.37-24.56v-7.81h-53.82c-12.56 0-22.75 9.52-22.75 21.22v677.45q0.01 0.65 0.05 1.3 0 0.44 0.08 0.87 0.16 1.6 0.59 3.12 0.12 0.5 0.31 1.01 0.14 0.48 0.36 0.97 0.17 0.49 0.41 0.98c0.42 0.95 0.93 1.84 1.5 2.74q0.27 0.42 0.59 0.84 0.3 0.44 0.64 0.84 0.32 0.42 0.67 0.79 0.43 0.49 0.9 0.95 0.64 0.66 1.36 1.27 0.8 0.66 1.68 1.28 0.65 0.45 1.39 0.89 0.78 0.46 1.64 0.87 0.34 0.2 0.72 0.36 0.81 0.37 1.7 0.7 0.7 0.22 1.39 0.44c0.15 0.05 0.33 0.08 0.49 0.13q0.85 0.21 1.7 0.38c0.23 0.06 0.49 0.08 0.72 0.14q0.77 0.11 1.54 0.19 0.11 0.01 0.26 0.02h0.28c0.57 0.06 1.18 0.08 1.78 0.08h288.12q0.57 0.01 1.11-0.02 1.77-0.08 3.47-0.41 0.4-0.04 0.8-0.16 2.67-0.62 5.07-1.77 0.07-0.02 0.1-0.05 1-0.48 1.96-1.09 1-0.61 1.9-1.3 0.04 0.01 0.05-0.02 1.83-1.43 3.27-3.1c0.25-0.3 0.49-0.57 0.72-0.89q0.35-0.45 0.67-0.9 0.99-1.42 1.72-2.96 0.24-0.49 0.44-1.03 0.43-1.05 0.74-2.14v-0.03q0.55-1.92 0.67-3.96 0.05-0.66 0.05-1.33z"/>
					<path id="&lt;Compound Path&gt;" fill-rule="evenodd" class="s21" d="m664.65 180.52v677.39c0 11.87-3.94 22.84-10.66 31.85-3.44 4.66-7.66 8.76-12.45 12.2-4.14 2.96-8.72 5.43-13.63 7.23-6.56 2.47-13.69 3.83-21.15 3.83h-270.94c-13.04 0-25.11-4.13-34.78-11.06-14.03-10.06-23.11-26.03-23.11-44.05v-677.39c0-28.05 22.02-51.19 50.48-54.63q3.63-0.48 7.41-0.47h270.94c31.95 0 57.89 24.67 57.89 55.1zm-26.56-3.81q0-1.51-0.23-2.99-0.07-0.65-0.23-1.3-0.04-0.23-0.13-0.46-0.04-0.29-0.13-0.54-0.16-0.62-0.36-1.2-0.12-0.37-0.25-0.7-0.24-0.57-0.44-1.06c-0.03-0.08-0.08-0.14-0.1-0.22q-0.08-0.08-0.08-0.16-0.31-0.6-0.62-1.17-0.65-1.17-1.41-2.22-0.27-0.34-0.54-0.68-0.34-0.41-0.67-0.79-0.4-0.48-0.88-0.92-0.51-0.54-1.05-1-1.11-0.98-2.34-1.8-0.61-0.41-1.26-0.78-0.58-0.33-1.19-0.65-0.06-0.01-0.13-0.06-0.58-0.28-1.21-0.57-0.63-0.28-1.26-0.49-0.59-0.24-1.18-0.4-0.46-0.16-0.93-0.27-0.47-0.13-0.97-0.22-0.43-0.12-0.9-0.19-0.13-0.03-0.29-0.06-0.19-0.04-0.38-0.05-0.12-0.03-0.23-0.03-0.94-0.15-1.91-0.19-0.7-0.04-1.44-0.05h-43.58v7.81c0 2.96-0.57 5.81-1.6 8.44q-0.46 1.14-1 2.2c-0.39 0.73-0.77 1.41-1.21 2.09q-0.53 0.85-1.18 1.63c-0.05 0.11-0.16 0.21-0.23 0.32h-0.03q0 0.04 0 0.03-0.15 0.2-0.31 0.35-0.58 0.78-1.29 1.47-0.84 0.85-1.8 1.65-0.46 0.42-0.92 0.76c-0.31 0.25-0.67 0.49-1.01 0.74q-0.27 0.19-0.54 0.38-0.39 0.27-0.82 0.51-0.35 0.22-0.75 0.44-0.49 0.28-1.02 0.57-2.7 1.35-5.74 2.14-0.61 0.13-1.26 0.27-0.66 0.16-1.37 0.24-0.45 0.08-0.9 0.11-0.33 0.08-0.67 0.08-1.35 0.13-2.7 0.14h-138c-14.59 0-26.37-10.99-26.37-24.56v-7.81h-53.82c-12.56 0-22.75 9.52-22.75 21.22v677.45q0.01 0.65 0.05 1.3 0 0.44 0.08 0.87 0.16 1.6 0.59 3.12 0.12 0.5 0.31 1.01 0.14 0.48 0.36 0.97 0.17 0.49 0.41 0.98c0.42 0.95 0.93 1.84 1.5 2.74q0.27 0.42 0.59 0.84 0.3 0.44 0.64 0.84 0.32 0.42 0.67 0.79 0.43 0.49 0.9 0.95 0.64 0.66 1.36 1.27 0.8 0.66 1.68 1.28 0.65 0.45 1.39 0.89 0.78 0.46 1.64 0.87 0.34 0.2 0.72 0.36 0.81 0.37 1.7 0.7 0.7 0.22 1.39 0.44c0.15 0.05 0.33 0.08 0.49 0.13q0.85 0.21 1.7 0.38c0.23 0.06 0.49 0.08 0.72 0.14q0.77 0.11 1.54 0.19 0.11 0.01 0.26 0.02h0.28c0.57 0.06 1.18 0.08 1.78 0.08h288.12q0.57 0.01 1.11-0.02 1.77-0.08 3.47-0.41 0.4-0.04 0.8-0.16 2.67-0.62 5.07-1.77 0.07-0.02 0.1-0.05 1-0.48 1.96-1.09 1-0.61 1.9-1.3 0.04 0.01 0.05-0.02 1.83-1.43 3.27-3.1c0.25-0.3 0.49-0.57 0.72-0.89q0.35-0.45 0.67-0.9 0.99-1.42 1.72-2.96 0.24-0.49 0.44-1.03 0.43-1.05 0.74-2.14v-0.03q0.55-1.92 0.67-3.96 0.05-0.66 0.05-1.33z"/>
					<path id="&lt;Compound Path&gt;" fill-rule="evenodd" class="s29" d="m664.65 180.52v677.39c0 11.87-3.94 22.84-10.66 31.85-3.44 4.66-7.66 8.76-12.45 12.2-4.14 2.96-8.72 5.43-13.63 7.23-6.56 2.47-13.69 3.83-21.15 3.83h-270.94c-13.04 0-25.11-4.13-34.78-11.06-14.03-10.06-23.11-26.03-23.11-44.05v-677.39c0-28.05 22.02-51.19 50.48-54.63q3.63-0.48 7.41-0.47h270.94c31.95 0 57.89 24.67 57.89 55.1zm-26.56-3.81q0-1.51-0.23-2.99-0.07-0.65-0.23-1.3-0.04-0.23-0.13-0.46-0.04-0.29-0.13-0.54-0.16-0.62-0.36-1.2-0.12-0.37-0.25-0.7-0.24-0.57-0.44-1.06c-0.03-0.08-0.08-0.14-0.1-0.22q-0.08-0.08-0.08-0.16-0.31-0.6-0.62-1.17-0.65-1.17-1.41-2.22-0.27-0.34-0.54-0.68-0.34-0.41-0.67-0.79-0.4-0.48-0.88-0.92-0.51-0.54-1.05-1-1.11-0.98-2.34-1.8-0.61-0.41-1.26-0.78-0.58-0.33-1.19-0.65-0.06-0.01-0.13-0.06-0.58-0.28-1.21-0.57-0.63-0.28-1.26-0.49-0.59-0.24-1.18-0.4-0.46-0.16-0.93-0.27-0.47-0.13-0.97-0.22-0.43-0.12-0.9-0.19-0.13-0.03-0.29-0.06-0.19-0.04-0.38-0.05-0.12-0.03-0.23-0.03-0.94-0.15-1.91-0.19-0.7-0.04-1.44-0.05h-43.58v7.81c0 2.96-0.57 5.81-1.6 8.44q-0.46 1.14-1 2.2c-0.39 0.73-0.77 1.41-1.21 2.09q-0.53 0.85-1.18 1.63c-0.05 0.11-0.16 0.21-0.23 0.32h-0.03q0 0.04 0 0.03-0.15 0.2-0.31 0.35-0.58 0.78-1.29 1.47-0.84 0.85-1.8 1.65-0.46 0.42-0.92 0.76c-0.31 0.25-0.67 0.49-1.01 0.74q-0.27 0.19-0.54 0.38-0.39 0.27-0.82 0.51-0.35 0.22-0.75 0.44-0.49 0.28-1.02 0.57-2.7 1.35-5.74 2.14-0.61 0.13-1.26 0.27-0.66 0.16-1.37 0.24-0.45 0.08-0.9 0.11-0.33 0.08-0.67 0.08-1.35 0.13-2.7 0.14h-138c-14.59 0-26.37-10.99-26.37-24.56v-7.81h-53.82c-12.56 0-22.75 9.52-22.75 21.22v677.45q0.01 0.65 0.05 1.3 0 0.44 0.08 0.87 0.16 1.6 0.59 3.12 0.12 0.5 0.31 1.01 0.14 0.48 0.36 0.97 0.17 0.49 0.41 0.98c0.42 0.95 0.93 1.84 1.5 2.74q0.27 0.42 0.59 0.84 0.3 0.44 0.64 0.84 0.32 0.42 0.67 0.79 0.43 0.49 0.9 0.95 0.64 0.66 1.36 1.27 0.8 0.66 1.68 1.28 0.65 0.45 1.39 0.89 0.78 0.46 1.64 0.87 0.34 0.2 0.72 0.36 0.81 0.37 1.7 0.7 0.7 0.22 1.39 0.44c0.15 0.05 0.33 0.08 0.49 0.13q0.85 0.21 1.7 0.38c0.23 0.06 0.49 0.08 0.72 0.14q0.77 0.11 1.54 0.19 0.11 0.01 0.26 0.02h0.28c0.57 0.06 1.18 0.08 1.78 0.08h288.12q0.57 0.01 1.11-0.02 1.77-0.08 3.47-0.41 0.4-0.04 0.8-0.16 2.67-0.62 5.07-1.77 0.07-0.02 0.1-0.05 1-0.48 1.96-1.09 1-0.61 1.9-1.3 0.04 0.01 0.05-0.02 1.83-1.43 3.27-3.1c0.25-0.3 0.49-0.57 0.72-0.89q0.35-0.45 0.67-0.9 0.99-1.42 1.72-2.96 0.24-0.49 0.44-1.03 0.43-1.05 0.74-2.14v-0.03q0.55-1.92 0.67-3.96 0.05-0.66 0.05-1.33z"/>
					<path id="&lt;Compound Path&gt;" fill-rule="evenodd" class="s21" d="m664.28 179.42v664.43c0 11.62-3.94 22.38-10.65 31.2-3.45 4.57-7.67 8.59-12.46 11.96-4.14 2.9-8.72 5.32-13.63 7.08-6.56 2.42-13.69 3.75-21.15 3.75h-270.94c-13.04 0-25.11-4.04-34.78-10.83-14.02-9.86-23.11-25.51-23.11-43.16v-664.43c0-27.49 22.03-50.17 50.48-53.54q3.63-0.47 7.41-0.46h270.94c31.95 0 57.89 24.18 57.89 54zm-26.55-3.74q0-1.48-0.23-2.93-0.08-0.63-0.24-1.27-0.04-0.23-0.12-0.45-0.05-0.29-0.13-0.54-0.16-0.6-0.36-1.17-0.13-0.36-0.26-0.69-0.24-0.56-0.44-1.03c-0.02-0.08-0.07-0.14-0.1-0.22q-0.08-0.08-0.08-0.16-0.31-0.59-0.62-1.14-0.65-1.15-1.41-2.18-0.27-0.33-0.54-0.66-0.34-0.41-0.67-0.78-0.4-0.47-0.87-0.9-0.51-0.53-1.06-0.98-1.11-0.96-2.34-1.76-0.61-0.4-1.26-0.77-0.57-0.32-1.18-0.64-0.07 0-0.13-0.05-0.59-0.28-1.21-0.56-0.63-0.28-1.26-0.48-0.59-0.24-1.19-0.4-0.46-0.15-0.92-0.26-0.47-0.13-0.98-0.22-0.43-0.11-0.9-0.18-0.12-0.03-0.28-0.05-0.2-0.05-0.39-0.06-0.12-0.03-0.23-0.02-0.93-0.16-1.91-0.19-0.7-0.05-1.44-0.05h-43.58v7.65c0 2.9-0.56 5.69-1.59 8.27q-0.47 1.12-1.01 2.16c-0.38 0.71-0.77 1.38-1.21 2.04q-0.53 0.84-1.18 1.6c-0.05 0.1-0.15 0.21-0.23 0.32h-0.03q0 0.03 0 0.02-0.15 0.2-0.31 0.35-0.58 0.76-1.28 1.44-0.84 0.83-1.8 1.62-0.47 0.41-0.93 0.74c-0.31 0.24-0.67 0.48-1 0.72q-0.27 0.19-0.54 0.37-0.4 0.27-0.83 0.51-0.35 0.21-0.74 0.42-0.5 0.28-1.03 0.56-2.7 1.33-5.74 2.1-0.61 0.13-1.26 0.27-0.66 0.16-1.36 0.24-0.45 0.07-0.9 0.1-0.34 0.08-0.67 0.08-1.35 0.13-2.7 0.14h-138.01c-14.59 0-26.37-10.77-26.37-24.07v-7.65h-53.82c-12.56 0-22.74 9.33-22.74 20.79v622.65q0 0.64 0.05 1.28 0 0.42 0.07 0.85 0.17 1.57 0.6 3.06 0.11 0.49 0.31 0.98 0.14 0.48 0.36 0.96 0.16 0.48 0.41 0.96c0.41 0.93 0.92 1.8 1.49 2.68q0.28 0.41 0.59 0.83 0.3 0.43 0.64 0.82 0.32 0.4 0.67 0.77 0.43 0.49 0.9 0.93 0.65 0.65 1.37 1.25 0.79 0.65 1.67 1.25 0.66 0.44 1.39 0.88 0.78 0.44 1.65 0.85 0.34 0.19 0.72 0.34 0.81 0.37 1.69 0.7 0.7 0.21 1.39 0.42c0.16 0.05 0.34 0.08 0.49 0.13q0.85 0.21 1.7 0.38c0.23 0.05 0.49 0.08 0.72 0.13q0.77 0.11 1.54 0.18 0.11 0.02 0.26 0.03h0.28c0.57 0.05 1.19 0.08 1.78 0.08h288.12q0.58 0.01 1.11-0.03 1.78-0.08 3.47-0.39 0.4-0.04 0.8-0.16 2.67-0.61 5.07-1.73 0.07-0.03 0.1-0.05 1-0.48 1.96-1.07 1.01-0.6 1.9-1.27 0.05 0 0.05-0.03 1.83-1.4 3.27-3.03c0.26-0.29 0.49-0.56 0.72-0.88q0.35-0.44 0.67-0.88 1-1.39 1.72-2.9 0.24-0.48 0.44-1.01 0.43-1.03 0.75-2.1v-0.02q0.54-1.88 0.67-3.88 0.04-0.66 0.05-1.31z"/>
					<path id="&lt;Path&gt;" class="s29" d="m522.55 153.33h-103.26c-1.56 0-2.82-1.26-2.82-2.82v-4.65c0-1.56 1.26-2.82 2.82-2.82h103.26c1.56 0 2.82 1.26 2.82 2.82v4.65c0 1.56-1.26 2.82-2.82 2.82z"/>
					<g id="&lt;Group&gt;">
						<path id="&lt;Path&gt;" class="s29" d="m501.54 856.08c0 16.71-13.54 30.26-30.25 30.26-16.71 0-30.25-13.55-30.25-30.26 0-16.7 13.54-30.25 30.25-30.25 16.71 0 30.25 13.55 30.25 30.25z"/>
						<path id="&lt;Path&gt;" class="s29" d="m556.26 867.72h-28.25v-28.25h28.25z"/>
						<path id="&lt;Path&gt;" class="s29" d="m406.73 873.57l-19.97-19.98 19.97-19.97z"/>
					</g>
				</g>
			</g>
			<g id="&lt;Group&gt;">
				<g id="&lt;Group&gt;">
					<path id="&lt;Path&gt;" class="s30" d="m851.31 540.26c-2.71-5.44-3.63-11.63-3.71-17.71-0.14-10.95 2.31-21.74 4.55-32.46 2.25-10.72 4.31-21.65 3.38-32.56-0.93-10.91-4.16-23.94-12.65-30.86-8.49-6.92-35.62-13.55-44.48-7.11l-28.16 33.45c-2.78 5.5-2.99 11.91-2.79 18.08 0.2 6.16 0.76 12.42-0.67 18.42-1.42 5.99-5.28 11.84-11.16 13.7q3.88-0.57 7.76-1.14c-5.94 3.86-6.65 12.44-4.7 19.24 1.95 6.81 5.88 13 7.12 19.97 1.24 6.97-1.49 15.58-8.32 17.44 8.5-1.79 16.45-6.11 22.57-12.27-0.45 10.52 4.08 21.14 11.98 28.09 7.9 6.96 19.01 10.1 29.39 8.32-3.99-1.85-5.38-7.18-4.01-11.35 1.36-4.17 4.78-7.33 8.36-9.87 3.57-2.55 7.47-4.72 10.52-7.88 3.05-3.15 5.19-7.63 4.19-11.9 3.71 8.91 15.07 13.73 24.05 10.22-5.83-1.73-10.51-6.38-13.22-11.82z"/>
				</g>
				<g id="&lt;Group&gt;">
					<g id="&lt;Group&gt;">
						<path id="&lt;Path&gt;" class="s4" d="m995.59 601.38c-2.54 0.39-4.7 1.58-6.63 3.21 0.69-2.34 0.9-4.73 0.39-6.69-0.53-1.98-1.5-3.01-2.66-3.33-1.96-0.56-4.45 0.9-6.12 3.11-2.96 3.92-3.63 9.26-4.95 13.91-0.41 1.45-0.98 2.84-1.62 4.22-0.87 1.89-1.83 3.76-2.57 5.66q-3.04 3.08-6.09 6.13 0 0.01-0.01 0.01c3.6-6.27 6.41-13.78 6.06-20.78-0.19-3.88-3.42-9.42-6.86-4.36-5.51 8.12-4.28 19.61-3.52 28.75l0.37 0.3q-1.42 1.37-2.86 2.75-0.08 0.08-0.15 0.14c-4.91 4.64-10 9.07-15.52 13.07q-0.01 0.01-0.02 0.02c1.12-2.25 2-4.56 2.54-6.93 0.98-4.3-0.85-11.45-6.14-7.09-6.81 5.61-9.56 15.04-11.39 23.84-7.56 4.67-15.29 9.13-23.11 13.31 6.04-5.94 11.48-13.5 13.32-21.55 1.05-4.62-0.91-12.29-6.58-7.61-9.12 7.5-11.45 21.41-13.56 32.38l0.18 0.26q0 0 0 0-5.56 2.86-11.16 5.54-2.76 1.32-5.52 2.6-0.01 0-0.01 0.01c8.51-8.02 16.28-18.12 19.12-28.71 1.61-6.05-0.76-15.94-8.7-9.61-12.68 10.12-16.44 28.22-19.74 42.56q0 0.01-0.01 0.01c-5.25 2.38-10.52 4.72-15.78 7.08 5.23-9.69 17.19-29.07 20.56-35.66 1.58-3.08 4.49-10.74-1.11-11.59-3.1-0.46-8.11 3.93-10.06 6.3-4.35 5.27-13.41 28.47-17.51 44.64q0 0 0 0-5.6 2.54-11.14 5.22-2.05 0.99-4.11 1.89c8.93-13.62 24.66-41.42 25.94-49.49 0.64-4.11 0.71-10.99-3.96-12.44-4.83-1.5-8.1 5.73-10.61 8.97-5.79 7.48-14.69 36.33-15.61 41.91-0.71 4.32-0.57 8.97-1.05 13.25q-0.09 0.04-0.17 0.06-4.71 1.84-9.44 3.37 0.1-0.38 0.2-0.77c3.63-13 12.93-40.12 15.22-49.07 1.06-4.16 2.52-14.18-4.42-13.54-3.84 0.36-8.68 7.11-10.38 10.52-3.56 7.08-7.84 34.03-8.89 54.29q-0.03 0.56-0.04 1.1c-10.38 2.96-20.88 5.37-31.58 8.51-3.23 0.94-2.15 6.32 1.1 5.37 15.45-4.53 30.84-7.18 45.83-12.74 9.04 17.22 34.19 35.83 38.18 34.95 8.82-1.94 2.54-13.94-1.47-17.83-7.82-7.58-28.46-16.72-34.61-17.93q3.08-1.19 6.12-2.58 5.63-2.58 11.27-5.12c3.59 5.47 10.68 17.54 29.19 23.11 3.11 0.93 7.32 1.88 9.97-0.68 3.69-3.56-0.81-6.43-3.7-8.16-4.94-2.97-22.55-11.89-30.52-16.52 7.52-3.43 15.05-6.85 22.55-10.31 8.72 9.02 19.35 19.92 32.33 20.8 8.5 0.57 5.6-8.32 1.67-12.09-7.03-6.74-17.44-10.32-27.3-11.81q5.29-2.47 10.55-4.98 0.95-0.45 1.89-0.9c3.92 4.82 7.2 9.9 12.63 13.14 5.36 3.19 11.58 3.4 17.46 1.92 2.6-0.66 5.83-1.07 7.49-3.64 2.33-3.59-2.36-4.12-5.08-4.68-5.79-1.23-11.64-2.83-17.25-4.71-3.09-1.04-6.02-1.91-9.1-2.62-0.79-0.18-1.82-0.6-2.87-1.02q7.45-3.66 14.78-7.65c9.04 5.28 20.01 11.59 30.76 9.24 7.05-1.55 2.79-8.09-1.22-10.24-6.22-3.32-14-4.1-21.42-3.52q3.16-1.8 6.29-3.65c11.89 2.46 26.58 5.71 37.76-1.06 7.12-4.3 0.16-9.88-4.97-10.74-5.03-0.84-10.38-0.33-15.62 1.01q1.37-0.91 2.73-1.83 3.26-2.21 6.33-4.62c9.8 3.54 21.73 7.81 31.99 3.49 6.7-2.82 1.4-8.48-2.91-9.86-6.83-2.17-14.85-1.41-22.19 0.62 2.98-2.63 5.86-5.36 8.71-8.15 8.33 1.56 18.42 3.38 26.16-1.44 5.09-3.18 0.13-7.04-3.52-7.58-5.3-0.78-11.11 0.55-16.42 2.78 3.07-3.1 6.12-6.22 9.23-9.3 3.78-0.7 7.69-1.76 11.08-2.74 4-1.18 8.28-3.13 10.01-7.47 2.28-5.72-0.85-8.8-6.43-7.94z"/>
						<path id="&lt;Path&gt;" class="s5" d="m995.59 601.38c-2.54 0.39-4.7 1.58-6.63 3.21 0.69-2.34 0.9-4.73 0.39-6.69-0.53-1.98-1.5-3.01-2.66-3.33-1.96-0.56-4.45 0.9-6.12 3.11-2.96 3.92-3.63 9.26-4.95 13.91-0.41 1.45-0.98 2.84-1.62 4.22-0.87 1.89-1.83 3.76-2.57 5.66q-3.04 3.08-6.09 6.13 0 0.01-0.01 0.01c3.6-6.27 6.41-13.78 6.06-20.78-0.19-3.88-3.42-9.42-6.86-4.36-5.51 8.12-4.28 19.61-3.52 28.75l0.37 0.3q-1.42 1.37-2.86 2.75-0.08 0.08-0.15 0.14c-4.91 4.64-10 9.07-15.52 13.07q-0.01 0.01-0.02 0.02c1.12-2.25 2-4.56 2.54-6.93 0.98-4.3-0.85-11.45-6.14-7.09-6.81 5.61-9.56 15.04-11.39 23.84-7.56 4.67-15.29 9.13-23.11 13.31 6.04-5.94 11.48-13.5 13.32-21.55 1.05-4.62-0.91-12.29-6.58-7.61-9.12 7.5-11.45 21.41-13.56 32.38l0.18 0.26q0 0 0 0-5.56 2.86-11.16 5.54-2.76 1.32-5.52 2.6-0.01 0-0.01 0.01c8.51-8.02 16.28-18.12 19.12-28.71 1.61-6.05-0.76-15.94-8.7-9.61-12.68 10.12-16.44 28.22-19.74 42.56q0 0.01-0.01 0.01c-5.25 2.38-10.52 4.72-15.78 7.08 5.23-9.69 17.19-29.07 20.56-35.66 1.58-3.08 4.49-10.74-1.11-11.59-3.1-0.46-8.11 3.93-10.06 6.3-4.35 5.27-13.41 28.47-17.51 44.64q0 0 0 0-5.6 2.54-11.14 5.22-2.05 0.99-4.11 1.89c8.93-13.62 24.66-41.42 25.94-49.49 0.64-4.11 0.71-10.99-3.96-12.44-4.83-1.5-8.1 5.73-10.61 8.97-5.79 7.48-14.69 36.33-15.61 41.91-0.71 4.32-0.57 8.97-1.05 13.25q-0.09 0.04-0.17 0.06-4.71 1.84-9.44 3.37 0.1-0.38 0.2-0.77c3.63-13 12.93-40.12 15.22-49.07 1.06-4.16 2.52-14.18-4.42-13.54-3.84 0.36-8.68 7.11-10.38 10.52-3.56 7.08-7.84 34.03-8.89 54.29q-0.03 0.56-0.04 1.1c-10.38 2.96-20.88 5.37-31.58 8.51-3.23 0.94-2.15 6.32 1.1 5.37 15.45-4.53 30.84-7.18 45.83-12.74 9.04 17.22 34.19 35.83 38.18 34.95 8.82-1.94 2.54-13.94-1.47-17.83-7.82-7.58-28.46-16.72-34.61-17.93q3.08-1.19 6.12-2.58 5.63-2.58 11.27-5.12c3.59 5.47 10.68 17.54 29.19 23.11 3.11 0.93 7.32 1.88 9.97-0.68 3.69-3.56-0.81-6.43-3.7-8.16-4.94-2.97-22.55-11.89-30.52-16.52 7.52-3.43 15.05-6.85 22.55-10.31 8.72 9.02 19.35 19.92 32.33 20.8 8.5 0.57 5.6-8.32 1.67-12.09-7.03-6.74-17.44-10.32-27.3-11.81q5.29-2.47 10.55-4.98 0.95-0.45 1.89-0.9c3.92 4.82 7.2 9.9 12.63 13.14 5.36 3.19 11.58 3.4 17.46 1.92 2.6-0.66 5.83-1.07 7.49-3.64 2.33-3.59-2.36-4.12-5.08-4.68-5.79-1.23-11.64-2.83-17.25-4.71-3.09-1.04-6.02-1.91-9.1-2.62-0.79-0.18-1.82-0.6-2.87-1.02q7.45-3.66 14.78-7.65c9.04 5.28 20.01 11.59 30.76 9.24 7.05-1.55 2.79-8.09-1.22-10.24-6.22-3.32-14-4.1-21.42-3.52q3.16-1.8 6.29-3.65c11.89 2.46 26.58 5.71 37.76-1.06 7.12-4.3 0.16-9.88-4.97-10.74-5.03-0.84-10.38-0.33-15.62 1.01q1.37-0.91 2.73-1.83 3.26-2.21 6.33-4.62c9.8 3.54 21.73 7.81 31.99 3.49 6.7-2.82 1.4-8.48-2.91-9.86-6.83-2.17-14.85-1.41-22.19 0.62 2.98-2.63 5.86-5.36 8.71-8.15 8.33 1.56 18.42 3.38 26.16-1.44 5.09-3.18 0.13-7.04-3.52-7.58-5.3-0.78-11.11 0.55-16.42 2.78 3.07-3.1 6.12-6.22 9.23-9.3 3.78-0.7 7.69-1.76 11.08-2.74 4-1.18 8.28-3.13 10.01-7.47 2.28-5.72-0.85-8.8-6.43-7.94z"/>
					</g>
					<g id="&lt;Group&gt;">
						<g id="&lt;Group&gt;">
							<path id="&lt;Path&gt;" class="s4" d="m776.32 481.86c-0.09 11.33-2.42 19.17-9.25 28.18-4.89 6.43-11.84 9.37-15.76 15.49-1.63 2.54 1.31 5.62 3.81 3.97 3.28-2.16 6.24-5.28 8.64-8.21 3.04-3.73 9.98-13.43 12.83-2.51 2.77 10.62-13.37 15.9-23.19 22-3.04 1.89-0.49 6.65 2.68 4.98 9.2-4.86 21.03-16.88 28.6-8.04 8.79 10.27-18.66 16.32-24.61 17.72-3.77 0.88-21.64 3.65-13.52 9.68 4.57 3.4 15.79-2.98 19.81-5.08 4.04-2.11 10.96-9.68 15.58-8.77 7.76 1.52 3.03 9.03-0.43 12.32-7.81 7.43-25.09 3.3-33.49 9.9-1.95 1.55-1.06 4.72 1.38 5.06 4.18 0.58 8.09 0.59 12.72-0.53 5.9-1.44 9.52-5.72 14.61-7.37 13.84-4.44 3.07 12.29-7.12 13.77-4.59 0.66-28.62-1.95-27.67 8.36q0 0.04 0.01 0.07 0.03 0.31 0.09 0.62 0.01 0.1 0.04 0.18 0 0.04 0.02 0.08c2.36 8.55 36.46-5.19 41.31-7.16 3.58-1.47 5-5.12 7.61-7.73 0.91-0.92 2.33-1.05 3.43-0.37 15.52 9.54-13.32 18.71-20.49 20.02-6.16 1.1-14.14 2.02-19.47 5.44-5.19 3.34-11.71 11.29-2.81 12.51 4.95 0.67 17.05-3.2 22.05-4.76 6.29-1.95 10.79-5.75 16.51-8.78 4.58-2.42 15.24-5.54 13.48 3.18-0.88 4.38-9.48 8.57-13.09 10.17-10.94 4.86-31.41-0.47-39.4 10.34-1.09 1.49-0.57 3.68 1.14 4.35 9.61 3.88 28.11-4.89 36.42-7.53 3.09-0.98 6.34-2.39 9.05-4.22 2.79-1.89 4.72-6.44 7.78-7.73 9.39-3.97 9.66 5.93 6.33 11.74-6.95 12.16-19.5 12.6-31.43 10.2-6.17-1.25-30.04-4.15-22.46 8.73 7.32 12.43 18.54-1.42 27.2-2.65 6.06-0.85 10.66 3.03 16.74 2.5 5.26-0.45 9.39-4.39 14.94-2.28 5.76 2.2 7.69 6.29 3.14 10.66-4.04 3.9-11.3 2.94-16.33 2.22-6.08-0.88-12.17-4.66-18.38-3.96-4.1 0.47-12.52 4.88-10.18 10.41 2.35 5.49 23.5 5.12 28.36 5.01 12.42-0.27 17.98-3.03 26.85-10.01 0.9-0.71 2.12-0.77 3.11-0.2 7.77 4.47 1.45 13.24-5.34 16.16-7.86 3.36-16.18 1.82-24.21-0.04-4.86-1.12-18.81-6.18-21.77-0.62-4.17 7.85 7.18 12.86 12 11.6 7.81-2.05 10.14-6.08 19.36-2.81 5.83 2.08 13.43 4.53 17.85 9.27 5.79 6.2 3.78 12.36-5.5 10.34-6.79-1.49-11.1-7.72-17.19-10.93-6.92-3.66-18.56-2.65-16.54 8.18 1.01 5.34 7.37 11.63 12.21 15.83 1.34 1.17 1.29 3.31-0.11 4.41-1.32 1.02-2.88 2.25-4.24 3.4q-0.5 0.42-0.96 0.82c-1.39 1.19-3.49 0.72-4.3-0.93-2.22-4.49-3.74-9-5.45-13.62-0.82-2.22-1.68-4.47-2.69-6.75q-0.03-0.07-0.05-0.13c-2.41-5.52-3.72-7.4-6.77-7.14-1.29 0.1-2.87 0.59-4.98 1.35-4.25 1.53-24.58 11.4-21.84-0.99 1.85-8.37 15.7-5.07 20.67-8.47q0.45-0.31 0.83-0.62c7.03-5.45 0.45-10.23-6.12-11.01q-0.93-0.12-1.84-0.12c-8.13 0.01-14.95 4.85-21.05 9.65-4.11 3.24-11.08 10.59-16.8 5.17-8.21-7.79 7.76-13.48 13.28-14.42 6.27-1.08 25.45 1.68 18.88-7.34-10.86-14.91-36.17 2.72-49.24-7.49-1.39-1.08-1.4-3.23-0.08-4.37 4.35-3.74 11.6-1.01 16.88-0.67 3.62 0.23 20.11 2.04 22.15-0.11 3.96-4.17-3.31-11.37-7.33-13.49-10.09-5.33-20.38 2.54-29.4 6.55-11.2 4.98-22.78-2.96-9.76-10.58 9.12-5.35 21.22-1.67 31.11-2.64 15.08-1.45 1.15-8.35-6.14-10.21-6.87-1.74-14.74-0.54-21.54 1.48-10.32 3.07-19.33 16.65-31.04 9.05-17.39-11.31 29.6-20.22 36.14-20.62 6.17-0.38 11.49 3.03 17.12 4.57 6.02 1.65 12.98 0.21 7.76-7.08-3.25-4.51-10.03-4.02-14.64-4.08-10.98-0.13-25.02 5.76-35.53 1.35-16.43-6.91-4.91-18.04 7.82-15.71 9.77 1.77 19.04 5.26 28.32 8.22 2.88 0.93 13.32 4.66 11.11-1.34-1.01-2.75-9.33-5.43-11.69-6.51-8.8-4.03-17.46-4.87-26.63-7.55-5.98-1.76-27.48-15.79-13.21-18.62 7.15-1.41 19.45 7.49 26.41 9.35 3.15 0.85 11.31 5.11 17.33 7.44 2.55 0.98 4.82-1.97 3.28-4.26-3.41-5.08-7.44-9.59-13.44-11.71-8.77-3.1-14.18 3.02-22.16-3.95-6.24-5.46-9.19-12.92 1.35-13.08 6.92-0.1 15.15 4.92 21.29 7.8 4.03 1.89 12.04 9.67 16.21 10.09 10.71 1.08-3.75-9.24-6.71-11.41-4.84-3.54-38.09-24.3-23.19-32.71 7.44-4.2 17.54 13.64 24.33 22.63 1.71 2.28 5.3 0.83 4.99-2.01-1.42-13.35-16.83-25.04-16.07-37.4 0.76-12.38 9.25-3.28 12.24 3.03 2.11 4.43 2.36 15.17 5.25 20.57 1.17 2.22 4.44 1.83 5.11-0.6 2-7.28 2.34-18.7 2.61-24.84 0.37-8.49-9.51-25.07-2.09-31.68 7.42-6.6 8.58 7.77 8.5 16.23-0.01 1.87-0.1 3.45-0.17 4.45-0.32 3.79-2.6 12.16-3.33 19.05-0.34 3.24 4.07 4.47 5.32 1.46 2.89-6.9 5.39-14.12 7.18-21.48 1.72-6.99-2-28.07 2.7-32.63 9.7-9.38 16.41 17.73 16.36 23.3z"/>
						</g>
						<g id="&lt;Group&gt;" style="opacity: .55;mix-blend-mode: multiply">
							<path id="&lt;Path&gt;" class="s4" d="m776.32 481.86c-0.09 11.33-2.42 19.17-9.25 28.18-4.89 6.43-11.84 9.37-15.76 15.49-1.63 2.54 1.31 5.62 3.81 3.97 3.28-2.16 6.24-5.28 8.64-8.21 3.04-3.73 9.98-13.43 12.83-2.51 2.77 10.62-13.37 15.9-23.19 22-3.04 1.89-0.49 6.65 2.68 4.98 9.2-4.86 21.03-16.88 28.6-8.04 8.79 10.27-18.66 16.32-24.61 17.72-3.77 0.88-21.64 3.65-13.52 9.68 4.57 3.4 15.79-2.98 19.81-5.08 4.04-2.11 10.96-9.68 15.58-8.77 7.76 1.52 3.03 9.03-0.43 12.32-7.81 7.43-25.09 3.3-33.49 9.9-1.95 1.55-1.06 4.72 1.38 5.06 4.18 0.58 8.09 0.59 12.72-0.53 5.9-1.44 9.52-5.72 14.61-7.37 13.84-4.44 3.07 12.29-7.12 13.77-4.59 0.66-28.62-1.95-27.67 8.36q0 0.04 0.01 0.07 0.03 0.31 0.09 0.62 0.01 0.1 0.04 0.18 0 0.04 0.02 0.08c2.36 8.55 36.46-5.19 41.31-7.16 3.58-1.47 5-5.12 7.61-7.73 0.91-0.92 2.33-1.05 3.43-0.37 15.52 9.54-13.32 18.71-20.49 20.02-6.16 1.1-14.14 2.02-19.47 5.44-5.19 3.34-11.71 11.29-2.81 12.51 4.95 0.67 17.05-3.2 22.05-4.76 6.29-1.95 10.79-5.75 16.51-8.78 4.58-2.42 15.24-5.54 13.48 3.18-0.88 4.38-9.48 8.57-13.09 10.17-10.94 4.86-31.41-0.47-39.4 10.34-1.09 1.49-0.57 3.68 1.14 4.35 9.61 3.88 28.11-4.89 36.42-7.53 3.09-0.98 6.34-2.39 9.05-4.22 2.79-1.89 4.72-6.44 7.78-7.73 9.39-3.97 9.66 5.93 6.33 11.74-6.95 12.16-19.5 12.6-31.43 10.2-6.17-1.25-30.04-4.15-22.46 8.73 7.32 12.43 18.54-1.42 27.2-2.65 6.06-0.85 10.66 3.03 16.74 2.5 5.26-0.45 9.39-4.39 14.94-2.28 5.76 2.2 7.69 6.29 3.14 10.66-4.04 3.9-11.3 2.94-16.33 2.22-6.08-0.88-12.17-4.66-18.38-3.96-4.1 0.47-12.52 4.88-10.18 10.41 2.35 5.49 23.5 5.12 28.36 5.01 12.42-0.27 17.98-3.03 26.85-10.01 0.9-0.71 2.12-0.77 3.11-0.2 7.77 4.47 1.45 13.24-5.34 16.16-7.86 3.36-16.18 1.82-24.21-0.04-4.86-1.12-18.81-6.18-21.77-0.62-4.17 7.85 7.18 12.86 12 11.6 7.81-2.05 10.14-6.08 19.36-2.81 5.83 2.08 13.43 4.53 17.85 9.27 5.79 6.2 3.78 12.36-5.5 10.34-6.79-1.49-11.1-7.72-17.19-10.93-6.92-3.66-18.56-2.65-16.54 8.18 1.01 5.34 7.37 11.63 12.21 15.83 1.34 1.17 1.29 3.31-0.11 4.41-1.32 1.02-2.88 2.25-4.24 3.4q-0.5 0.42-0.96 0.82c-1.39 1.19-3.49 0.72-4.3-0.93-2.22-4.49-3.74-9-5.45-13.62-0.82-2.22-1.68-4.47-2.69-6.75q-0.03-0.07-0.05-0.13c-2.41-5.52-3.72-7.4-6.77-7.14-1.29 0.1-2.87 0.59-4.98 1.35-4.25 1.53-24.58 11.4-21.84-0.99 1.85-8.37 15.7-5.07 20.67-8.47q0.45-0.31 0.83-0.62c7.03-5.45 0.45-10.23-6.12-11.01q-0.93-0.12-1.84-0.12c-8.13 0.01-14.95 4.85-21.05 9.65-4.11 3.24-11.08 10.59-16.8 5.17-8.21-7.79 7.76-13.48 13.28-14.42 6.27-1.08 25.45 1.68 18.88-7.34-10.86-14.91-36.17 2.72-49.24-7.49-1.39-1.08-1.4-3.23-0.08-4.37 4.35-3.74 11.6-1.01 16.88-0.67 3.62 0.23 20.11 2.04 22.15-0.11 3.96-4.17-3.31-11.37-7.33-13.49-10.09-5.33-20.38 2.54-29.4 6.55-11.2 4.98-22.78-2.96-9.76-10.58 9.12-5.35 21.22-1.67 31.11-2.64 15.08-1.45 1.15-8.35-6.14-10.21-6.87-1.74-14.74-0.54-21.54 1.48-10.32 3.07-19.33 16.65-31.04 9.05-17.39-11.31 29.6-20.22 36.14-20.62 6.17-0.38 11.49 3.03 17.12 4.57 6.02 1.65 12.98 0.21 7.76-7.08-3.25-4.51-10.03-4.02-14.64-4.08-10.98-0.13-25.02 5.76-35.53 1.35-16.43-6.91-4.91-18.04 7.82-15.71 9.77 1.77 19.04 5.26 28.32 8.22 2.88 0.93 13.32 4.66 11.11-1.34-1.01-2.75-9.33-5.43-11.69-6.51-8.8-4.03-17.46-4.87-26.63-7.55-5.98-1.76-27.48-15.79-13.21-18.62 7.15-1.41 19.45 7.49 26.41 9.35 3.15 0.85 11.31 5.11 17.33 7.44 2.55 0.98 4.82-1.97 3.28-4.26-3.41-5.08-7.44-9.59-13.44-11.71-8.77-3.1-14.18 3.02-22.16-3.95-6.24-5.46-9.19-12.92 1.35-13.08 6.92-0.1 15.15 4.92 21.29 7.8 4.03 1.89 12.04 9.67 16.21 10.09 10.71 1.08-3.75-9.24-6.71-11.41-4.84-3.54-38.09-24.3-23.19-32.71 7.44-4.2 17.54 13.64 24.33 22.63 1.71 2.28 5.3 0.83 4.99-2.01-1.42-13.35-16.83-25.04-16.07-37.4 0.76-12.38 9.25-3.28 12.24 3.03 2.11 4.43 2.36 15.17 5.25 20.57 1.17 2.22 4.44 1.83 5.11-0.6 2-7.28 2.34-18.7 2.61-24.84 0.37-8.49-9.51-25.07-2.09-31.68 7.42-6.6 8.58 7.77 8.5 16.23-0.01 1.87-0.1 3.45-0.17 4.45-0.32 3.79-2.6 12.16-3.33 19.05-0.34 3.24 4.07 4.47 5.32 1.46 2.89-6.9 5.39-14.12 7.18-21.48 1.72-6.99-2-28.07 2.7-32.63 9.7-9.38 16.41 17.73 16.36 23.3z"/>
						</g>
					</g>
					<g id="&lt;Group&gt;">
						<g id="&lt;Group&gt;">
							<path id="&lt;Path&gt;" class="s4" d="m803.63 726.6c15.36-0.57 29.13-10.93 44.85-5.37 0.56-22.89 25.5-25.16 42.64-25.19-5.39 17.88-18.6 24.69-35.49 28.7 4.09 1.94 8.14 3.85 12.03 6.16 5.12-0.47 9.62-2.39 13.68-5.53 9.92-15.17 31.82-10.28 46.27-8.01-10.35 16.5-22.82 27.12-42.05 20.17 3.24 3.75 7.26 6.65 11.99 8.01 9.16-2.05 28.65 36.09 34.11 43-22.82 6.29-30.51-4.94-32.74-27.15-1.94-11.29-18.9-21.9-28.19-26.3-2.22 2.1 9.6 12.33 10.16 12.88 5.65 3.33 18.17 37.98 20.69 43.79-22.42-4.37-31.39-18.67-29.47-41.27q0.66-1.03 1.31-2.06c-6.42-8.59-13.58-16.75-24.33-19.09 3.62 6.57 5.24 11.76 4.87 19.86-0.21 4.78 0.36 11.69 3.56 16.24 0.21 0.29 0.4 0.7 0.62 0.95-18.6-7.89-22.15-22.67-21.32-41.73-10.77-1.41-20.9 6.87-31.76 6.91q-0.71-2.49-1.43-4.97z"/>
						</g>
						<g id="&lt;Group&gt;" style="opacity: .55;mix-blend-mode: multiply">
							<path id="&lt;Path&gt;" class="s4" d="m803.63 726.6c15.36-0.57 29.13-10.93 44.85-5.37 0.56-22.89 25.5-25.16 42.64-25.19-5.39 17.88-18.6 24.69-35.49 28.7 4.09 1.94 8.14 3.85 12.03 6.16 5.12-0.47 9.62-2.39 13.68-5.53 9.92-15.17 31.82-10.28 46.27-8.01-10.35 16.5-22.82 27.12-42.05 20.17 3.24 3.75 7.26 6.65 11.99 8.01 9.16-2.05 28.65 36.09 34.11 43-22.82 6.29-30.51-4.94-32.74-27.15-1.94-11.29-18.9-21.9-28.19-26.3-2.22 2.1 9.6 12.33 10.16 12.88 5.65 3.33 18.17 37.98 20.69 43.79-22.42-4.37-31.39-18.67-29.47-41.27q0.66-1.03 1.31-2.06c-6.42-8.59-13.58-16.75-24.33-19.09 3.62 6.57 5.24 11.76 4.87 19.86-0.21 4.78 0.36 11.69 3.56 16.24 0.21 0.29 0.4 0.7 0.62 0.95-18.6-7.89-22.15-22.67-21.32-41.73-10.77-1.41-20.9 6.87-31.76 6.91q-0.71-2.49-1.43-4.97z"/>
						</g>
					</g>
					<g id="&lt;Group&gt;">
						<path id="&lt;Path&gt;" class="s4" d="m836.89 566.05c-24.09 24.9-69.8 69.04-53.12 111.2 4.18 10.55 12.59 17.89 19.97 24.84 9.39 8.85 16.69 18.99 30.63 18.81 20-0.26 46.85-24.07 56.02-40.72 5.36-9.72 0.48-18.28 5.53-27.05 4.26-7.4 10.36-11.06 17.23-15.59 6.87-4.53 13.57-9.86 15.88-17.94 2.3-8.09-1.7-15.38 2.24-23.03 4.46-8.64 14.56-10.01 23.41-11.69 8.85-1.68 17.09-4.53 25.07-8.83 5.24-2.83 10-6.22 12.8-11.73 2.12-4.16 2.17-8.78 1.46-13.3-0.36-2.33-0.9-4.75-2.02-6.84-4.98-9.3-10.99-17.34-22.21-18.73-13.18-1.64-25.52 4.92-38.39 8.83-3.71 1.13-8.37 2.31-12.82 3.23-17.1 3.55-32.51 0.24-49.96 6.77-13.5 5.06-18.39 7.99-31.72 21.77z"/>
						<path id="&lt;Path&gt;" class="s4" d="m825.23 656.48c-4.68-11.52-9.79-22.83-11.3-35.35-0.35-2.89 3.86-2.43 4.15 0.42 1.11 11.01 5.34 21.35 9.5 31.57 0.58-0.94 1.13-1.81 1.74-2.75 2.9-4.45 6.24-8.55 9.52-12.72 0.16-0.2 0.02-0.58 0.23-0.79-4.16-10.77-4.49-20.66-1.21-31.65 0.91-3.08 4.85-1.5 4.09 1.49-2.31 9.1-3.18 18.2 0.09 27.27 4.63-5.14 9.57-10.05 14.33-15.07-0.87-3.68-1.14-7.13-0.87-10.98 0.33-4.75 1.44-10.03 4.35-13.78 2.08-2.68 5.71-0.8 3.73 2.42-1.97 3.23-3.15 7.36-3.28 11.25-0.08 2.39-0.09 4.44 0.24 6.76 4.2-4.27 8.35-8.58 12.82-12.55 1.38-5.75 1.85-12.03 1.88-17.77 0.02-3.15 4.4-4.53 4.83-1.26 0.6 4.57-0.14 9.21-0.63 13.74 2.84-2.53 5.73-5.02 8.6-7.57-1.44-5.94 2.58-11.51 3.61-16.94 0.58-3.11 5-4.18 5-1.05 0 3.12-1.54 5.51-2.43 8.38-0.6 1.93-1.54 3.98-1.56 6.09q6.34-4.75 13.09-8.92c0.35-2.99 0.7-6.58 1.47-9.36 0.76-2.79 5.3-3.7 5.13-0.37-0.13 2.38-1.02 4.37-1.19 6.69 2.25-1.22 4.54-2.49 6.85-3.58 0-2.84 0.7-5.45 2.15-7.93 1.45-2.48 5.73-1.74 4.85 1.55-0.33 1.23-1 2.13-1.31 3.32-0.08 0.31-0.18 0.57-0.24 0.87 1.27-0.38 2.58-1.2 3.85-1.49 3.09-0.71 4.74 2.42 1.85 4.13-0.93 0.54-2.03 0.75-3 1.23 0.98 0.36 1.7 0.45 2.78 0.79 1.08 0.35 1.9 1.62 1.23 2.86-0.67 1.25-2.06 1.65-3.4 1.36-2.53-0.53-4.88-1.5-7.32-2.3-1.62 0.75-3.23 1.62-4.8 2.46-0.03 0.01 0.04 0.02 0.07 0.03 1.09 0.36 2.03 0.75 3.25 0.65 1.22-0.11 2.58 0.37 2.77 1.72 0.2 1.36-0.72 2.62-2 2.78-3.33 0.4-6.24-0.86-9.33-1.91-0.13-0.04-0.24-0.2-0.36-0.13-4.15 2.41-8.07 5.24-12.03 8.01 0.19 0.04 0.35 0.06 0.56 0.09 1.59 0.26 3.15 0.32 4.71-0.12 3.14-0.88 4.11 3.11 1.23 4.37-3.83 1.67-8.31 0.17-12.4 0.12-3.48 3-6.9 6.07-10.35 9.11 0.59 0.01 1.16-0.1 1.74-0.14 1.78-0.09 3.46-0.85 5.25-0.82 3.14 0.05 2.98 4.11 0.11 4.84-2.16 0.56-4.58 0.8-6.9 1.14-1.43 0.21-3.09-0.05-4.51-0.29-0.48-0.08-0.96 0.62-1.51 0.44-3.86 3.45-7.39 7.27-11.01 10.94 5.72-0.02 10.92-1.18 16.07-3.53 3-1.37 4.43 2.65 1.64 4.24-6.65 3.77-14.18 4.04-21.78 4.19-0.2 0-0.29-0.18-0.56-0.01-0.26 0.18-0.76 0.78-1.1 1.14-4.18 4.41-8.47 8.82-12.55 13.34 0.69-0.09 1.79-0.3 2.4-0.39 2.12-0.31 3.8-0.33 5.89-0.66 5.64-0.87 11.55-2.19 17.16-3.1 2.78-0.45 4.1 3.57 1.31 4.16-7.03 1.5-13.97 2.41-21.04 3.47-3.04 0.46-5.97 0.97-9.02 0.2-2.62 3.18-5.29 6.43-7.62 9.81-1.11 1.61-2.08 3.19-3.09 4.83 8.85 0.9 17.69-1.46 26.4-1.44 2.53 0 3.45 3.83 0.89 3.95-9.99 0.44-19.33 2.44-29.26 1.01-3.46 7.01-6.32 14.21-9.06 21.56-0.28 0.76-0.65 1.62-0.86 2.38 8.59 0.24 20.3-2.88 27.98-0.92 3.71 0.95 2.22 3.71 0.3 3.84-4.76 0.31-9.37 0.19-14.32 0.69-4.96 0.49-10.53 0.98-15.64 0.42-9.06 22.94-23.1 42.86-37.35 62.67-1.67 2.32-5.88 0.53-4.21-1.88 14.05-20.31 28.76-39.7 37.68-62.85 0.16-0.42 0.29-0.6 0.4-1.14-5.99-12.01-12.68-29.53-12.17-42.07 0.17-4.19 3.98-2.46 3.96 1.41-0.03 10.44 4.92 26.2 9.82 36.61 2.84-7.58 5.66-15.38 9.27-22.75-0.08-0.17-0.18-0.31-0.25-0.48z"/>
						<path id="&lt;Path&gt;" class="s7" d="m825.23 656.48c-4.68-11.52-9.79-22.83-11.3-35.35-0.35-2.89 3.86-2.43 4.15 0.42 1.11 11.01 5.34 21.35 9.5 31.57 0.58-0.94 1.13-1.81 1.74-2.75 2.9-4.45 6.24-8.55 9.52-12.72 0.16-0.2 0.02-0.58 0.23-0.79-4.16-10.77-4.49-20.66-1.21-31.65 0.91-3.08 4.85-1.5 4.09 1.49-2.31 9.1-3.18 18.2 0.09 27.27 4.63-5.14 9.57-10.05 14.33-15.07-0.87-3.68-1.14-7.13-0.87-10.98 0.33-4.75 1.44-10.03 4.35-13.78 2.08-2.68 5.71-0.8 3.73 2.42-1.97 3.23-3.15 7.36-3.28 11.25-0.08 2.39-0.09 4.44 0.24 6.76 4.2-4.27 8.35-8.58 12.82-12.55 1.38-5.75 1.85-12.03 1.88-17.77 0.02-3.15 4.4-4.53 4.83-1.26 0.6 4.57-0.14 9.21-0.63 13.74 2.84-2.53 5.73-5.02 8.6-7.57-1.44-5.94 2.58-11.51 3.61-16.94 0.58-3.11 5-4.18 5-1.05 0 3.12-1.54 5.51-2.43 8.38-0.6 1.93-1.54 3.98-1.56 6.09q6.34-4.75 13.09-8.92c0.35-2.99 0.7-6.58 1.47-9.36 0.76-2.79 5.3-3.7 5.13-0.37-0.13 2.38-1.02 4.37-1.19 6.69 2.25-1.22 4.54-2.49 6.85-3.58 0-2.84 0.7-5.45 2.15-7.93 1.45-2.48 5.73-1.74 4.85 1.55-0.33 1.23-1 2.13-1.31 3.32-0.08 0.31-0.18 0.57-0.24 0.87 1.27-0.38 2.58-1.2 3.85-1.49 3.09-0.71 4.74 2.42 1.85 4.13-0.93 0.54-2.03 0.75-3 1.23 0.98 0.36 1.7 0.45 2.78 0.79 1.08 0.35 1.9 1.62 1.23 2.86-0.67 1.25-2.06 1.65-3.4 1.36-2.53-0.53-4.88-1.5-7.32-2.3-1.62 0.75-3.23 1.62-4.8 2.46-0.03 0.01 0.04 0.02 0.07 0.03 1.09 0.36 2.03 0.75 3.25 0.65 1.22-0.11 2.58 0.37 2.77 1.72 0.2 1.36-0.72 2.62-2 2.78-3.33 0.4-6.24-0.86-9.33-1.91-0.13-0.04-0.24-0.2-0.36-0.13-4.15 2.41-8.07 5.24-12.03 8.01 0.19 0.04 0.35 0.06 0.56 0.09 1.59 0.26 3.15 0.32 4.71-0.12 3.14-0.88 4.11 3.11 1.23 4.37-3.83 1.67-8.31 0.17-12.4 0.12-3.48 3-6.9 6.07-10.35 9.11 0.59 0.01 1.16-0.1 1.74-0.14 1.78-0.09 3.46-0.85 5.25-0.82 3.14 0.05 2.98 4.11 0.11 4.84-2.16 0.56-4.58 0.8-6.9 1.14-1.43 0.21-3.09-0.05-4.51-0.29-0.48-0.08-0.96 0.62-1.51 0.44-3.86 3.45-7.39 7.27-11.01 10.94 5.72-0.02 10.92-1.18 16.07-3.53 3-1.37 4.43 2.65 1.64 4.24-6.65 3.77-14.18 4.04-21.78 4.19-0.2 0-0.29-0.18-0.56-0.01-0.26 0.18-0.76 0.78-1.1 1.14-4.18 4.41-8.47 8.82-12.55 13.34 0.69-0.09 1.79-0.3 2.4-0.39 2.12-0.31 3.8-0.33 5.89-0.66 5.64-0.87 11.55-2.19 17.16-3.1 2.78-0.45 4.1 3.57 1.31 4.16-7.03 1.5-13.97 2.41-21.04 3.47-3.04 0.46-5.97 0.97-9.02 0.2-2.62 3.18-5.29 6.43-7.62 9.81-1.11 1.61-2.08 3.19-3.09 4.83 8.85 0.9 17.69-1.46 26.4-1.44 2.53 0 3.45 3.83 0.89 3.95-9.99 0.44-19.33 2.44-29.26 1.01-3.46 7.01-6.32 14.21-9.06 21.56-0.28 0.76-0.65 1.62-0.86 2.38 8.59 0.24 20.3-2.88 27.98-0.92 3.71 0.95 2.22 3.71 0.3 3.84-4.76 0.31-9.37 0.19-14.32 0.69-4.96 0.49-10.53 0.98-15.64 0.42-9.06 22.94-23.1 42.86-37.35 62.67-1.67 2.32-5.88 0.53-4.21-1.88 14.05-20.31 28.76-39.7 37.68-62.85 0.16-0.42 0.29-0.6 0.4-1.14-5.99-12.01-12.68-29.53-12.17-42.07 0.17-4.19 3.98-2.46 3.96 1.41-0.03 10.44 4.92 26.2 9.82 36.61 2.84-7.58 5.66-15.38 9.27-22.75-0.08-0.17-0.18-0.31-0.25-0.48z"/>
					</g>
					<g id="&lt;Group&gt;">
						<path id="&lt;Path&gt;" class="s4" d="m781.23 825.28c13.07-19.39-19.39-31.45-29.19-35.75-7.21-3.16-16.33-5.63-5.51-7.9 9.5-2 25.76 10.12 35.95 14.47 4.99 2.12 5.9 15.83 15.86 10.51 9.96-5.32 47.07-47.69 42.43-69.06-4.28-19.68-38.4-21.71-57.34-19.19-2.4 0.32-6.71-0.43-9.05 0.19 9.06-12.18 15.52-26.98 19.39-41.23 5.03-18.58 1.52-27.61-17.99-32.89-24.07-6.51-54.49-1.13-78.24 6.37-8.39 2.65-8.96 4.62-5.69 11.57 2.41 5.12 7.5 10.38 9.72 15.38 4.3 9.66 8.94 20.21 5.59 30.04-5.27 15.49-11.72 4.9-15.91-4.19-4.87-10.57 0.32-22.48-12.94-29.98-22.75-12.87-52.8 57.86-52.39 78.5 12.65 0.46 28.56 8.87 32.07 21.5 3.1 11.09-3.96 8.58-9.19 6.08-6.02-2.89-8.86-10.69-15.76-7.8-28.26 11.82-3.88 78.1 4.06 94.38 7.94 16.29 5.28 15.85 1.86 28.63-0.97 3.66-3.55 4.18-4.73 7.5 19.5-0.69 42.8-0.71 53.9-19.76 5.38-9.23 2.94-22.74 3.5-32.24 0.39-6.54 1.48-30.11 6.65-14.04 3.61 11.2-0.04 24.77 3.49 36.32 8.38-4.96 21.73-9.07 25.13-19.58 4.08-12.61-7.01-25.27-8.87-37.56 12.89 6 13.24 22.05 17.25 34.53 15.05-4.9 36.99-11.49 45.95-24.8z"/>
						<path id="&lt;Path&gt;" class="s6" d="m781.23 825.28c13.07-19.39-19.39-31.45-29.19-35.75-7.21-3.16-16.33-5.63-5.51-7.9 9.5-2 25.76 10.12 35.95 14.47 4.99 2.12 5.9 15.83 15.86 10.51 9.96-5.32 47.07-47.69 42.43-69.06-4.28-19.68-38.4-21.71-57.34-19.19-2.4 0.32-6.71-0.43-9.05 0.19 9.06-12.18 15.52-26.98 19.39-41.23 5.03-18.58 1.52-27.61-17.99-32.89-24.07-6.51-54.49-1.13-78.24 6.37-8.39 2.65-8.96 4.62-5.69 11.57 2.41 5.12 7.5 10.38 9.72 15.38 4.3 9.66 8.94 20.21 5.59 30.04-5.27 15.49-11.72 4.9-15.91-4.19-4.87-10.57 0.32-22.48-12.94-29.98-22.75-12.87-52.8 57.86-52.39 78.5 12.65 0.46 28.56 8.87 32.07 21.5 3.1 11.09-3.96 8.58-9.19 6.08-6.02-2.89-8.86-10.69-15.76-7.8-28.26 11.82-3.88 78.1 4.06 94.38 7.94 16.29 5.28 15.85 1.86 28.63-0.97 3.66-3.55 4.18-4.73 7.5 19.5-0.69 42.8-0.71 53.9-19.76 5.38-9.23 2.94-22.74 3.5-32.24 0.39-6.54 1.48-30.11 6.65-14.04 3.61 11.2-0.04 24.77 3.49 36.32 8.38-4.96 21.73-9.07 25.13-19.58 4.08-12.61-7.01-25.27-8.87-37.56 12.89 6 13.24 22.05 17.25 34.53 15.05-4.9 36.99-11.49 45.95-24.8z"/>
						<g id="&lt;Group&gt;">
							<path id="&lt;Path&gt;" class="s4" d="m772.17 745.47c-2.5-7.66-6.27-13.64-6.29-22.17 4.51 0.52 28.15-11.25 28.4-11.5 5.01-4.86 0.08-5.36-1.84-5.19-0.36 0.03-0.9 0.46-1.47 0.81-8.37 5.19-17.75 8.5-27.13 11.74-9.97-3.25-24.34-6.3-30.83-14.37-2.34-2.9-7.66-1.67-5.68 1.36 5.85 8.99 19.89 11.75 29.68 15.19-6.07 1.97-12.26 3.92-18.43 5.96-8.12-2.15-18.07-4.59-25.52-7.17-3.29-1.14-6.45 2.72-3.21 3.67 7.08 2.08 14.89 4.1 22.23 5.84-6.85 2.39-13.44 5.38-20.01 8.52-0.2 0.1-0.52-0.07-0.76-0.01-7 1.72-14.13 0.95-20.78 0.02-3.25-0.46-5.14 4.77-1.9 5.39 5.7 1.08 11.77 2.18 17.68 0.63-5.01 5.58-6.08 10.01-12.11 17-0.05 0.06-16.71 6.62-20.19 8.06-1.58 0.66-3.63 7.38 0 6.51 6.82-1.63 11.16-4.64 17.35-6.89-6.56 13.19-12.68 27.69-18.02 41.06-1.6 4 1.7 7.65 3.54 3.56 5.23-11.63 9.74-23.42 15.17-34.85 0.53 5.98 1.79 12.93 3.14 18.58 1.81 7.61 4.01 18.44 10.97 21.57 3.23 1.45 4.68-4.01 1.51-6.06-5.65-3.66-7.34-13.71-8.67-20.86-1.34-7.16-2.75-15.33-2.38-22.88 3.43-7.36 7.22-14.53 11.49-21.38 0.77 2.95 2.01 6.33 3.24 9.04 4.19 9.22 8.98 17.64 16.19 24.55 2.88 2.76 5.07-1.58 2.48-4.38-5.47-5.89-10.03-13.13-13.46-20.92-1.67-3.79-3.96-8.31-3.42-12.67 6.64-3.93 13.86-6.69 21.02-9.43-1.75 8.49 1.08 15.22 6.11 21.98 2.02 2.72 5.94 0.66 5-1.21-4.54-9.02-6.38-14.28-3.61-23.39 5.87-1.86 11.74-3.81 17.61-5.64 1.46 7.38 4.32 14.37 7.65 21 1.27 2.51 6.15 1.69 5.25-1.07z"/>
						</g>
						<g id="&lt;Group&gt;" style="mix-blend-mode: multiply">
							<path id="&lt;Path&gt;" class="s4" d="m772.17 745.47c-2.5-7.66-6.27-13.64-6.29-22.17 4.51 0.52 28.15-11.25 28.4-11.5 5.01-4.86 0.08-5.36-1.84-5.19-0.36 0.03-0.9 0.46-1.47 0.81-8.37 5.19-17.75 8.5-27.13 11.74-9.97-3.25-24.34-6.3-30.83-14.37-2.34-2.9-7.66-1.67-5.68 1.36 5.85 8.99 19.89 11.75 29.68 15.19-6.07 1.97-12.26 3.92-18.43 5.96-8.12-2.15-18.07-4.59-25.52-7.17-3.29-1.14-6.45 2.72-3.21 3.67 7.08 2.08 14.89 4.1 22.23 5.84-6.85 2.39-13.44 5.38-20.01 8.52-0.2 0.1-0.52-0.07-0.76-0.01-7 1.72-14.13 0.95-20.78 0.02-3.25-0.46-5.14 4.77-1.9 5.39 5.7 1.08 11.77 2.18 17.68 0.63-5.01 5.58-6.08 10.01-12.11 17-0.05 0.06-16.71 6.62-20.19 8.06-1.58 0.66-3.63 7.38 0 6.51 6.82-1.63 11.16-4.64 17.35-6.89-6.56 13.19-12.68 27.69-18.02 41.06-1.6 4 1.7 7.65 3.54 3.56 5.23-11.63 9.74-23.42 15.17-34.85 0.53 5.98 1.79 12.93 3.14 18.58 1.81 7.61 4.01 18.44 10.97 21.57 3.23 1.45 4.68-4.01 1.51-6.06-5.65-3.66-7.34-13.71-8.67-20.86-1.34-7.16-2.75-15.33-2.38-22.88 3.43-7.36 7.22-14.53 11.49-21.38 0.77 2.95 2.01 6.33 3.24 9.04 4.19 9.22 8.98 17.64 16.19 24.55 2.88 2.76 5.07-1.58 2.48-4.38-5.47-5.89-10.03-13.13-13.46-20.92-1.67-3.79-3.96-8.31-3.42-12.67 6.64-3.93 13.86-6.69 21.02-9.43-1.75 8.49 1.08 15.22 6.11 21.98 2.02 2.72 5.94 0.66 5-1.21-4.54-9.02-6.38-14.28-3.61-23.39 5.87-1.86 11.74-3.81 17.61-5.64 1.46 7.38 4.32 14.37 7.65 21 1.27 2.51 6.15 1.69 5.25-1.07z"/>
						</g>
					</g>
				</g>
				<g id="&lt;Group&gt;">
					<g id="&lt;Group&gt;">
						<path id="&lt;Path&gt;" class="s31" d="m804.16 534.81q-0.36 1.05-0.94 2.06-0.19 0.4-0.44 0.76l-15.28 24.02-26.16 41.16c-1.28 2.06-2.84 3.78-4.6 5.2-8.34 6.76-20.92 6.34-28.78-2.02 0 0-16.7-16.72-29.82-29.86-8.48-8.48-15.46-15.46-15.48-15.48l15.72-3.4 37.14 23.14 0.1 0.06 4.72 3.3 0.88-1.56 17.6-29.24c3.58-7.3 7.74-14.32 12.46-20.96q0.43-0.6 0.86-1.2l5.3-8.78q0.06-0.11 0.12-0.22c6.02-9.8 20.64-8.98 25.78 1.3 0.78 1.6 1.34 2.92 1.5 3.7 0.5 2.64 0.32 5.42-0.68 8.02z"/>
						<path id="&lt;Path&gt;" class="s32" d="m804.16 534.81q-0.36 1.05-0.94 2.06-0.19 0.4-0.44 0.76l-15.28 24.02-26.16 41.16c-1.28 2.06-2.84 3.78-4.6 5.2-8.34 6.76-20.92 6.34-28.78-2.02 0 0-16.7-16.72-29.82-29.86l6.24-1.36 21.42 13.53c11.27 7.11 26.18 3.56 33.04-7.86l5.98-9.97c3.58-7.3 7.74-14.32 12.46-20.96q0.43-0.6 0.88-1.2l5.28-8.78q0.07-0.11 0.14-0.22c4.54-7.42 14.02-8.76 20.58-4.5z"/>
						<path id="&lt;Path&gt;" class="s21" d="m804.83 526.8c-0.15-0.8-0.7-2.11-1.5-3.71-5.13-10.29-19.75-11.1-25.76-1.3q-0.07 0.11-0.14 0.22l-5.28 8.78q-0.44 0.6-0.88 1.2c-4.71 6.64-8.88 13.66-12.46 20.97l-0.69 1.14c5.5 4.62 10.96 9.39 17.15 13.03 2.13 1.25 4.33 2.37 6.56 3.42l5.66-8.9 15.29-24.01q0.25-0.38 0.45-0.77c1.77-3.17 2.25-6.73 1.6-10.07z"/>
						<g id="&lt;Group&gt;">
							<path id="&lt;Path&gt;" class="s31" d="m656.61 535.38l12.48-5.24c0.43-0.18 0.91-0.2 1.36-0.06l10.96 3.46c1.98 0.62 3.61 2.05 4.49 3.93l7.2 15.36 8.65 6.42-9.5 11.13-9.59-9.73q-0.98-1-1.79-2.14l-4.59-6.54-3.68-0.32c-5.39-0.99-3.15-5.17-3.15-5.17-3.97-1.58-2.21-5.55-2.21-5.55-2.26-2.51-0.17-4.8-0.17-4.8-4.84 1.44-9.01 2.36-10.7 1.34-0.81-0.49-0.63-1.73 0.24-2.09z"/>
							<path id="&lt;Path&gt;" class="s33" d="m667.02 540.65c3.5-2.64 8.04-1.06 11.67 0.37 0.4 0.15 0.09 0.75-0.3 0.59-3.42-1.34-7.71-2.89-11.01-0.4-0.34 0.26-0.7-0.3-0.36-0.56z"/>
							<path id="&lt;Path&gt;" class="s33" d="m669.1 546.32c2.6-1.32 5.79-1.24 8.3 0.26 0.37 0.22 0.07 0.81-0.3 0.59-2.3-1.37-5.25-1.5-7.64-0.29-0.38 0.2-0.75-0.36-0.36-0.56z"/>
							<path id="&lt;Path&gt;" class="s33" d="m666.8 536.04c1.14-1.34 2.98-1.45 4.6-1.19 2.07 0.32 4.12 0.82 6.18 1.24 0.42 0.08 0.28 0.74-0.14 0.65-1.87-0.38-3.73-0.78-5.6-1.14-1.55-0.29-3.42-0.44-4.55 0.89-0.27 0.33-0.77-0.12-0.49-0.45z"/>
						</g>
					</g>
					<g id="&lt;Group&gt;">
						<path id="&lt;Path&gt;" class="s18" d="m611.29 625.92l1.8 3.6v0.02l30.25 60.98 56 112.86 7.6-6.35-28.84-129.62v-0.02l-15.08-67.72 15.83-9.4-29.58-5.91-5.85-1.17c-2.95-0.59-5.98-0.79-8.95-0.43q-0.26 0.02-0.49 0.05c-20.32 2.58-31.79 24.77-22.69 43.11z"/>
					</g>
					<g id="&lt;Group&gt;" style="mix-blend-mode: multiply">
						<path id="&lt;Path&gt;" class="s18" d="m664.55 721.64c5.97-8.88 13.3-16.71 20.05-24.99l-6.5-29.24v-0.02l-15.08-67.72 3.69-2.19c-1.25-0.51-2.55-0.87-3.94-0.9-3.02-0.06-6 1.19-8.65 2.52-3.05 1.54-5.87 3.54-8.26 5.97-4.25 4.29-7.72 9.45-10.78 14.63-5.31 8.98-9.39 18.66-12.71 28.55l20.97 42.27 18 36.28q1.51-2.63 3.21-5.16z"/>
					</g>
					<g id="&lt;Group&gt;">
						<g id="&lt;Group&gt;">
							<path id="&lt;Path&gt;" class="s21" d="m846.48 533.07c-0.52 0.88-0.82 1.82-0.74 2.92 0.24 2.84 0.3 5.74 0.24 8.62-0.12 5.38-0.68 10.76-1.42 16.02q-0.51 3.57-1.08 7.02-0.06 0.37-0.12 0.68c-0.5 3.04-1.14 6.02-1.86 8.98-3.36 14.14-8.54 27.92-10.18 42.2-0.62 5.22-0.34 10.3 0.34 15.36 0.06 0.54 7.24 25.48 10.44 37.9-3.88-0.08-7.76-0.78-11.62-1.78-11.8-3.06-23.16-9-32.14-9.1-9.04-0.1-17.54-0.48-26.38-1.66-6.22-0.84-10-7.4-7.6-13.18 3.92-9.38 5.54-17.84 5.54-17.84q-0.02-2.98-0.44-5.96l-4.5-31.5-5.68-8.18c-6.84-8.66-7.42-20.68-1.56-29.98 0 0 2.28-2.98 5.56-7.32 2.62-3.44 11.34-11.72 14.16-16.28 6.78-10.88 17.48-15.98 18.6-16.08 0.02-0.02 0.08-0.02 0.12-0.02q1.71-0.14 3.44-0.2c5.24-0.14 10.52 0.34 15.82 0.38 6.72 0.06 8.6-0.58 8.6-0.58 0.4 0.08 6 1.48 8.52 2.14h0.04q0.51 0.18 1.02 0.38c3 1.08 6.08 2.38 8.84 3.62 5.14 2.32 6.92 8.58 4.04 13.44z"/>
							<path id="&lt;Path&gt;" class="s34" d="m844.82 560.45c-0.58 3-1.04 5.52-1.34 7.2q-0.06 0.37-0.12 0.68c-0.5 3.04-1.14 6.02-1.86 8.98-3.36 14.14-8.54 27.92-10.18 42.2-0.62 5.22-0.34 10.3 0.34 15.36 0.06 0.54 7.24 25.48 10.44 37.9 0.78 3.18-0.36 6.56-2.96 8.54-2.08 1.58-4.16 2.14-6.3 2.04q-1.18-6.18-2.36-12.36c-0.76-3.98-1.52-7.96-2.22-11.96-3.22-18.33-11.96-37.01-11.82-76.23 0.07-18.92 6.03-37.37 16.98-52.81 1.78-4.18 2.22 37.64 5.66 34.74 1.76-1.46 3.6-2.8 5.48-4.1q0.13-0.09 0.26-0.18z"/>
						</g>
						<path id="&lt;Path&gt;" class="s18" d="m574.38 784.8l11.87 6.07 0.16-1.3c46.51-37.79 71.38-68.69 84.67-90.67 14.56-24.06 17.72-50.74 17.72-50.74 0 0 89.89 87.22 143.83 67.3 26.37-9.74 10.92-45.78 10.92-45.78-65.8-54.95-121.19-69.08-156.7-76.68-3.31-0.71-6.63-0.77-9.83-0.26-7.8 1.23-14.82 5.82-19 12.88-5 8.49-10.9 19.66-17.19 32.29v0.02c-27.48 55.07-62.63 137.85-66.45 146.87z"/>
						<g id="&lt;Group&gt;">
							<path id="&lt;Path&gt;" class="s34" d="m811.21 592.77c-12.18-1.8-21.61-11.79-22.99-23.96-0.12-1.06-1.73-0.65-1.61 0.4 0.71 6.25 3.49 12.23 7.87 16.76 4.45 4.6 10.38 7.53 16.7 8.46 1.05 0.16 1.08-1.51 0.03-1.66z"/>
						</g>
						<path id="&lt;Path&gt;" class="s31" d="m833.65 515.94q-0.04 0.04-0.05 0.08c-8.08 9.64-14.89 19-25.78 25.07-2.91 1.62-6.15 2.84-9.47 2.81-3.35 0.01-6.78-1.32-8.85-3.93-7.34-9.2 5.72-25.93 5.72-25.93q0.42-0.06 0.81-0.12 0.06-0.03 0.13-0.02 0.02-0.01 0.05-0.01c1.54-0.22 2.67-1.57 2.6-3.12l-0.58-13.01-0.76-17.69 14.03-0.03 10.41-0.03 0.96-0.01 0.27 4.98 0.76 16.27 0.1 9.89c0.01 1.38 0.95 2.57 2.29 2.9 1.96 0.49 4.69 1.18 6.24 1.58l0.05 0.01c0.55 0.16 0.95 0.27 1.07 0.31z"/>
						<path id="&lt;Path&gt;" class="s33" d="m798.62 506.7l0.01 2.13c20.9-0.82 23.07-22.66 23.27-28.83 0.03-1.02 0.01-1.61 0.01-1.61l-10.41 1.65-11.83 1.85-1.44 15.87z"/>
						<path id="&lt;Path&gt;" class="s31" d="m778.31 464.22c0.55-4.14 1.08-8.25 1.32-12.41 0.36-5.96 3.88-11.96 7.37-16.97 2.23-3.19 4.92-6.05 8.11-8.27 8.51-5.89 21.06-6.95 30.51-2.99 13.23 5.56 14.57 18.93 10.95 30.95 8.5-4.2 8.87 6.65 8.87 6.65 0.37 10.85-10.23 10.8-10.23 10.8-3.1 10.36-10.17 16.67-10.17 16.67-6.61 6.04-12.43 9.4-17.3 11.16-9.72 3.5-20.23-0.36-25.53-8.84-4.36-6.97-5.44-14.9-4.4-22.97q0.25-1.9 0.5-3.78z"/>
						<g id="&lt;Group&gt;">
							<path id="&lt;Path&gt;" class="s30" d="m848.67 439.4c-1.31-6.2-4.37-12.12-9.13-16.29-7.9-6.92-19.29-8.24-29.75-7.34-7.52 0.64-15.14 2.34-21.4 6.54-7.4 4.99-12.21 13.02-15.62 21.27-4.35 10.54-6.74 22.61-2.7 33.27 0.87 2.28 2.03 4.52 2.2 6.95 0.16 2.44-1.05 5.2-3.41 5.83 2.07 1.49 5.14 0.97 7.04-0.73 1.91-1.69 2.79-4.29 3.02-6.82 0.22-2.54-0.14-5.09-0.33-7.63-0.58-7.67-0.11-13.97 1.54-21.03 8.56-3.26 17.98-9.63 25-15.51-0.34 3.27-1.52 6.45-3.39 9.15 6.22-1.1 12.03-4.4 16.17-9.18-1.3 4.62-2.55 9.82-0.19 14.01 1.4 2.49 3.92 4.24 5.11 6.84 1.83 4.02-0.61 9.38-4.84 10.64 2.74 0.4 5.6-0.55 7.66-2.39-0.26 1.15-0.08 2.49 0.48 3.54 1.09 2.01 3.03 3.41 4.34 5.28 1.31 1.87 1.76 4.78-0.03 6.2 4.92-1.63 9.06-5.17 11.99-9.44 2.93-4.27 4.71-9.25 5.82-14.31 1.35-6.19 1.72-12.65 0.42-18.85z"/>
						</g>
						<g id="&lt;Group&gt;">
							<path id="&lt;Path&gt;" class="s30" d="m811.02 466.19c-0.36 1.86-1.67 3.23-2.94 3.07-1.26-0.16-1.99-1.8-1.63-3.65 0.36-1.86 1.68-3.24 2.94-3.08 1.26 0.16 1.99 1.8 1.63 3.66z"/>
							<path id="&lt;Path&gt;" class="s30" d="m791.03 464.97c-0.36 1.86-1.68 3.23-2.94 3.07-1.26-0.16-2-1.79-1.64-3.65 0.36-1.86 1.68-3.23 2.94-3.07 1.27 0.16 2 1.79 1.64 3.65z"/>
						</g>
						<path id="&lt;Path&gt;" class="s33" d="m790.54 474.81c0.4-0.83 1.08-1.48 1.65-2.18q0.97-1.2 1.7-2.56c0.99-1.8 1.61-3.75 1.9-5.75 0.08-0.55 0.75-0.88 1.24-0.78 0.58 0.12 0.8 0.66 0.72 1.2-0.5 3.37-1.94 6.58-4.13 9.25-0.84 1.03-2.05 2.13-0.99 3.37 1.05 1.25 2.99 1.04 4.49 0.93 1.31-0.09 1.33 1.94 0.02 2.03-1.95 0.13-4.03 0.17-5.58-1.11-1.28-1.06-1.79-2.81-1.02-4.4z"/>
						<path id="&lt;Path&gt;" class="s30" d="m791.03 451.64c-0.43-0.24-0.88-0.25-1.31-0.22-2.82 0.23-5 2.55-5.56 5.71 0.2-0.43 0.42-0.82 0.74-1.12q0.03-0.02 0.06-0.04 0.27-0.3 0.59-0.52c0.79-0.52 1.77-0.69 2.73-0.81 0.97-0.12 1.95-0.21 2.81-0.61 0.41-0.2 0.83-0.54 0.8-1.11-0.02-0.52-0.42-1.04-0.86-1.28z"/>
						<path id="&lt;Path&gt;" class="s30" d="m808.4 451.81c0.42-0.29 0.88-0.36 1.3-0.38 2.82-0.12 5.07 1.91 5.72 4.99-0.21-0.4-0.44-0.76-0.77-1.02q-0.03-0.01-0.06-0.03-0.28-0.27-0.61-0.45c-0.8-0.42-1.78-0.46-2.74-0.46-0.97 0-1.96 0.03-2.83-0.26-0.42-0.14-0.84-0.43-0.83-1.01 0.01-0.52 0.39-1.09 0.82-1.38z"/>
						<path id="&lt;Path&gt;" class="s33" d="m810.05 480.57c-3.28 3.35-8.14 4.87-12.58 4.05-1.27-0.23-1.67 1.78-0.4 2.01 5.18 0.95 10.71-0.93 14.51-4.8 0.94-0.95-0.6-2.21-1.53-1.26z"/>
					</g>
					<g id="&lt;Group&gt;">
						<g id="&lt;Group&gt;">
							<path id="&lt;Path&gt;" class="s35" d="m732.47 598.86l-45.88-79.34c-2.68-4.65-7.66-7.5-13.03-7.46l-58.85 0.4c-4.23 0.03-8.26 1.85-11.07 5.02l59.95 87.63 67.79 4.48c2.64-2.97 3.08-7.29 1.09-10.73z"/>
							<path id="&lt;Path&gt;" class="s35" d="m731.05 610.01l-46.72-82.08c-3.83-6.74-10.99-10.9-18.74-10.9h-61.65l51.26 86.82c2.26 3.82 6.36 6.16 10.8 6.16z"/>
							<path id="&lt;Path&gt;" class="s36" d="m731.05 610.01l-46.72-82.08c-3.83-6.74-10.99-10.9-18.74-10.9h-61.65l51.26 86.82c2.26 3.82 6.36 6.16 10.8 6.16z"/>
						</g>
						<path id="&lt;Path&gt;" class="s31" d="m855.83 528.33c-3.64-7.06-12.24-9.76-19.41-6.51-12.24 5.56-16.53 84.08-17.99 83.99-0.01 0-66.69-7.97-72.58-10.21-1.8-0.7-3.16-1.4-4.02-2.09-2.54-2.09-4.76-4.55-7.36-6.64-2.73-2.17-5.91-3.91-9.31-4.71-2.2-0.51-4.5-0.59-6.72-0.16-1.23 0.19-2.44 0.56-3.56 1.07-0.81 0.37-2.73 1.31-2.6 2.38 0.16 1.31 2.17 1.47 3.08 1.39 2.19-0.1 4.44-0.35 6.64-0.1 2.17 0.26 4.39 1.2 5.7 2.97-4.63-1.61-10.07-0.7-13.92 2.33-0.83 0.64-1.61 1.71-1.13 2.62 0.22 0.4 0.65 0.67 1.05 0.8 1.79 0.67 3.72 0.24 5.59-0.13 3.43-0.59 7.02-0.72 10.36 0.27-4.28 0.21-8.54 0.99-12.63 2.27-0.64 0.22-1.37 0.46-1.66 1.07-0.38 0.73 0 1.61 0.61 2.12 0.62 0.51 1.45 0.67 2.2 0.8 4.5 0.7 9.07 0.4 13.62 0.08-2.89 0.83-5.72 1.63-8.61 2.46-0.92 0.24-1.91 0.51-2.63 1.13-0.77 0.59-1.28 1.6-1.02 2.54 0.41 1.53 2.47 1.82 4.07 1.69 4.63-0.43 9.61-1.85 13.71 0.32 1.53 0.8 3.32 1.31 4.95 1.95 3.05 1.21 6.72 1.23 9.29-0.96 0.99-0.83 47.84 20.36 59.94 22.52 5.2 0.97 10.44 1.53 15.77 1.56 8.51 0.02 15.66-6.29 16.57-14.75 5.59-51 20.27-76.09 12-92.07z"/>
						<path id="&lt;Path&gt;" class="s21" d="m830.92 576.62c6.89 1.74 14.14 2.17 21.38 1.74 6.12-24.27 11.57-39.24 5.33-50.03-4.06-7.06-13.67-9.76-21.68-6.51-7.56 3.08-12.41 28.48-15.51 50.55 3.23 1.89 6.75 3.31 10.48 4.25z"/>
					</g>
					<path id="&lt;Path&gt;" class="s30" d="m714.14 847.55c-9.39 1.61-15.35-41.39-15.85-46.3l7.9-7.59c2.29 1.24 4.88 1.79 7.48 1.72 3.78-0.1 8.38 0.92 7.69 6.69l-5.12 43.03c-0.14 1.17-0.94 2.25-2.1 2.45z"/>
					<path id="&lt;Path&gt;" class="s30" d="m534.04 798.44c-1.78-9.33 36.42-15.29 41.31-15.93 3.7 1.2 9.22 5.82 11.06 7.06 0.68 3.16 1.23 15.64-6.71 14.91l-42.02-3.87c-1.47-0.14-3.36-0.7-3.64-2.17z"/>
				</g>
			</g>
		</g>
	</g>
</svg>