<svg xmlns="http://www.w3.org/2000/svg" width="1510" height="1573" viewBox="0 0 1510 1573" fill="none"><rect x="337.138" y="1.34324" width="1170.21" height="1570.23" rx="52.9805" fill="white" stroke="#EF589B" stroke-width="2.68649"></rect><rect x="95.354" y="681.025" width="1276.39" height="464.004" rx="30.8946" fill="white" stroke="#EF589B" stroke-width="2.68649"></rect><rect x="533.255" y="1191.45" width="779.081" height="319.692" rx="30.8946" fill="white" fill-opacity="0.2" stroke="#EF589B" stroke-width="2.68649"></rect><g opacity="0.8"><path d="M607.252 1233.27H849.016C854.914 1233.27 859.695 1238.06 859.695 1243.95V1459.96C859.695 1465.85 854.914 1470.64 849.016 1470.64H607.252C601.354 1470.64 596.573 1465.85 596.573 1459.96V1243.95C596.573 1238.06 601.354 1233.27 607.252 1233.27Z" fill="#FFF6FB" stroke="#F0F0F0" stroke-width="0.35673"></path><path d="M921.521 1255.88V1265.12H932.522V1255.88H937.615V1278.99H932.522V1269.36H921.521V1278.99H916.428V1255.88H921.521Z" fill="#263238" stroke="#F0F0F0" stroke-width="0.35673"></path><path d="M947.357 1260.69C949.123 1259.86 951.098 1259.57 953.027 1259.88C954.957 1260.18 956.751 1261.05 958.177 1262.39C959.603 1263.72 960.595 1265.45 961.024 1267.36C961.454 1269.26 961.301 1271.25 960.586 1273.07C959.871 1274.89 958.626 1276.45 957.013 1277.55C955.4 1278.65 953.494 1279.24 951.541 1279.24L951.529 1279.24C950.282 1279.33 949.03 1279.16 947.853 1278.74C946.675 1278.32 945.595 1277.66 944.683 1276.81C943.77 1275.96 943.042 1274.92 942.546 1273.78C942.112 1272.77 941.863 1271.7 941.81 1270.61L941.799 1270.14L941.798 1270.13C941.672 1268.18 942.136 1266.24 943.127 1264.56C944.118 1262.87 945.592 1261.53 947.357 1260.69ZM953.109 1266.01C952.233 1265.7 951.288 1265.66 950.389 1265.89C949.49 1266.12 948.676 1266.6 948.047 1267.28C947.418 1267.96 947.001 1268.81 946.847 1269.73C946.692 1270.64 946.807 1271.58 947.178 1272.43C947.548 1273.28 948.158 1274.01 948.933 1274.51C949.705 1275.02 950.609 1275.29 951.533 1275.3V1275.3C952.209 1275.33 952.883 1275.21 953.51 1274.96C954.136 1274.7 954.701 1274.32 955.166 1273.83C955.631 1273.34 955.986 1272.75 956.207 1272.11C956.428 1271.48 956.509 1270.8 956.445 1270.12L956.43 1269.96H956.298C956.195 1269.1 955.862 1268.28 955.326 1267.59C954.757 1266.86 953.986 1266.31 953.109 1266.01Z" fill="#263238" stroke="#F0F0F0" stroke-width="0.35673"></path><path d="M970.617 1257.45V1261.71H975.13V1265.36H970.617V1272.9C970.579 1273.23 970.612 1273.57 970.716 1273.88C970.822 1274.21 970.999 1274.5 971.233 1274.75C971.466 1274.99 971.751 1275.19 972.068 1275.31C972.381 1275.43 972.717 1275.48 973.052 1275.46L973.053 1275.46C973.776 1275.46 974.48 1275.25 975.092 1274.87L976.366 1278.19C975.157 1278.93 973.754 1279.3 972.335 1279.24L972.32 1279.24L972.303 1279.24C971.437 1279.36 970.555 1279.29 969.722 1279.02C968.889 1278.75 968.128 1278.3 967.496 1277.69C966.863 1277.09 966.377 1276.35 966.072 1275.53C965.767 1274.71 965.652 1273.83 965.736 1272.96L965.737 1272.95V1265.36H962.969V1261.71H965.737V1257.45H970.617Z" fill="#263238" stroke="#F0F0F0" stroke-width="0.35673"></path><path d="M987.247 1264.63C986.139 1264.63 985.067 1265.02 984.221 1265.74C983.374 1266.45 982.808 1267.44 982.622 1268.53L982.586 1268.74H991.908L991.873 1268.53C991.687 1267.44 991.121 1266.45 990.274 1265.74C989.428 1265.02 988.355 1264.63 987.247 1264.63ZM977.781 1270.14C977.769 1268.91 978.006 1267.69 978.48 1266.56C978.955 1265.43 979.655 1264.4 980.538 1263.55C981.421 1262.7 982.47 1262.04 983.618 1261.61C984.767 1261.17 985.992 1260.98 987.218 1261.04H987.235C988.458 1260.97 989.681 1261.16 990.825 1261.6C991.969 1262.04 993.008 1262.71 993.874 1263.58C994.74 1264.44 995.414 1265.48 995.852 1266.62C996.235 1267.63 996.429 1268.69 996.428 1269.76L996.415 1270.21V1270.22C996.415 1270.56 996.381 1270.94 996.343 1271.45H982.656L982.71 1271.67C982.993 1272.84 983.69 1273.86 984.674 1274.56C985.654 1275.24 986.851 1275.55 988.042 1275.43C988.893 1275.45 989.74 1275.31 990.534 1275C991.276 1274.72 991.955 1274.29 992.539 1273.75L995.109 1276.52C994.194 1277.44 993.098 1278.16 991.888 1278.63C990.625 1279.12 989.271 1279.33 987.919 1279.24L987.904 1279.24L987.89 1279.24C986.615 1279.37 985.328 1279.23 984.11 1278.83C982.893 1278.43 981.772 1277.79 980.82 1276.93C979.868 1276.07 979.106 1275.02 978.583 1273.85C978.06 1272.69 977.787 1271.42 977.781 1270.14V1270.14Z" fill="#263238" stroke="#F0F0F0" stroke-width="0.35673"></path><path d="M1005.14 1254.48V1278.98H1000.26V1254.48H1005.14Z" fill="#263238" stroke="#F0F0F0" stroke-width="0.35673"></path><path d="M1033.99 1263.83L1034.03 1263.92L1034.13 1263.93L1038.11 1264.52L1035.22 1267.33L1035.15 1267.4L1035.17 1267.49L1035.87 1271.43L1032.32 1269.56L1032.24 1269.51L1032.15 1269.56L1028.6 1271.43L1029.26 1267.49L1029.28 1267.4L1029.21 1267.33L1026.36 1264.52L1030.31 1263.93L1030.4 1263.92L1030.44 1263.83L1032.23 1260.24L1033.99 1263.83Z" fill="black" stroke="#F0F0F0" stroke-width="0.35673"></path><path d="M1050.85 1263.83L1050.89 1263.92L1050.98 1263.93L1054.97 1264.52L1052.08 1267.33L1052.01 1267.4L1052.02 1267.49L1052.73 1271.43L1049.18 1269.56L1049.09 1269.51L1049.01 1269.56L1045.45 1271.43L1046.12 1267.49L1046.13 1267.4L1046.07 1267.33L1043.21 1264.52L1047.16 1263.93L1047.25 1263.92L1047.29 1263.83L1049.09 1260.24L1050.85 1263.83Z" fill="black" stroke="#F0F0F0" stroke-width="0.35673"></path><path d="M1067.72 1263.83L1067.76 1263.92L1067.85 1263.93L1071.84 1264.52L1068.95 1267.33L1068.88 1267.4L1068.89 1267.49L1069.6 1271.43L1066.05 1269.56L1065.96 1269.51L1065.88 1269.56L1062.32 1271.43L1062.99 1267.49L1063 1267.4L1062.94 1267.33L1060.08 1264.52L1064.03 1263.93L1064.12 1263.92L1064.16 1263.83L1065.96 1260.24L1067.72 1263.83Z" fill="black" stroke="#F0F0F0" stroke-width="0.35673"></path><path d="M1084.57 1263.83L1084.61 1263.92L1084.71 1263.93L1088.69 1264.52L1085.8 1267.33L1085.73 1267.4L1085.75 1267.49L1086.45 1271.43L1082.9 1269.56L1082.82 1269.51L1082.73 1269.56L1079.18 1271.43L1079.84 1267.49L1079.86 1267.4L1079.79 1267.33L1076.94 1264.52L1080.89 1263.93L1080.98 1263.92L1081.02 1263.83L1082.81 1260.24L1084.57 1263.83Z" fill="#E0E0E0" stroke="#F0F0F0" stroke-width="0.35673"></path><path d="M1101.44 1263.83L1101.48 1263.92L1101.57 1263.93L1105.56 1264.52L1102.67 1267.33L1102.6 1267.4L1102.61 1267.49L1103.32 1271.43L1099.77 1269.56L1099.68 1269.51L1099.6 1269.56L1096.04 1271.43L1096.71 1267.49L1096.72 1267.4L1096.66 1267.33L1093.8 1264.52L1097.75 1263.93L1097.84 1263.92L1097.88 1263.83L1099.68 1260.24L1101.44 1263.83Z" fill="#E0E0E0" stroke="#F0F0F0" stroke-width="0.35673"></path><path d="M1011.76 1301.74C1036.94 1301.74 1059.73 1301.87 1076.23 1302.07C1084.47 1302.17 1091.14 1302.29 1095.75 1302.42C1098.06 1302.49 1099.85 1302.56 1101.06 1302.63C1101.31 1302.64 1101.54 1302.66 1101.74 1302.67C1101.54 1302.69 1101.31 1302.71 1101.06 1302.72C1099.84 1302.79 1098.06 1302.86 1095.75 1302.93C1091.14 1303.07 1084.46 1303.18 1076.21 1303.28C1059.71 1303.48 1036.92 1303.6 1011.76 1303.6C986.595 1303.6 963.795 1303.48 947.286 1303.28C939.031 1303.18 932.35 1303.07 927.733 1302.93C925.424 1302.86 923.633 1302.79 922.419 1302.72C922.131 1302.7 921.876 1302.68 921.655 1302.67C921.875 1302.65 922.131 1302.63 922.418 1302.61C923.63 1302.54 925.42 1302.47 927.727 1302.4C932.341 1302.27 939.017 1302.15 947.269 1302.05C963.773 1301.86 986.573 1301.74 1011.76 1301.74Z" fill="#E0E0E0" stroke="#F0F0F0" stroke-width="0.35673"></path><path d="M1081.67 1332.69C1127.21 1332.69 1168.43 1332.81 1198.28 1333.01C1213.2 1333.11 1225.27 1333.22 1233.62 1333.36C1237.79 1333.43 1241.03 1333.5 1243.22 1333.57C1243.68 1333.59 1244.09 1333.6 1244.45 1333.62C1244.09 1333.63 1243.68 1333.65 1243.22 1333.66C1241.03 1333.73 1237.79 1333.8 1233.62 1333.87C1225.27 1334 1213.2 1334.12 1198.28 1334.22C1168.43 1334.42 1127.21 1334.55 1081.67 1334.55C1036.13 1334.55 994.905 1334.42 965.063 1334.22C950.142 1334.12 938.067 1334 929.723 1333.87C925.551 1333.8 922.313 1333.73 920.118 1333.66C919.719 1333.65 919.354 1333.64 919.025 1333.62C919.354 1333.61 919.719 1333.59 920.118 1333.58C922.313 1333.51 925.551 1333.44 929.723 1333.38C938.067 1333.25 950.142 1333.13 965.063 1333.02C994.905 1332.82 1036.13 1332.69 1081.67 1332.69Z" fill="#263238" stroke="#F0F0F0" stroke-width="0.35673"></path><path d="M1001.02 1364.37C1023.35 1364.37 1043.58 1364.5 1058.22 1364.7C1065.54 1364.8 1071.46 1364.92 1075.56 1365.05C1077.6 1365.12 1079.19 1365.19 1080.27 1365.26C1080.46 1365.27 1080.64 1365.29 1080.8 1365.3C1080.64 1365.31 1080.46 1365.33 1080.27 1365.34C1079.19 1365.41 1077.6 1365.48 1075.56 1365.55C1071.46 1365.68 1065.54 1365.8 1058.22 1365.9C1043.58 1366.1 1023.35 1366.23 1001.02 1366.23C978.689 1366.23 958.465 1366.1 943.824 1365.9C936.503 1365.8 930.579 1365.68 926.486 1365.55C924.439 1365.48 922.852 1365.41 921.777 1365.34C921.579 1365.33 921.399 1365.31 921.237 1365.3C921.399 1365.29 921.579 1365.27 921.777 1365.26C922.852 1365.19 924.439 1365.12 926.486 1365.05C930.579 1364.92 936.503 1364.8 943.824 1364.7C958.465 1364.5 978.689 1364.37 1001.02 1364.37Z" fill="#263238" stroke="#F0F0F0" stroke-width="0.35673"></path><path d="M1089.3 1458.28C1087.95 1458.81 1086.55 1459.23 1085.12 1459.52H1085.12C1083.64 1459.84 1082.48 1460 1081.7 1460.08C1081.55 1460.1 1081.4 1460.11 1081.28 1460.12C1081.52 1459.95 1081.75 1459.75 1081.96 1459.53C1083.11 1459.53 1084.26 1459.43 1085.4 1459.23C1086.73 1459.02 1088.03 1458.7 1089.3 1458.28ZM1105.65 1422.13L1105.65 1422.12C1105.07 1417.24 1103.1 1412.63 1099.99 1408.83L1099.99 1408.83L1099.66 1408.45C1096.23 1404.53 1091.67 1401.77 1086.61 1400.55L1086.6 1400.55L1086.08 1400.44C1083.43 1399.9 1080.73 1399.71 1078.04 1399.87H939.453C933.734 1399.88 928.197 1401.88 923.78 1405.51C919.502 1409.04 916.53 1413.89 915.332 1419.29L915.222 1419.81L915.22 1419.82C914.76 1423.53 914.604 1427.26 914.75 1430.99C914.539 1434.41 914.856 1437.84 915.689 1441.16L915.863 1441.82L915.865 1441.83C917.415 1446.83 920.513 1451.22 924.712 1454.35C928.912 1457.49 933.998 1459.22 939.239 1459.28H939.24L1012.86 1459.54L1052.64 1459.81L1012.86 1460.12L939.199 1460.33C933.595 1460.27 928.153 1458.44 923.655 1455.09C919.297 1451.86 916.042 1447.36 914.323 1442.22L914.162 1441.72C913.126 1438.03 912.711 1434.2 912.935 1430.37L912.936 1430.36L912.935 1430.35C912.781 1426.74 912.922 1423.11 913.354 1419.52L913.444 1418.8C914.166 1415.11 915.673 1411.61 917.859 1408.55L918.307 1407.94C920.776 1404.67 923.97 1402.01 927.639 1400.17C931.078 1398.45 934.848 1397.5 938.686 1397.38L939.454 1397.37H1078.06C1080.84 1397.26 1083.63 1397.49 1086.36 1398.06L1086.91 1398.17C1092.42 1399.54 1097.34 1402.63 1100.95 1407.01C1104.15 1411 1106.15 1415.83 1106.7 1420.92H1106.7C1106.95 1425.81 1106.7 1430.09 1106.7 1434.32C1106.58 1437.94 1105.71 1441.5 1104.12 1444.76C1103.12 1446.84 1101.84 1448.77 1100.33 1450.5C1101.51 1448.98 1102.52 1447.33 1103.33 1445.58C1104.8 1442.38 1105.6 1438.91 1105.65 1435.39V1422.13Z" fill="black" stroke="#F0F0F0" stroke-width="0.35673"></path><path d="M987.441 1419.85C989.42 1419.85 990.935 1420.27 991.948 1420.99C992.955 1421.7 993.479 1422.71 993.479 1423.93L993.48 1423.94C993.497 1424.7 993.3 1425.45 992.91 1426.11C992.521 1426.76 991.955 1427.3 991.277 1427.65L990.854 1427.87L991.317 1427.98C992.266 1428.21 993.1 1428.77 993.669 1429.57C994.238 1430.36 994.503 1431.33 994.417 1432.3V1432.32C994.417 1433.76 993.875 1434.87 992.814 1435.63C991.745 1436.4 990.127 1436.83 987.953 1436.83H979.871V1419.85H987.441ZM981.941 1435.18H987.825C989.283 1435.18 990.421 1434.97 991.198 1434.48C991.991 1433.98 992.389 1433.2 992.389 1432.15V1431.97H992.257C992.214 1431.01 991.82 1430.28 991.09 1429.8C990.328 1429.3 989.222 1429.08 987.825 1429.08H981.941V1435.18ZM981.983 1427.43H987.229C988.503 1427.43 989.535 1427.18 990.253 1426.68C990.98 1426.17 991.367 1425.41 991.367 1424.44C991.367 1423.47 990.98 1422.72 990.252 1422.23C989.534 1421.73 988.502 1421.5 987.229 1421.5H981.983V1427.43Z" fill="black" stroke="#F0F0F0" stroke-width="0.35673"></path><path d="M1001.19 1424.26C1002.39 1423.75 1003.73 1423.6 1005.02 1423.84C1006.31 1424.09 1007.5 1424.71 1008.44 1425.63C1009.38 1426.55 1010.02 1427.73 1010.29 1429.01C1010.55 1430.3 1010.43 1431.64 1009.94 1432.85C1009.45 1434.07 1008.6 1435.12 1007.52 1435.85C1006.43 1436.59 1005.15 1436.99 1003.83 1437L1003.83 1437C1002.95 1437.04 1002.07 1436.91 1001.25 1436.6C1000.43 1436.29 999.679 1435.81 999.052 1435.19C998.425 1434.58 997.933 1433.84 997.606 1433.02C997.28 1432.21 997.127 1431.33 997.157 1430.45H997.158V1430.45C997.142 1429.13 997.515 1427.84 998.232 1426.74C998.949 1425.64 999.977 1424.78 1001.19 1424.26ZM1003.79 1425.84C1002.57 1425.84 1001.4 1426.33 1000.54 1427.19C999.671 1428.06 999.186 1429.23 999.186 1430.45C999.186 1431.67 999.671 1432.84 1000.54 1433.71C1001.4 1434.57 1002.57 1435.05 1003.79 1435.05C1005.01 1435.05 1006.19 1434.57 1007.05 1433.71C1007.91 1432.84 1008.4 1431.67 1008.4 1430.45C1008.4 1429.23 1007.91 1428.06 1007.05 1427.19C1006.19 1426.33 1005.01 1425.84 1003.79 1425.84Z" fill="black" stroke="#F0F0F0" stroke-width="0.35673"></path><path d="M1016.9 1424.26C1018.1 1423.75 1019.44 1423.6 1020.73 1423.84C1022.02 1424.09 1023.21 1424.71 1024.15 1425.63C1025.09 1426.55 1025.73 1427.73 1026 1429.01C1026.27 1430.3 1026.14 1431.64 1025.65 1432.85C1025.16 1434.07 1024.31 1435.12 1023.23 1435.85C1022.14 1436.59 1020.86 1436.99 1019.54 1437L1019.54 1437C1018.66 1437.04 1017.78 1436.91 1016.96 1436.6C1016.14 1436.29 1015.39 1435.81 1014.76 1435.19C1014.14 1434.58 1013.64 1433.84 1013.32 1433.02C1012.99 1432.21 1012.84 1431.33 1012.87 1430.45H1012.87V1430.45C1012.85 1429.13 1013.23 1427.84 1013.94 1426.74C1014.66 1425.64 1015.69 1424.78 1016.9 1424.26ZM1019.52 1425.86C1018.31 1425.86 1017.14 1426.35 1016.28 1427.21C1015.42 1428.07 1014.94 1429.23 1014.94 1430.45C1014.94 1431.66 1015.42 1432.83 1016.28 1433.69C1017.14 1434.55 1018.31 1435.03 1019.52 1435.03C1020.74 1435.03 1021.91 1434.55 1022.77 1433.69C1023.63 1432.83 1024.11 1431.66 1024.11 1430.45C1024.11 1429.23 1023.63 1428.07 1022.77 1427.21C1021.91 1426.35 1020.74 1425.86 1019.52 1425.86Z" fill="black" stroke="#F0F0F0" stroke-width="0.35673"></path><path d="M1031.8 1418.92V1430.89L1032.1 1430.62L1039.2 1424.15H1041.59L1036.37 1429.26L1036.25 1429.37L1036.35 1429.49L1042.21 1436.91H1039.73L1034.84 1430.8L1034.72 1430.66L1034.58 1430.79L1031.86 1433.3L1031.8 1433.35V1436.91H1029.81V1418.92H1031.8Z" fill="black" stroke="#F0F0F0" stroke-width="0.35673"></path><path d="M737.2 1428.2V1428.2L741.883 1428.25L737.753 1428.31L671.894 1428.77V1427.74L737.2 1428.2ZM671.537 1427.73V1428.01L671.255 1427.73L671.537 1427.73ZM762.613 1426.04C762.464 1426.59 762.283 1427.14 762.076 1427.67V1418.4C762.076 1412.55 762.077 1404.58 761.877 1394.72L761.778 1390.37C761.778 1366.6 761.487 1333.27 761.315 1294.03H762.529L762.239 1293.73L761.261 1292.71L760.951 1292.38L760.953 1292.83C760.954 1293.11 760.956 1293.39 760.957 1293.67H671.894V1292.37L671.592 1292.66L670.485 1293.72L670.166 1294.03H671.537V1427.38L670.822 1427.37L670.388 1427.37L670.695 1427.68L671.59 1428.57L671.789 1428.77L670.82 1428.78H670.105V1292.99C670.176 1292.91 670.254 1292.84 670.336 1292.75C670.552 1292.53 670.791 1292.29 670.96 1292.12C671.027 1292.05 671.083 1291.99 671.124 1291.94H763.38V1292.75C763.167 1332.77 762.997 1366.79 762.869 1390.93V1390.93C762.869 1402.73 762.87 1412.22 762.614 1418.73H762.613V1426.04ZM761.693 1293.67H761.313C761.313 1293.54 761.312 1293.41 761.312 1293.28L761.693 1293.67ZM671.537 1293.67H671.051L671.537 1293.21V1293.67Z" fill="black" stroke="#F0F0F0" stroke-width="0.35673"></path><path d="M731.586 1273.76C735.225 1273.7 738.862 1273.94 742.461 1274.46C739.207 1274.88 735.934 1275.12 732.655 1275.18V1274.05L732.352 1274.35L731.149 1275.56L731.584 1275.55C731.822 1275.55 732.061 1275.54 732.299 1275.54V1291.33H730.939L732.655 1293.05V1291.69H742.328C742.32 1291.96 742.311 1292.22 742.305 1292.49L742.294 1292.92L742.606 1292.62L743.629 1291.64L743.949 1291.33H742.695C742.863 1286.24 743.286 1281.17 743.962 1276.12C744.605 1281.64 744.892 1287.19 744.817 1292.74V1293.59H731.913L730.91 1292.59V1273.76H731.586ZM732.299 1291.69V1292.19L731.8 1291.69H732.299ZM743.062 1291.69L742.673 1292.06C742.676 1291.94 742.681 1291.81 742.685 1291.69H743.062ZM732.299 1275.18C732.206 1275.19 732.113 1275.19 732.02 1275.19L732.299 1274.91V1275.18Z" fill="black" stroke="#F0F0F0" stroke-width="0.35673"></path><path d="M787.044 1429.04H763.306L763.311 1428.66C763.313 1428.51 763.315 1428.35 763.317 1428.19L787.044 1429.04ZM762.96 1428.17C762.96 1428.19 762.96 1428.2 762.959 1428.21L762.92 1428.17L762.96 1428.17ZM796.889 1294.2C796.88 1332.58 796.506 1366.2 796.379 1390.72V1390.72C796.379 1394.1 796.361 1397.29 796.334 1400.29C796.309 1398.39 796.279 1396.42 796.239 1394.38L796.14 1389.95C796.14 1365.74 795.85 1332.33 795.637 1294.2H796.889ZM796.096 1293.85H795.635C795.634 1293.69 795.632 1293.53 795.631 1293.37L796.096 1293.85ZM763.38 1293.85H762.882L763.379 1293.35C763.379 1293.52 763.38 1293.68 763.38 1293.85ZM761.31 1428.57C761.055 1398.05 760.842 1348.57 760.842 1292.83V1291.91H796.89V1292.79C796.89 1293.25 796.889 1293.7 796.889 1294.16L796.644 1293.9L795.58 1292.79L795.27 1292.47L795.272 1292.92C795.274 1293.23 795.276 1293.54 795.278 1293.85H763.738V1292.49L763.433 1292.79L762.326 1293.9L762.021 1294.2H763.38C763.38 1348.91 763.375 1397.47 762.964 1427.82L762.5 1427.8L762.069 1427.79L762.365 1428.1L763.003 1428.78L763.241 1429.04H761.31V1428.57Z" fill="black" stroke="#F0F0F0" stroke-width="0.35673"></path><path d="M699.005 1309.96V1323.78H685.184V1309.96H699.005Z" fill="black" stroke="#F0F0F0" stroke-width="0.35673"></path><path d="M723.054 1309.96V1323.78H709.233V1309.96H723.054Z" fill="black" stroke="#F0F0F0" stroke-width="0.35673"></path><path d="M747.161 1309.96V1323.78H733.34V1309.96H747.161Z" fill="black" stroke="#F0F0F0" stroke-width="0.35673"></path><path d="M699.005 1334.36V1348.18H685.184V1334.36H699.005Z" fill="black" stroke="#F0F0F0" stroke-width="0.35673"></path><path d="M723.054 1334.36V1348.18H709.233V1334.36H723.054Z" fill="black" stroke="#F0F0F0" stroke-width="0.35673"></path><path d="M747.161 1334.36V1348.18H733.34V1334.36H747.161Z" fill="black" stroke="#F0F0F0" stroke-width="0.35673"></path><path d="M699.005 1358.75V1372.58H685.184V1358.75H699.005Z" fill="black" stroke="#F0F0F0" stroke-width="0.35673"></path><path d="M723.054 1358.75V1372.58H709.233V1358.75H723.054Z" fill="black" stroke="#F0F0F0" stroke-width="0.35673"></path><path d="M747.161 1358.75V1372.58H733.34V1358.75H747.161Z" fill="black" stroke="#F0F0F0" stroke-width="0.35673"></path><path d="M699.005 1383.15V1396.97H685.184V1383.15H699.005Z" fill="black" stroke="#F0F0F0" stroke-width="0.35673"></path><path d="M723.054 1383.15V1396.97H709.233V1383.15H723.054Z" fill="black" stroke="#F0F0F0" stroke-width="0.35673"></path><path d="M747.161 1383.15V1396.97H733.34V1383.15H747.161Z" fill="black" stroke="#F0F0F0" stroke-width="0.35673"></path><path d="M784.716 1309.96V1323.78H770.895V1309.96H784.716Z" fill="black" stroke="#F0F0F0" stroke-width="0.35673"></path><path d="M784.716 1334.36V1348.18H770.895V1334.36H784.716Z" fill="black" stroke="#F0F0F0" stroke-width="0.35673"></path><path d="M784.716 1358.75V1372.58H770.895V1358.75H784.716Z" fill="black" stroke="#F0F0F0" stroke-width="0.35673"></path><path d="M784.716 1383.15V1396.97H770.895V1383.15H784.716Z" fill="black" stroke="#F0F0F0" stroke-width="0.35673"></path><path d="M724.428 1406.7V1428.31H710.905V1406.7H724.428Z" fill="black" stroke="#F0F0F0" stroke-width="0.35673"></path><path d="M728.133 1427.65C755.298 1427.65 779.886 1427.74 797.684 1427.93C806.582 1428.02 813.783 1428.14 818.758 1428.28C821.245 1428.34 823.175 1428.42 824.481 1428.5C824.82 1428.52 825.116 1428.54 825.368 1428.56C825.116 1428.58 824.82 1428.6 824.481 1428.62C823.173 1428.69 821.241 1428.76 818.752 1428.82C813.774 1428.95 806.569 1429.07 797.668 1429.17C779.865 1429.38 755.276 1429.5 728.133 1429.5C700.989 1429.5 676.4 1429.38 658.598 1429.17C649.697 1429.07 642.493 1428.95 637.515 1428.82C635.025 1428.76 633.094 1428.69 631.785 1428.62C631.544 1428.6 631.325 1428.59 631.127 1428.58C631.324 1428.56 631.543 1428.55 631.783 1428.54C633.091 1428.46 635.02 1428.4 637.508 1428.33C642.483 1428.2 649.683 1428.08 658.582 1427.98C676.379 1427.78 700.968 1427.65 728.133 1427.65Z" fill="black" stroke="#F0F0F0" stroke-width="0.35673"></path></g><path d="M648.35 777.107H364.041C356.989 777.107 351.272 782.824 351.272 789.876V1043.89C351.272 1050.94 356.989 1056.66 364.041 1056.66H648.35C655.402 1056.66 661.118 1050.94 661.118 1043.89V789.876C661.118 782.824 655.402 777.107 648.35 777.107Z" fill="#EF589B"></path><path d="M752.751 803.693V831.283H746.342V819.967H733.824V831.283H727.465V803.693H733.824V814.409H746.342V803.543L752.751 803.693Z" fill="#263238"></path><path d="M757.301 820.67C757.151 818.336 757.705 816.011 758.892 813.996C760.079 811.982 761.844 810.37 763.958 809.371C766.072 808.372 768.438 808.031 770.748 808.392C773.059 808.754 775.207 809.802 776.915 811.399C778.622 812.997 779.81 815.071 780.325 817.352C780.839 819.633 780.656 822.016 779.8 824.192C778.943 826.368 777.452 828.237 775.521 829.555C773.589 830.873 771.306 831.581 768.968 831.585C767.472 831.689 765.972 831.483 764.56 830.981C763.147 830.478 761.854 829.691 760.759 828.667C759.664 827.642 758.793 826.404 758.198 825.028C757.603 823.652 757.298 822.169 757.301 820.67ZM774.326 820.67C774.238 819.622 773.847 818.622 773.199 817.793C772.552 816.964 771.678 816.342 770.682 816.002C769.687 815.663 768.614 815.621 767.595 815.882C766.576 816.143 765.656 816.695 764.946 817.471C764.236 818.247 763.768 819.213 763.599 820.251C763.43 821.289 763.567 822.354 763.994 823.315C764.421 824.276 765.119 825.092 766.002 825.663C766.886 826.234 767.916 826.534 768.968 826.528C769.718 826.539 770.462 826.391 771.151 826.094C771.839 825.797 772.457 825.357 772.963 824.803C773.47 824.25 773.853 823.595 774.088 822.883C774.322 822.17 774.404 821.416 774.326 820.67Z" fill="#263238"></path><path d="M798.37 830.236C796.885 831.203 795.132 831.676 793.363 831.588C792.315 831.739 791.246 831.648 790.239 831.323C789.231 830.999 788.311 830.449 787.548 829.715C786.786 828.981 786.2 828.083 785.837 827.088C785.473 826.094 785.342 825.03 785.451 823.977V815.265H782.146V810.558H785.351V805.551H791.51V810.558H796.768V815.265H791.51V823.927C791.457 824.291 791.485 824.661 791.594 825.012C791.703 825.363 791.89 825.684 792.14 825.954C792.389 826.223 792.696 826.432 793.038 826.567C793.38 826.701 793.747 826.758 794.114 826.731C795.012 826.735 795.888 826.455 796.617 825.93L798.37 830.236Z" fill="#263238"></path><path d="M821.848 822.424H805.775C806.114 823.737 806.91 824.887 808.021 825.667C809.131 826.447 810.483 826.806 811.834 826.68C812.818 826.708 813.798 826.541 814.718 826.189C815.637 825.836 816.478 825.306 817.191 824.627L820.446 828.182C818.777 829.767 816.701 830.857 814.448 831.331C812.196 831.804 809.856 831.642 807.691 830.863C805.525 830.084 803.618 828.719 802.184 826.919C800.749 825.119 799.843 822.956 799.566 820.671C799.551 819.199 799.836 817.74 800.405 816.382C800.973 815.024 801.813 813.797 802.872 812.775C803.932 811.753 805.189 810.958 806.566 810.439C807.943 809.92 809.412 809.687 810.882 809.755C812.352 809.676 813.822 809.907 815.197 810.432C816.572 810.957 817.821 811.765 818.864 812.803C819.907 813.842 820.721 815.087 821.252 816.46C821.783 817.832 822.02 819.301 821.948 820.771C821.948 821.222 821.848 821.873 821.848 822.424ZM805.675 818.818H816.14C815.93 817.583 815.289 816.461 814.331 815.653C813.374 814.844 812.161 814.4 810.907 814.4C809.654 814.4 808.441 814.844 807.483 815.653C806.526 816.461 805.885 817.583 805.675 818.818Z" fill="#263238"></path><path d="M826.055 802.039H832.214V831.281H826.055V802.039Z" fill="#263238"></path><path d="M863.811 808.555L866.114 813.161L871.171 813.912L867.516 817.518L868.367 822.575L863.811 820.171L859.254 822.575L860.155 817.518L856.45 813.912L861.557 813.161L863.811 808.555Z" fill="#EF589B"></path><path d="M883.64 808.555L885.893 813.161L891 813.912L887.345 817.518L888.196 822.575L883.64 820.171L879.083 822.575L879.985 817.518L876.279 813.912L881.387 813.161L883.64 808.555Z" fill="#EF589B"></path><path d="M903.466 808.555L905.769 813.161L910.827 813.912L907.171 817.518L908.023 822.575L903.466 820.171L898.909 822.575L899.811 817.518L896.105 813.912L901.213 813.161L903.466 808.555Z" fill="#EF589B"></path><path d="M923.29 808.555L925.593 813.161L930.65 813.912L926.995 817.518L927.846 822.575L923.29 820.171L918.733 822.575L919.635 817.518L915.929 813.912L921.037 813.161L923.29 808.555Z" fill="#EF589B"></path><path d="M943.121 808.555L945.425 813.161L950.482 813.912L946.827 817.518L947.678 822.575L943.121 820.171L938.565 822.575L939.466 817.518L935.761 813.912L940.868 813.161L943.121 808.555Z" fill="#EF589B"></path><path d="M946.984 858.927C946.984 859.678 898.965 860.229 839.729 860.229C780.494 860.229 732.475 859.678 732.475 858.927C732.475 858.176 780.494 857.625 839.729 857.625C898.965 857.625 946.984 858.226 946.984 858.927Z" fill="#E0E0E0"></path><path d="M1115.83 895.331C1115.83 896.032 1028.95 896.633 921.899 896.633C814.844 896.633 727.919 896.032 727.919 895.331C727.919 894.63 814.744 894.029 921.899 894.029C1029.05 894.029 1115.83 894.53 1115.83 895.331Z" fill="#263238"></path><path d="M922.289 932.579C922.289 933.28 879.628 933.881 827.153 933.881C774.677 933.881 732.016 933.28 732.016 932.579C732.016 931.878 774.627 931.277 827.153 931.277C879.678 931.277 922.289 931.828 922.289 932.579Z" fill="#263238"></path><path d="M920.641 972.385H754.501C737.881 972.385 724.408 985.858 724.408 1002.48V1014.3C724.408 1030.92 737.881 1044.39 754.501 1044.39H920.641C937.261 1044.39 950.734 1030.92 950.734 1014.3V1002.48C950.734 985.858 937.261 972.385 920.641 972.385Z" fill="#EF589B"></path><path d="M819.699 1011.44C819.699 1014.9 817.045 1016.9 811.888 1016.9H802.174V996.521H811.337C815.994 996.521 818.648 998.524 818.648 1001.83C818.654 1002.76 818.4 1003.68 817.913 1004.47C817.426 1005.27 816.727 1005.92 815.894 1006.34C817.022 1006.61 818.019 1007.27 818.713 1008.21C819.407 1009.14 819.756 1010.28 819.699 1011.44ZM805.078 998.925V1005.43H811.087C814.041 1005.43 815.743 1004.33 815.743 1002.18C815.743 1000.03 814.041 998.925 811.087 998.925H805.078ZM816.745 1011.19C816.745 1008.84 815.042 1007.79 811.738 1007.79H805.028V1014.7H811.738C815.042 1014.7 816.745 1013.55 816.745 1011.19Z" fill="white"></path><path d="M822.349 1009.19C822.319 1007.59 822.767 1006.02 823.634 1004.67C824.502 1003.33 825.75 1002.27 827.22 1001.64C828.69 1001 830.316 1000.82 831.889 1001.12C833.463 1001.41 834.913 1002.17 836.056 1003.29C837.198 1004.41 837.981 1005.84 838.305 1007.41C838.628 1008.98 838.478 1010.61 837.872 1012.09C837.267 1013.57 836.234 1014.84 834.905 1015.73C833.576 1016.62 832.012 1017.1 830.411 1017.1C829.35 1017.16 828.289 1016.99 827.296 1016.62C826.302 1016.24 825.398 1015.66 824.64 1014.92C823.882 1014.18 823.287 1013.28 822.892 1012.3C822.498 1011.31 822.313 1010.25 822.349 1009.19ZM835.568 1009.19C835.568 1007.82 835.022 1006.5 834.05 1005.53C833.078 1004.55 831.76 1004.01 830.386 1004.01C829.011 1004.01 827.693 1004.55 826.721 1005.53C825.749 1006.5 825.203 1007.82 825.203 1009.19C825.203 1010.56 825.749 1011.88 826.721 1012.85C827.693 1013.83 829.011 1014.37 830.386 1014.37C831.76 1014.37 833.078 1013.83 834.05 1012.85C835.022 1011.88 835.568 1010.56 835.568 1009.19Z" fill="white"></path><path d="M840.881 1009.19C840.861 1007.6 841.314 1006.04 842.183 1004.71C843.051 1003.38 844.295 1002.34 845.757 1001.72C847.219 1001.1 848.833 1000.92 850.394 1001.22C851.954 1001.52 853.391 1002.27 854.522 1003.39C855.652 1004.51 856.425 1005.93 856.742 1007.49C857.06 1009.05 856.907 1010.66 856.304 1012.13C855.7 1013.6 854.674 1014.86 853.354 1015.74C852.035 1016.63 850.482 1017.1 848.893 1017.1C847.836 1017.15 846.781 1016.98 845.793 1016.6C844.806 1016.22 843.908 1015.64 843.155 1014.9C842.402 1014.16 841.812 1013.27 841.421 1012.28C841.029 1011.3 840.846 1010.25 840.881 1009.19ZM854.05 1009.19C854.05 1007.82 853.504 1006.5 852.532 1005.53C851.561 1004.55 850.242 1004.01 848.868 1004.01C847.493 1004.01 846.175 1004.55 845.203 1005.53C844.231 1006.5 843.685 1007.82 843.685 1009.19C843.685 1010.56 844.231 1011.88 845.203 1012.85C846.175 1013.83 847.493 1014.37 848.868 1014.37C850.242 1014.37 851.561 1013.83 852.532 1012.85C853.504 1011.88 854.05 1010.56 854.05 1009.19Z" fill="white"></path><path d="M866.76 1009.69L863.555 1012.64V1016.85H860.751V995.268H863.555V1009.14L871.968 1001.43H875.473L869.013 1007.84L876.124 1016.85H872.669L866.76 1009.69Z" fill="white"></path><path d="M545.959 1006.89C545.898 1005.84 545.898 1004.79 545.959 1003.74C545.959 1001.58 545.959 998.731 545.959 994.925C545.959 987.064 545.959 975.948 545.659 961.978C545.659 933.737 545.308 894.03 545.058 847.313L546.259 848.464H438.654C438.354 848.464 441.108 846.011 439.956 847.162V891.176C439.956 905.496 439.956 919.466 439.956 932.886C439.956 959.774 439.956 984.66 439.956 1006.69L438.905 1005.64L517.017 1006.19H538.749H544.507C545.189 1006.12 545.877 1006.12 546.56 1006.19C545.943 1006.24 545.324 1006.24 544.707 1006.19H539.149H517.668L438.905 1006.74H437.903V1005.69C437.903 983.659 437.903 958.773 437.903 931.884C437.903 918.465 437.903 904.495 437.903 890.174V869.494C437.903 865.789 437.903 862.134 437.903 858.378V847.262C436.752 848.414 439.506 845.66 439.255 845.961H546.86H548.062V847.162C547.812 894.18 547.611 934.188 547.461 962.629C547.461 976.448 547.211 987.665 547.111 995.275C547.111 998.881 547.111 1001.73 547.111 1003.89C546.81 1004.92 546.424 1005.92 545.959 1006.89Z" fill="white"></path><path d="M524.977 826.077C525.903 833.115 526.304 840.211 526.179 847.308V848.459H524.977H510.757L509.455 847.107V841.449C509.455 839.547 509.455 837.694 509.455 835.891V825.877V824.825H510.507C515.269 824.739 520.029 825.09 524.727 825.877C520.016 826.545 515.265 826.897 510.507 826.928L511.558 825.877C511.558 828.981 511.558 832.236 511.558 835.891C511.558 837.694 511.558 839.547 511.558 841.449V847.208C512.71 848.409 509.956 845.655 510.256 845.956H524.477L523.275 847.158C523.429 840.103 523.997 833.065 524.977 826.077Z" fill="white"></path><path d="M586.162 1007.74C585.313 1007.82 584.458 1007.82 583.608 1007.74H575.797H545.754H545.003V1006.99C544.702 971.089 544.502 912.956 544.502 847.411V846.109H587.314V847.411C587.314 893.177 586.913 933.385 586.763 962.577C586.763 976.647 586.462 988.014 586.362 996.125C586.362 999.831 586.362 1002.78 586.362 1005.04C586.434 1006.04 586.434 1007.04 586.362 1008.04C586.303 1006.94 586.303 1005.84 586.362 1004.74C586.362 1002.38 586.362 999.33 586.362 995.524C586.362 987.363 586.362 975.896 586.012 961.676C586.012 932.884 585.661 893.027 585.411 847.612L586.713 848.863H546.655L547.957 847.561C547.957 913.106 547.957 971.24 547.406 1007.14L546.655 1006.34L576.047 1007.39L584.009 1007.74C584.726 1007.71 585.445 1007.71 586.162 1007.74Z" fill="white"></path><path d="M472.142 867.289H455.468V883.963H472.142V867.289Z" fill="white"></path><path d="M500.486 867.289H483.812V883.963H500.486V867.289Z" fill="white"></path><path d="M528.778 867.289H512.104V883.963H528.778V867.289Z" fill="white"></path><path d="M472.142 895.979H455.468V912.653H472.142V895.979Z" fill="white"></path><path d="M500.486 895.979H483.812V912.653H500.486V895.979Z" fill="white"></path><path d="M528.778 895.979H512.104V912.653H528.778V895.979Z" fill="white"></path><path d="M472.142 924.672H455.468V941.346H472.142V924.672Z" fill="white"></path><path d="M500.486 924.672H483.812V941.346H500.486V924.672Z" fill="white"></path><path d="M528.778 924.672H512.104V941.346H528.778V924.672Z" fill="white"></path><path d="M472.142 953.355H455.468V970.029H472.142V953.355Z" fill="white"></path><path d="M500.486 953.355H483.812V970.029H500.486V953.355Z" fill="white"></path><path d="M528.778 953.355H512.104V970.029H528.778V953.355Z" fill="white"></path><path d="M572.984 867.289H556.31V883.963H572.984V867.289Z" fill="white"></path><path d="M572.984 895.979H556.31V912.653H572.984V895.979Z" fill="white"></path><path d="M572.984 924.672H556.31V941.346H572.984V924.672Z" fill="white"></path><path d="M572.984 953.355H556.31V970.029H572.984V953.355Z" fill="white"></path><path d="M502.037 981.053H485.714V1006.89H502.037V981.053Z" fill="white"></path><path d="M621.871 1006.89C621.871 1007.59 570.097 1008.19 506.205 1008.19C442.313 1008.19 390.588 1007.59 390.588 1006.89C390.588 1006.19 442.363 1005.59 506.205 1005.59C570.047 1005.59 621.871 1006.19 621.871 1006.89Z" fill="white"></path><path d="M1135.1 1095.42C1137.16 1095.32 1139.21 1095.02 1141.21 1094.51C1147.07 1093.03 1152.19 1089.47 1155.63 1084.5C1158.14 1080.84 1159.59 1076.56 1159.84 1072.13C1159.84 1067.13 1159.84 1061.82 1159.84 1056.01C1159.84 1044.29 1159.84 1030.84 1159.84 1015.65C1159.84 954.914 1159.84 867.087 1159.39 758.581C1159.61 755.216 1159.31 751.837 1158.49 748.567C1157.58 745.351 1156.03 742.353 1153.93 739.754C1151.78 737.132 1149.11 734.991 1146.08 733.473C1143.05 731.954 1139.74 731.092 1136.35 730.941H1092.89H1000.56H796.816H329.944C325.018 730.952 320.216 732.483 316.193 735.323C312.169 738.164 309.12 742.177 307.461 746.814C306.047 751.687 305.571 756.785 306.059 761.836V777.208C306.059 797.637 306.059 817.933 306.059 838.096V957.217C306.059 996.223 306.059 1034.58 306.059 1072.08C306.425 1076.54 308.023 1080.81 310.676 1084.41C313.329 1088 316.932 1090.79 321.081 1092.46C323.14 1093.26 325.295 1093.78 327.49 1094.01C329.593 1094.01 331.947 1094.01 334.3 1094.01H402.598L783.847 1094.31L1040.72 1094.82L1110.82 1095.07L1040.72 1095.32L783.647 1095.72L402.398 1095.97H334.25C331.896 1095.97 329.643 1095.97 327.19 1095.97C324.757 1095.7 322.368 1095.13 320.079 1094.26C315.506 1092.43 311.537 1089.35 308.617 1085.38C305.698 1081.4 303.945 1076.7 303.556 1071.78C303.556 1034.19 303.556 995.806 303.556 956.616V761.335C303.556 758.731 303.556 756.328 303.556 753.574C303.642 750.87 304.166 748.198 305.108 745.663C306.949 740.498 310.345 736.031 314.828 732.875C319.311 729.719 324.661 728.029 330.144 728.037H797.016H1000.76H1093.09H1136.65C1140.3 728.223 1143.87 729.17 1147.13 730.817C1150.39 732.465 1153.27 734.775 1155.58 737.601C1157.9 740.384 1159.61 743.626 1160.59 747.115C1161.42 750.503 1161.74 753.996 1161.54 757.48C1161.54 865.986 1161.24 953.812 1161.14 1014.55C1161.14 1029.7 1161.14 1043.16 1161.14 1054.91C1161.14 1060.77 1161.14 1066.12 1161.14 1071.08C1160.79 1076.43 1158.73 1081.52 1155.27 1085.62C1151.81 1089.71 1147.13 1092.58 1141.91 1093.81C1140.42 1094.21 1138.89 1094.43 1137.36 1094.46L1135.1 1095.42Z" fill="#EF589B"></path><path d="M391.119 1.80176H1454.47C1483.73 1.80176 1507.45 25.5229 1507.45 54.7832V137.116H338.137V54.7832C338.137 25.5229 361.858 1.80176 391.119 1.80176Z" fill="#EF589B" stroke="#EF589B" stroke-width="2.68649"></path><circle cx="424.161" cy="70.373" r="18.5195" fill="#FF1500"></circle><circle cx="498.231" cy="70.373" r="18.5195" fill="#51C87F"></circle><circle cx="572.322" cy="70.373" r="18.5195" fill="#F8C52E"></circle><path d="M427.136 272.176H428.584H432.586L447.319 271.836L446.936 272.219C446.936 268.94 446.936 265.364 446.936 261.531C446.936 259.53 446.936 257.657 446.936 255.357C447.173 254.167 447.784 253.083 448.68 252.264C449.576 251.444 450.71 250.932 451.917 250.801C454.302 250.801 456.175 250.801 458.985 250.801C460.335 251.024 461.561 251.721 462.443 252.767C463.325 253.813 463.805 255.139 463.797 256.507C463.797 261.489 463.797 266.726 463.797 272.134L463.116 271.452H481.765L481.041 272.176C481.041 264.64 481.041 256.89 481.041 248.928C481.041 246.969 481.041 244.968 481.041 243.01C480.936 242.156 480.65 241.335 480.202 240.6C479.754 239.866 479.155 239.236 478.444 238.752L470.311 230.704L462.434 222.955L458.602 219.208C457.629 217.895 456.299 216.89 454.77 216.312C454.045 216.118 453.286 216.09 452.549 216.23C451.811 216.37 451.115 216.675 450.512 217.121C449.363 218.101 448.17 219.463 447.021 220.57L440.336 227.298C436.078 231.556 431.82 235.814 428.584 239.433C427.631 241.614 427.307 244.018 427.647 246.373C427.647 248.715 427.647 250.887 427.647 252.973C427.647 256.975 427.647 260.51 427.647 263.533C427.647 266.556 427.647 268.472 427.647 270.303C427.647 272.134 427.647 272.687 427.647 272.73C427.587 271.993 427.587 271.252 427.647 270.516C427.647 268.685 427.647 266.513 427.434 263.831C427.221 261.148 427.434 257.231 427.434 253.186C427.434 251.057 427.434 248.928 427.434 246.458C427.434 245.266 427.434 244.074 427.434 242.797C427.43 241.432 427.798 240.093 428.499 238.922C431.948 234.664 436.035 230.96 440.293 226.446L446.936 219.634C448.128 218.484 449.107 217.292 450.512 216.1C451.272 215.521 452.155 215.125 453.092 214.94C454.03 214.756 454.997 214.788 455.92 215.035C457.686 215.647 459.239 216.756 460.39 218.229L464.223 221.975L472.1 229.682L480.275 237.73C481.043 238.411 481.742 239.167 482.361 239.986C482.964 240.914 483.303 241.989 483.341 243.095C483.341 245.096 483.341 247.055 483.341 249.056C483.341 257.018 483.341 264.767 483.341 272.261V272.985H482.617H464.01H463.328V272.304C463.328 266.896 463.328 261.702 463.328 256.677C463.334 255.598 462.956 254.552 462.262 253.725C461.568 252.899 460.603 252.346 459.539 252.164C457.41 252.164 454.855 252.164 452.769 252.164C451.799 252.249 450.882 252.648 450.16 253.302C449.438 253.955 448.948 254.826 448.766 255.783C448.766 257.657 448.766 260.041 448.766 261.744V272.857H448.383H433.353H429.436C428.632 272.783 427.851 272.551 427.136 272.176Z" fill="#263238"></path><path d="M722.143 231.39V257.211H716.964V246.224H705.903V257.211H700.724V231.39H705.903V242.007H716.964V231.39H722.143ZM736.341 257.544C734.368 257.544 732.592 257.112 731.014 256.249C729.436 255.361 728.19 254.116 727.278 252.513C726.39 250.91 725.946 249.06 725.946 246.964C725.946 244.867 726.402 243.018 727.315 241.415C728.252 239.812 729.522 238.579 731.125 237.715C732.728 236.828 734.516 236.384 736.489 236.384C738.462 236.384 740.25 236.828 741.853 237.715C743.456 238.579 744.714 239.812 745.626 241.415C746.564 243.018 747.032 244.867 747.032 246.964C747.032 249.06 746.551 250.91 745.589 252.513C744.652 254.116 743.37 255.361 741.742 256.249C740.139 257.112 738.339 257.544 736.341 257.544ZM736.341 253.031C737.278 253.031 738.154 252.809 738.968 252.365C739.806 251.896 740.472 251.206 740.965 250.293C741.458 249.381 741.705 248.271 741.705 246.964C741.705 245.015 741.187 243.523 740.151 242.488C739.14 241.427 737.895 240.897 736.415 240.897C734.935 240.897 733.69 241.427 732.679 242.488C731.692 243.523 731.199 245.015 731.199 246.964C731.199 248.912 731.68 250.416 732.642 251.477C733.628 252.513 734.861 253.031 736.341 253.031ZM756.861 240.971V250.885C756.861 251.576 757.021 252.081 757.342 252.402C757.687 252.698 758.255 252.846 759.044 252.846H761.448V257.211H758.193C753.828 257.211 751.645 255.09 751.645 250.848V240.971H749.204V236.717H751.645V231.648H756.861V236.717H761.448V240.971H756.861ZM784.225 246.52C784.225 247.26 784.176 247.926 784.077 248.517H769.095C769.218 249.997 769.736 251.156 770.648 251.995C771.561 252.833 772.683 253.253 774.015 253.253C775.938 253.253 777.307 252.426 778.121 250.774H783.707C783.115 252.747 781.981 254.375 780.304 255.657C778.627 256.915 776.567 257.544 774.126 257.544C772.153 257.544 770.377 257.112 768.799 256.249C767.245 255.361 766.024 254.116 765.136 252.513C764.273 250.91 763.842 249.06 763.842 246.964C763.842 244.843 764.273 242.981 765.136 241.378C766 239.775 767.208 238.542 768.762 237.678C770.315 236.815 772.103 236.384 774.126 236.384C776.074 236.384 777.813 236.803 779.342 237.641C780.896 238.48 782.092 239.676 782.93 241.23C783.793 242.759 784.225 244.522 784.225 246.52ZM778.861 245.04C778.836 243.708 778.355 242.648 777.418 241.859C776.481 241.045 775.334 240.638 773.978 240.638C772.695 240.638 771.61 241.032 770.722 241.822C769.859 242.586 769.329 243.659 769.132 245.04H778.861ZM793.184 229.836V257.211H788.005V229.836H793.184ZM821.765 243.967C823.221 244.239 824.417 244.966 825.354 246.15C826.291 247.334 826.76 248.69 826.76 250.219C826.76 251.6 826.414 252.821 825.724 253.882C825.058 254.917 824.084 255.731 822.801 256.323C821.519 256.915 820.002 257.211 818.251 257.211H807.116V231.39H817.77C819.521 231.39 821.026 231.673 822.283 232.24C823.566 232.808 824.528 233.597 825.169 234.608C825.835 235.619 826.168 236.766 826.168 238.048C826.168 239.553 825.761 240.811 824.947 241.822C824.158 242.833 823.097 243.548 821.765 243.967ZM812.295 242.044H817.03C818.263 242.044 819.213 241.772 819.879 241.23C820.545 240.663 820.878 239.861 820.878 238.825C820.878 237.789 820.545 236.988 819.879 236.421C819.213 235.853 818.263 235.57 817.03 235.57H812.295V242.044ZM817.511 252.994C818.769 252.994 819.743 252.698 820.434 252.106C821.149 251.514 821.507 250.675 821.507 249.59C821.507 248.48 821.137 247.617 820.397 247.001C819.657 246.36 818.658 246.039 817.4 246.039H812.295V252.994H817.511ZM839.988 257.544C838.015 257.544 836.239 257.112 834.661 256.249C833.082 255.361 831.837 254.116 830.924 252.513C830.036 250.91 829.592 249.06 829.592 246.964C829.592 244.867 830.049 243.018 830.961 241.415C831.898 239.812 833.169 238.579 834.772 237.715C836.375 236.828 838.163 236.384 840.136 236.384C842.109 236.384 843.897 236.828 845.5 237.715C847.103 238.579 848.36 239.812 849.273 241.415C850.21 243.018 850.679 244.867 850.679 246.964C850.679 249.06 850.198 250.91 849.236 252.513C848.299 254.116 847.016 255.361 845.389 256.249C843.786 257.112 841.985 257.544 839.988 257.544ZM839.988 253.031C840.925 253.031 841.8 252.809 842.614 252.365C843.453 251.896 844.119 251.206 844.612 250.293C845.105 249.381 845.352 248.271 845.352 246.964C845.352 245.015 844.834 243.523 843.798 242.488C842.787 241.427 841.541 240.897 840.062 240.897C838.582 240.897 837.336 241.427 836.325 242.488C835.339 243.523 834.846 245.015 834.846 246.964C834.846 248.912 835.326 250.416 836.288 251.477C837.275 252.513 838.508 253.031 839.988 253.031ZM863.578 257.544C861.605 257.544 859.829 257.112 858.251 256.249C856.673 255.361 855.427 254.116 854.515 252.513C853.627 250.91 853.183 249.06 853.183 246.964C853.183 244.867 853.639 243.018 854.552 241.415C855.489 239.812 856.759 238.579 858.362 237.715C859.965 236.828 861.753 236.384 863.726 236.384C865.699 236.384 867.487 236.828 869.09 237.715C870.693 238.579 871.951 239.812 872.864 241.415C873.801 243.018 874.269 244.867 874.269 246.964C874.269 249.06 873.788 250.91 872.827 252.513C871.889 254.116 870.607 255.361 868.979 256.249C867.376 257.112 865.576 257.544 863.578 257.544ZM863.578 253.031C864.515 253.031 865.391 252.809 866.205 252.365C867.043 251.896 867.709 251.206 868.202 250.293C868.696 249.381 868.942 248.271 868.942 246.964C868.942 245.015 868.424 243.523 867.388 242.488C866.377 241.427 865.132 240.897 863.652 240.897C862.172 240.897 860.927 241.427 859.916 242.488C858.929 243.523 858.436 245.015 858.436 246.964C858.436 248.912 858.917 250.416 859.879 251.477C860.865 252.513 862.098 253.031 863.578 253.031ZM890.202 257.211L883.247 248.48V257.211H878.068V229.836H883.247V245.41L890.128 236.717H896.861L887.835 247.001L896.935 257.211H890.202ZM902.298 234.275C901.386 234.275 900.621 233.991 900.005 233.424C899.413 232.832 899.117 232.105 899.117 231.242C899.117 230.378 899.413 229.663 900.005 229.096C900.621 228.504 901.386 228.208 902.298 228.208C903.211 228.208 903.963 228.504 904.555 229.096C905.172 229.663 905.48 230.378 905.48 231.242C905.48 232.105 905.172 232.832 904.555 233.424C903.963 233.991 903.211 234.275 902.298 234.275ZM904.851 236.717V257.211H899.672V236.717H904.851ZM921.325 236.421C923.766 236.421 925.739 237.198 927.244 238.751C928.748 240.28 929.5 242.426 929.5 245.188V257.211H924.321V245.891C924.321 244.263 923.914 243.018 923.101 242.155C922.287 241.267 921.177 240.823 919.771 240.823C918.341 240.823 917.206 241.267 916.368 242.155C915.554 243.018 915.147 244.263 915.147 245.891V257.211H909.968V236.717H915.147V239.269C915.838 238.381 916.713 237.691 917.773 237.198C918.859 236.68 920.042 236.421 921.325 236.421ZM942.453 236.384C943.982 236.384 945.326 236.692 946.485 237.308C947.644 237.9 948.557 238.677 949.223 239.639V236.717H954.439V257.359C954.439 259.258 954.057 260.947 953.292 262.427C952.528 263.931 951.381 265.115 949.852 265.978C948.323 266.866 946.473 267.31 944.303 267.31C941.393 267.31 939 266.632 937.126 265.276C935.276 263.919 934.228 262.069 933.982 259.726H939.124C939.395 260.664 939.974 261.404 940.862 261.946C941.775 262.513 942.872 262.797 944.155 262.797C945.659 262.797 946.88 262.341 947.817 261.428C948.754 260.54 949.223 259.184 949.223 257.359V254.177C948.557 255.139 947.632 255.941 946.448 256.582C945.289 257.223 943.957 257.544 942.453 257.544C940.727 257.544 939.148 257.1 937.718 256.212C936.287 255.324 935.153 254.079 934.314 252.476C933.501 250.848 933.094 248.986 933.094 246.89C933.094 244.818 933.501 242.981 934.314 241.378C935.153 239.775 936.275 238.542 937.681 237.678C939.111 236.815 940.702 236.384 942.453 236.384ZM949.223 246.964C949.223 245.706 948.976 244.633 948.483 243.745C947.99 242.833 947.324 242.142 946.485 241.674C945.647 241.18 944.747 240.934 943.785 240.934C942.823 240.934 941.935 241.168 941.121 241.637C940.307 242.105 939.642 242.796 939.124 243.708C938.63 244.596 938.384 245.657 938.384 246.89C938.384 248.123 938.63 249.208 939.124 250.145C939.642 251.058 940.307 251.761 941.121 252.254C941.96 252.747 942.848 252.994 943.785 252.994C944.747 252.994 945.647 252.759 946.485 252.291C947.324 251.798 947.99 251.107 948.483 250.219C948.976 249.307 949.223 248.222 949.223 246.964ZM987.142 239.38C987.142 240.761 986.809 242.056 986.143 243.264C985.502 244.473 984.478 245.447 983.072 246.187C981.691 246.927 979.94 247.297 977.819 247.297H973.491V257.211H968.312V231.39H977.819C979.817 231.39 981.519 231.735 982.924 232.425C984.33 233.116 985.378 234.065 986.069 235.274C986.784 236.482 987.142 237.851 987.142 239.38ZM977.597 243.116C979.028 243.116 980.088 242.796 980.779 242.155C981.469 241.489 981.815 240.564 981.815 239.38C981.815 236.865 980.409 235.607 977.597 235.607H973.491V243.116H977.597ZM995.998 229.836V257.211H990.819V229.836H995.998ZM999.783 246.89C999.783 244.818 1000.19 242.981 1001 241.378C1001.84 239.775 1002.96 238.542 1004.37 237.678C1005.8 236.815 1007.39 236.384 1009.14 236.384C1010.67 236.384 1012 236.692 1013.14 237.308C1014.3 237.925 1015.22 238.702 1015.91 239.639V236.717H1021.13V257.211H1015.91V254.214C1015.25 255.176 1014.32 255.978 1013.14 256.619C1011.98 257.236 1010.63 257.544 1009.11 257.544C1007.38 257.544 1005.8 257.1 1004.37 256.212C1002.96 255.324 1001.84 254.079 1001 252.476C1000.19 250.848 999.783 248.986 999.783 246.89ZM1015.91 246.964C1015.91 245.706 1015.67 244.633 1015.17 243.745C1014.68 242.833 1014.01 242.142 1013.17 241.674C1012.34 241.18 1011.44 240.934 1010.47 240.934C1009.51 240.934 1008.62 241.168 1007.81 241.637C1007 242.105 1006.33 242.796 1005.81 243.708C1005.32 244.596 1005.07 245.657 1005.07 246.89C1005.07 248.123 1005.32 249.208 1005.81 250.145C1006.33 251.058 1007 251.761 1007.81 252.254C1008.65 252.747 1009.54 252.994 1010.47 252.994C1011.44 252.994 1012.34 252.759 1013.17 252.291C1014.01 251.798 1014.68 251.107 1015.17 250.219C1015.67 249.307 1015.91 248.222 1015.91 246.964ZM1032.22 240.971V250.885C1032.22 251.576 1032.38 252.081 1032.7 252.402C1033.04 252.698 1033.61 252.846 1034.4 252.846H1036.8V257.211H1033.55C1029.18 257.211 1027 255.09 1027 250.848V240.971H1024.56V236.717H1027V231.648H1032.22V236.717H1036.8V240.971H1032.22ZM1049.92 240.971H1046.34V257.211H1041.08V240.971H1038.75V236.717H1041.08V235.681C1041.08 233.165 1041.8 231.316 1043.23 230.132C1044.66 228.948 1046.82 228.393 1049.7 228.467V232.832C1048.45 232.808 1047.57 233.017 1047.08 233.461C1046.58 233.905 1046.34 234.707 1046.34 235.866V236.717H1049.92V240.971ZM1062.38 257.544C1060.41 257.544 1058.63 257.112 1057.05 256.249C1055.48 255.361 1054.23 254.116 1053.32 252.513C1052.43 250.91 1051.99 249.06 1051.99 246.964C1051.99 244.867 1052.44 243.018 1053.36 241.415C1054.29 239.812 1055.56 238.579 1057.17 237.715C1058.77 236.828 1060.56 236.384 1062.53 236.384C1064.5 236.384 1066.29 236.828 1067.89 237.715C1069.5 238.579 1070.75 239.812 1071.67 241.415C1072.6 243.018 1073.07 244.867 1073.07 246.964C1073.07 249.06 1072.59 250.91 1071.63 252.513C1070.69 254.116 1069.41 255.361 1067.78 256.249C1066.18 257.112 1064.38 257.544 1062.38 257.544ZM1062.38 253.031C1063.32 253.031 1064.19 252.809 1065.01 252.365C1065.85 251.896 1066.51 251.206 1067.01 250.293C1067.5 249.381 1067.75 248.271 1067.75 246.964C1067.75 245.015 1067.23 243.523 1066.19 242.488C1065.18 241.427 1063.94 240.897 1062.46 240.897C1060.98 240.897 1059.73 241.427 1058.72 242.488C1057.73 243.523 1057.24 245.015 1057.24 246.964C1057.24 248.912 1057.72 250.416 1058.68 251.477C1059.67 252.513 1060.9 253.031 1062.38 253.031ZM1082.05 239.898C1082.72 238.813 1083.58 237.962 1084.64 237.345C1085.73 236.729 1086.96 236.421 1088.34 236.421V241.859H1086.97C1085.34 241.859 1084.11 242.241 1083.27 243.005C1082.46 243.77 1082.05 245.102 1082.05 247.001V257.211H1076.87V236.717H1082.05V239.898ZM1117.28 236.421C1119.8 236.421 1121.82 237.198 1123.35 238.751C1124.9 240.28 1125.68 242.426 1125.68 245.188V257.211H1120.5V245.891C1120.5 244.288 1120.09 243.067 1119.28 242.229C1118.46 241.365 1117.35 240.934 1115.95 240.934C1114.54 240.934 1113.42 241.365 1112.58 242.229C1111.77 243.067 1111.36 244.288 1111.36 245.891V257.211H1106.18V245.891C1106.18 244.288 1105.77 243.067 1104.96 242.229C1104.15 241.365 1103.04 240.934 1101.63 240.934C1100.2 240.934 1099.07 241.365 1098.23 242.229C1097.41 243.067 1097.01 244.288 1097.01 245.891V257.211H1091.83V236.717H1097.01V239.195C1097.67 238.332 1098.52 237.654 1099.56 237.161C1100.62 236.667 1101.78 236.421 1103.04 236.421C1104.64 236.421 1106.07 236.766 1107.33 237.456C1108.59 238.122 1109.56 239.084 1110.25 240.342C1110.92 239.158 1111.88 238.209 1113.14 237.493C1114.42 236.778 1115.8 236.421 1117.28 236.421Z" fill="black"></path><path d="M1414.3 225.911C1414.3 226.337 1398.8 226.763 1379.69 226.933C1360.57 227.103 1345.11 226.933 1345.11 226.465C1345.11 225.996 1360.57 225.613 1379.69 225.485C1398.8 225.358 1414.3 225.528 1414.3 225.911Z" fill="#263238"></path><path d="M1414.43 243.621C1414.43 244.004 1398.97 244.472 1379.85 244.643C1360.73 244.813 1345.24 244.643 1345.24 244.174C1345.24 243.706 1360.73 243.323 1379.85 243.153C1398.97 242.982 1414.43 243.195 1414.43 243.621Z" fill="#263238"></path><path d="M1414.76 261.338C1414.76 261.721 1399.26 262.189 1380.15 262.317C1361.03 262.445 1345.57 262.317 1345.57 261.891C1345.57 261.465 1361.03 261.04 1380.15 260.869C1399.26 260.699 1414.76 260.912 1414.76 261.338Z" fill="#263238"></path><path d="M1492.5 603.732C1492.5 598.959 1496.37 595.09 1501.15 595.09C1505.92 595.09 1509.79 598.959 1509.79 603.732V670.402C1509.79 675.175 1505.92 679.045 1501.15 679.045C1496.37 679.045 1492.5 675.175 1492.5 670.402V603.732Z" fill="#FFDBED"></path><path d="M78.7799 650.259C78.4807 650.402 72.977 639.651 66.4376 626.271C59.8983 612.89 54.828 601.969 55.1572 601.812C55.4864 601.654 60.9458 612.39 67.4552 625.784C73.9646 639.179 79.0493 650.13 78.7799 650.259Z" fill="#263238"></path><path d="M56.3984 688.411C56.3485 688.739 44.3628 687.251 29.6199 685.142C14.8769 683.033 2.9939 681.091 3.04879 680.73C3.10367 680.369 15.0516 681.885 29.7895 684.027C44.5275 686.169 56.4433 688.116 56.3984 688.411Z" fill="#263238"></path><path d="M65.7477 670.856C65.393 671.333 52.7197 662.81 37.4228 651.758C22.1258 640.706 10.0103 631.363 10.4439 630.78C10.8775 630.197 23.5054 638.852 38.8024 649.904C54.0994 660.955 66.1419 670.327 65.7477 670.856Z" fill="#263238"></path><path d="M1294.15 99.3327C1293.9 99.2618 1293.65 99.1864 1293.4 99.1186C1289.91 98.1958 1287.73 95.9884 1286.88 92.4731C1286.84 92.3083 1286.79 92.1465 1286.73 91.9509C1286.21 91.9509 1285.69 91.9509 1285.17 91.9509C1281.62 91.9509 1278.07 91.9524 1274.51 91.9509C1272.88 91.9509 1271.55 91.0806 1270.98 89.6526C1270.39 88.1922 1270.71 86.601 1271.96 85.5088C1274.65 83.1365 1276.55 80.2775 1277.49 76.7991C1277.92 75.2109 1278.07 73.595 1278.08 71.9575C1278.09 69.3249 1278 66.6877 1278.13 64.0612C1278.43 58.3092 1281.05 53.7973 1285.8 50.5809C1287.03 49.7429 1288.48 49.2068 1289.86 48.5814C1290.22 48.4135 1290.38 48.2625 1290.38 47.8435C1290.37 46.6928 1290.33 45.5297 1290.48 44.3944C1290.79 42.033 1292.9 40.2969 1295.31 40.2969C1297.72 40.2969 1299.83 42.033 1300.13 44.3914C1300.28 45.5467 1300.23 46.7282 1300.24 47.8974C1300.24 48.2656 1300.36 48.415 1300.71 48.5413C1306.88 50.7734 1310.74 55.0897 1312.17 61.4933C1312.45 62.7349 1312.49 64.0443 1312.52 65.3244C1312.58 68.0325 1312.47 70.7468 1312.61 73.4502C1312.84 77.9884 1314.73 81.7963 1318.03 84.9142C1318.33 85.2038 1318.67 85.4703 1318.95 85.7861C1319.99 86.9691 1320.21 88.3309 1319.58 89.7512C1318.97 91.1514 1317.83 91.9309 1316.28 91.9401C1312.36 91.9632 1308.44 91.9478 1304.52 91.9494C1304.31 91.9494 1304.1 91.9494 1303.89 91.9494C1303.73 92.5162 1303.63 93.0662 1303.43 93.5776C1302.23 96.6878 1300 98.5902 1296.71 99.2202C1296.62 99.2372 1296.54 99.2942 1296.46 99.3312H1294.15V99.3327ZM1295.33 89.4831C1298.06 89.4831 1300.78 89.4831 1303.51 89.4831C1307.58 89.4831 1311.66 89.4831 1315.73 89.4831C1315.94 89.4831 1316.15 89.4754 1316.36 89.4523C1316.85 89.4015 1317.16 89.1304 1317.35 88.6806C1317.54 88.2153 1317.41 87.8087 1317.11 87.4528C1316.94 87.2495 1316.72 87.0847 1316.52 86.9029C1312.36 83.0333 1310.17 78.2656 1310.08 72.5737C1310.03 70.0951 1310.09 67.615 1310.06 65.1365C1310.04 64.1614 1309.98 63.1724 1309.8 62.2143C1308.24 53.7988 1299.97 48.5321 1291.65 50.6163C1285.17 52.2368 1280.61 58.0936 1280.55 64.8869C1280.53 67.3655 1280.56 69.8456 1280.54 72.3242C1280.51 77.7712 1278.56 82.4264 1274.73 86.2929C1274.35 86.6749 1273.93 87.0153 1273.56 87.3989C1273.21 87.7501 1273.07 88.1691 1273.26 88.6636C1273.44 89.1427 1273.78 89.4123 1274.29 89.4569C1274.54 89.4785 1274.79 89.4816 1275.04 89.4816C1281.8 89.4816 1288.56 89.4816 1295.33 89.4816L1295.33 89.4831ZM1289.34 91.9771C1289.77 94.7653 1292.58 96.9851 1295.47 96.8449C1298.41 96.7016 1301.11 94.4248 1301.24 91.9771H1289.34ZM1297.7 47.7372C1297.71 47.7033 1297.74 47.6509 1297.74 47.5986C1297.74 46.7744 1297.76 45.9503 1297.74 45.1262C1297.71 43.8722 1296.76 42.891 1295.5 42.7862C1294.26 42.683 1293.06 43.5287 1292.92 44.7472C1292.81 45.7439 1292.9 46.7636 1292.9 47.7387H1297.7L1297.7 47.7372Z" fill="black"></path><path d="M1395.56 43.6621C1403 43.6681 1409.07 49.7276 1409.07 57.1473C1409.07 64.6153 1402.98 70.6597 1395.47 70.6446C1388.09 70.6295 1382.04 64.5369 1382.05 57.1383C1382.06 49.7185 1388.14 43.6561 1395.56 43.6621ZM1405.52 57.1835C1405.55 51.7575 1401.11 47.2513 1395.69 47.2121C1390.12 47.1699 1385.63 51.5825 1385.6 57.1322C1385.58 62.5764 1390.02 67.0765 1395.48 67.1277C1400.96 67.179 1405.48 62.7061 1405.52 57.1835Z" fill="black"></path><path d="M1394.74 74.1397C1401.15 74.2182 1406.3 75.7292 1410.74 79.2612C1414.18 81.9998 1416.5 85.4654 1417.25 89.8629C1417.38 90.617 1417.42 91.3921 1417.45 92.1582C1417.49 93.2772 1416.77 94.0795 1415.74 94.1036C1414.74 94.1278 1413.94 93.3315 1413.93 92.2427C1413.89 89.5945 1413.04 87.2238 1411.51 85.0853C1409.67 82.5337 1407.25 80.6818 1404.37 79.5085C1397.36 76.6612 1390.52 77.0081 1384.02 80.9743C1380.85 82.9047 1378.57 85.6313 1377.6 89.2838C1377.34 90.2641 1377.28 91.3016 1377.18 92.315C1377.1 93.1535 1376.58 93.8774 1375.83 94.0523C1375.05 94.2363 1374.23 93.9046 1373.87 93.1867C1373.72 92.8761 1373.65 92.487 1373.65 92.1341C1373.69 88.2764 1375.08 84.9164 1377.54 81.9998C1381 77.916 1385.49 75.6146 1390.68 74.6284C1392.27 74.3237 1393.9 74.2332 1394.74 74.1367V74.1397Z" fill="black"></path><rect x="462.058" y="368.047" width="918.778" height="85.9675" rx="42.9838" fill="#FFC7E6"></rect><path d="M1328.25 408.014C1328.25 408.014 1328.25 406.925 1327.59 405.081C1326.84 402.476 1325.26 400.192 1323.09 398.586C1321.35 397.277 1319.29 396.48 1317.13 396.286C1314.96 396.092 1312.79 396.507 1310.85 397.486C1308.91 398.464 1307.28 399.967 1306.14 401.827C1304.99 403.686 1304.39 405.829 1304.39 408.014C1304.39 410.2 1304.99 412.342 1306.14 414.202C1307.28 416.061 1308.91 417.564 1310.85 418.543C1312.79 419.521 1314.96 419.937 1317.13 419.742C1319.29 419.548 1321.35 418.752 1323.09 417.442C1325.27 415.859 1326.85 413.586 1327.59 410.989C1328.13 409.146 1328.13 408.014 1328.25 408.014C1328.38 408.014 1328.25 408.308 1328.25 408.81C1328.29 409.585 1328.22 410.36 1328.05 411.115C1327.45 413.938 1325.89 416.46 1323.63 418.239C1321.95 419.578 1319.95 420.464 1317.84 420.816C1315.72 421.168 1313.54 420.973 1311.52 420.25C1309.01 419.36 1306.83 417.708 1305.29 415.52C1303.75 413.332 1302.93 410.716 1302.93 408.035C1302.93 405.354 1303.75 402.739 1305.29 400.551C1306.83 398.363 1309.01 396.71 1311.52 395.82C1313.59 394.989 1315.85 394.722 1318.05 395.046C1320.26 395.369 1322.34 396.272 1324.09 397.664C1326.36 399.436 1327.92 401.961 1328.5 404.788C1328.68 405.528 1328.75 406.29 1328.71 407.05C1328.5 407.763 1328.46 408.014 1328.25 408.014Z" fill="#263238"></path><path d="M1335.16 429.342C1332.88 427.832 1330.86 425.965 1329.17 423.811C1327.16 421.957 1325.47 419.775 1324.17 417.357C1326.48 418.847 1328.52 420.717 1330.21 422.889C1332.2 424.75 1333.88 426.931 1335.16 429.342Z" fill="#263238"></path><path d="M602.927 400.071L596.415 422.541H593.126L587.904 404.456L582.488 422.541L579.232 422.573L572.946 400.071H576.073L580.973 419.124L586.389 400.071H589.677L594.835 419.059L599.767 400.071H602.927ZM614.906 404.552C616.238 404.552 617.442 404.842 618.517 405.423C619.591 405.982 620.429 406.83 621.031 407.97C621.654 409.109 621.966 410.495 621.966 412.128V422.541H619.065V412.547C619.065 410.785 618.624 409.442 617.743 408.518C616.862 407.572 615.658 407.099 614.132 407.099C612.585 407.099 611.349 407.583 610.425 408.55C609.522 409.517 609.071 410.925 609.071 412.773V422.541H606.137V398.685H609.071V407.389C609.651 406.487 610.446 405.788 611.456 405.294C612.488 404.799 613.638 404.552 614.906 404.552ZM642.877 413.031C642.877 413.59 642.845 414.181 642.78 414.804H628.66C628.768 416.545 629.359 417.91 630.433 418.898C631.529 419.865 632.851 420.349 634.398 420.349C635.666 420.349 636.72 420.059 637.558 419.478C638.417 418.877 639.019 418.081 639.363 417.093H642.522C642.05 418.791 641.104 420.177 639.685 421.252C638.267 422.305 636.505 422.831 634.398 422.831C632.722 422.831 631.218 422.455 629.885 421.703C628.574 420.951 627.543 419.887 626.79 418.511C626.038 417.114 625.662 415.502 625.662 413.676C625.662 411.849 626.027 410.248 626.758 408.872C627.489 407.497 628.51 406.444 629.821 405.713C631.153 404.961 632.679 404.585 634.398 404.585C636.075 404.585 637.558 404.95 638.847 405.681C640.137 406.411 641.125 407.421 641.813 408.711C642.522 409.979 642.877 411.419 642.877 413.031ZM639.847 412.418C639.847 411.301 639.599 410.344 639.105 409.549C638.611 408.732 637.934 408.12 637.074 407.712C636.236 407.282 635.301 407.067 634.269 407.067C632.787 407.067 631.519 407.54 630.465 408.485C629.434 409.431 628.843 410.742 628.692 412.418H639.847ZM649.683 407.744C650.199 406.734 650.929 405.949 651.875 405.39C652.842 404.832 654.014 404.552 655.389 404.552V407.583H654.615C651.327 407.583 649.683 409.366 649.683 412.934V422.541H646.749V404.875H649.683V407.744ZM674.894 413.031C674.894 413.59 674.862 414.181 674.798 414.804H660.678C660.785 416.545 661.376 417.91 662.451 418.898C663.547 419.865 664.868 420.349 666.416 420.349C667.684 420.349 668.737 420.059 669.575 419.478C670.435 418.877 671.037 418.081 671.38 417.093H674.54C674.067 418.791 673.121 420.177 671.703 421.252C670.284 422.305 668.522 422.831 666.416 422.831C664.74 422.831 663.235 422.455 661.903 421.703C660.592 420.951 659.56 419.887 658.808 418.511C658.056 417.114 657.679 415.502 657.679 413.676C657.679 411.849 658.045 410.248 658.776 408.872C659.506 407.497 660.527 406.444 661.838 405.713C663.171 404.961 664.697 404.585 666.416 404.585C668.092 404.585 669.575 404.95 670.865 405.681C672.154 406.411 673.143 407.421 673.831 408.711C674.54 409.979 674.894 411.419 674.894 413.031ZM671.864 412.418C671.864 411.301 671.617 410.344 671.123 409.549C670.628 408.732 669.951 408.12 669.092 407.712C668.253 407.282 667.319 407.067 666.287 407.067C664.804 407.067 663.536 407.54 662.483 408.485C661.451 409.431 660.86 410.742 660.71 412.418H671.864ZM690.94 407.293V417.705C690.94 418.565 691.122 419.178 691.488 419.543C691.853 419.887 692.487 420.059 693.39 420.059H695.55V422.541H692.906C691.273 422.541 690.048 422.165 689.231 421.413C688.414 420.66 688.006 419.425 688.006 417.705V407.293H685.717V404.875H688.006V400.426H690.94V404.875H695.55V407.293H690.94ZM706.809 422.831C705.154 422.831 703.65 422.455 702.296 421.703C700.963 420.951 699.91 419.887 699.136 418.511C698.384 417.114 698.008 415.502 698.008 413.676C698.008 411.87 698.395 410.28 699.169 408.904C699.964 407.507 701.039 406.444 702.393 405.713C703.747 404.961 705.262 404.585 706.938 404.585C708.614 404.585 710.13 404.961 711.484 405.713C712.838 406.444 713.901 407.497 714.675 408.872C715.47 410.248 715.868 411.849 715.868 413.676C715.868 415.502 715.46 417.114 714.643 418.511C713.848 419.887 712.762 420.951 711.387 421.703C710.011 422.455 708.485 422.831 706.809 422.831ZM706.809 420.252C707.862 420.252 708.851 420.005 709.775 419.511C710.699 419.016 711.441 418.275 711.999 417.286C712.58 416.298 712.87 415.094 712.87 413.676C712.87 412.257 712.59 411.054 712.032 410.065C711.473 409.076 710.742 408.346 709.839 407.873C708.937 407.378 707.959 407.131 706.906 407.131C705.831 407.131 704.843 407.378 703.94 407.873C703.059 408.346 702.35 409.076 701.812 410.065C701.275 411.054 701.006 412.257 701.006 413.676C701.006 415.116 701.264 416.33 701.78 417.318C702.317 418.307 703.027 419.049 703.908 419.543C704.789 420.016 705.756 420.252 706.809 420.252ZM735.606 404.585C737.131 404.585 738.464 404.918 739.603 405.584C740.764 406.25 741.623 407.088 742.182 408.098V404.875H745.148V422.928C745.148 424.54 744.804 425.969 744.116 427.216C743.429 428.484 742.44 429.472 741.15 430.181C739.882 430.891 738.399 431.245 736.702 431.245C734.381 431.245 732.446 430.697 730.899 429.601C729.351 428.505 728.438 427.011 728.159 425.12H731.06C731.382 426.195 732.049 427.054 733.059 427.699C734.069 428.365 735.283 428.698 736.702 428.698C738.314 428.698 739.625 428.193 740.635 427.183C741.666 426.173 742.182 424.755 742.182 422.928V419.221C741.602 420.252 740.742 421.112 739.603 421.8C738.464 422.487 737.131 422.831 735.606 422.831C734.037 422.831 732.607 422.444 731.318 421.671C730.05 420.897 729.051 419.812 728.32 418.415C727.589 417.018 727.224 415.427 727.224 413.643C727.224 411.838 727.589 410.258 728.32 408.904C729.051 407.529 730.05 406.465 731.318 405.713C732.607 404.961 734.037 404.585 735.606 404.585ZM742.182 413.676C742.182 412.343 741.913 411.183 741.376 410.194C740.839 409.205 740.108 408.453 739.184 407.937C738.281 407.4 737.282 407.131 736.186 407.131C735.09 407.131 734.09 407.389 733.188 407.905C732.285 408.421 731.565 409.173 731.028 410.162C730.49 411.15 730.222 412.311 730.222 413.643C730.222 414.997 730.49 416.179 731.028 417.19C731.565 418.178 732.285 418.941 733.188 419.478C734.09 419.994 735.09 420.252 736.186 420.252C737.282 420.252 738.281 419.994 739.184 419.478C740.108 418.941 740.839 418.178 741.376 417.19C741.913 416.179 742.182 415.008 742.182 413.676ZM757.81 422.831C756.155 422.831 754.651 422.455 753.297 421.703C751.965 420.951 750.911 419.887 750.138 418.511C749.386 417.114 749.009 415.502 749.009 413.676C749.009 411.87 749.396 410.28 750.17 408.904C750.965 407.507 752.04 406.444 753.394 405.713C754.748 404.961 756.263 404.585 757.939 404.585C759.616 404.585 761.131 404.961 762.485 405.713C763.839 406.444 764.903 407.497 765.676 408.872C766.472 410.248 766.869 411.849 766.869 413.676C766.869 415.502 766.461 417.114 765.644 418.511C764.849 419.887 763.764 420.951 762.388 421.703C761.013 422.455 759.487 422.831 757.81 422.831ZM757.81 420.252C758.863 420.252 759.852 420.005 760.776 419.511C761.7 419.016 762.442 418.275 763.001 417.286C763.581 416.298 763.871 415.094 763.871 413.676C763.871 412.257 763.592 411.054 763.033 410.065C762.474 409.076 761.743 408.346 760.841 407.873C759.938 407.378 758.96 407.131 757.907 407.131C756.832 407.131 755.844 407.378 754.941 407.873C754.06 408.346 753.351 409.076 752.813 410.065C752.276 411.054 752.008 412.257 752.008 413.676C752.008 415.116 752.265 416.33 752.781 417.318C753.319 418.307 754.028 419.049 754.909 419.543C755.79 420.016 756.757 420.252 757.81 420.252ZM776.465 399.781C778.592 399.781 780.312 400.383 781.623 401.586C782.934 402.79 783.589 404.402 783.589 406.422C783.589 408.679 782.891 410.355 781.494 411.451C780.097 412.526 778.206 413.063 775.82 413.063L775.723 416.126H773.176L773.048 411.032H773.982C776.11 411.032 777.776 410.71 778.979 410.065C780.183 409.42 780.785 408.206 780.785 406.422C780.785 405.133 780.398 404.112 779.624 403.36C778.85 402.607 777.808 402.231 776.497 402.231C775.164 402.231 774.111 402.597 773.338 403.327C772.585 404.037 772.209 405.014 772.209 406.261H769.437C769.437 404.971 769.727 403.843 770.307 402.876C770.888 401.887 771.704 401.124 772.757 400.587C773.832 400.05 775.068 399.781 776.465 399.781ZM774.434 422.734C773.875 422.734 773.402 422.541 773.015 422.154C772.628 421.767 772.435 421.294 772.435 420.736C772.435 420.177 772.628 419.704 773.015 419.317C773.402 418.93 773.875 418.737 774.434 418.737C774.971 418.737 775.422 418.93 775.788 419.317C776.175 419.704 776.368 420.177 776.368 420.736C776.368 421.294 776.175 421.767 775.788 422.154C775.422 422.541 774.971 422.734 774.434 422.734Z" fill="black"></path><path d="M533.637 394.912C534.33 394.912 534.666 395.269 534.582 395.857C534.561 396.046 534.498 396.256 534.435 396.445C531.117 407.005 527.779 417.544 524.441 428.105C524.315 428.525 524.147 428.945 523.916 429.322C523.517 429.994 522.992 429.994 522.615 429.322C522.405 428.966 522.258 428.567 522.153 428.168C520.704 422.919 519.276 417.67 517.849 412.422C517.723 411.981 517.492 411.75 517.072 411.645C511.844 410.238 506.638 408.811 501.41 407.383C500.948 407.257 500.486 407.068 500.066 406.816C499.541 406.501 499.541 406.039 500.045 405.724C500.423 405.472 500.843 405.263 501.284 405.137C511.886 401.735 522.468 398.397 533.07 395.038C533.28 394.975 533.511 394.933 533.637 394.912Z" fill="black"></path><rect x="462.058" y="494.311" width="445.957" height="85.9675" rx="42.9838" fill="#FFC7E6"></rect><rect x="934.875" y="494.311" width="445.957" height="85.9675" rx="42.9838" fill="#FFC7E6"></rect><path d="M712.085 548.408C712.085 549.131 685.953 549.751 653.728 549.751C621.502 549.751 595.37 549.131 595.37 548.408C595.37 547.684 621.502 547.064 653.728 547.064C685.953 547.064 712.085 547.529 712.085 548.408Z" fill="black"></path><path d="M847.896 548.408C847.896 549.131 821.764 549.751 789.538 549.751C757.312 549.751 731.18 549.131 731.18 548.408C731.18 547.684 757.312 547.064 789.538 547.064C821.764 547.064 847.896 547.529 847.896 548.408Z" fill="black"></path><path d="M532.272 531.561V533.185H528.101V546.861H526.103V533.185H521.91V531.561H532.272ZM539.977 547.059C538.851 547.059 537.826 546.803 536.904 546.291C535.997 545.778 535.28 545.054 534.753 544.117C534.241 543.166 533.984 542.068 533.984 540.824C533.984 539.595 534.248 538.512 534.775 537.576C535.316 536.624 536.048 535.9 536.97 535.402C537.892 534.89 538.924 534.634 540.065 534.634C541.207 534.634 542.238 534.89 543.16 535.402C544.082 535.9 544.807 536.617 545.334 537.554C545.875 538.49 546.146 539.581 546.146 540.824C546.146 542.068 545.868 543.166 545.312 544.117C544.77 545.054 544.031 545.778 543.095 546.291C542.158 546.803 541.119 547.059 539.977 547.059ZM539.977 545.303C540.694 545.303 541.368 545.134 541.997 544.798C542.626 544.461 543.131 543.956 543.512 543.283C543.907 542.61 544.104 541.79 544.104 540.824C544.104 539.859 543.914 539.039 543.534 538.366C543.153 537.693 542.656 537.195 542.041 536.873C541.426 536.537 540.76 536.368 540.043 536.368C539.311 536.368 538.638 536.537 538.024 536.873C537.424 537.195 536.941 537.693 536.575 538.366C536.209 539.039 536.026 539.859 536.026 540.824C536.026 541.805 536.202 542.632 536.553 543.305C536.919 543.978 537.402 544.483 538.002 544.82C538.602 545.142 539.26 545.303 539.977 545.303ZM549.409 546.993C549.029 546.993 548.707 546.861 548.443 546.598C548.18 546.334 548.048 546.013 548.048 545.632C548.048 545.252 548.18 544.93 548.443 544.666C548.707 544.403 549.029 544.271 549.409 544.271C549.775 544.271 550.082 544.403 550.331 544.666C550.594 544.93 550.726 545.252 550.726 545.632C550.726 546.013 550.594 546.334 550.331 546.598C550.082 546.861 549.775 546.993 549.409 546.993ZM549.409 537.598C549.029 537.598 548.707 537.466 548.443 537.202C548.18 536.939 548.048 536.617 548.048 536.236C548.048 535.856 548.18 535.534 548.443 535.271C548.707 535.007 549.029 534.875 549.409 534.875C549.775 534.875 550.082 535.007 550.331 535.271C550.594 535.534 550.726 535.856 550.726 536.236C550.726 536.617 550.594 536.939 550.331 537.202C550.082 537.466 549.775 537.598 549.409 537.598Z" fill="black"></path><path d="M968.189 538.465C968.189 536.768 968.572 535.245 969.338 533.897C970.103 532.533 971.143 531.468 972.458 530.702C973.789 529.937 975.261 529.554 976.875 529.554C978.772 529.554 980.428 530.012 981.842 530.927C983.257 531.842 984.288 533.14 984.937 534.821H982.217C981.734 533.773 981.035 532.965 980.12 532.4C979.222 531.834 978.14 531.551 976.875 531.551C975.661 531.551 974.571 531.834 973.606 532.4C972.641 532.965 971.883 533.773 971.334 534.821C970.785 535.852 970.511 537.067 970.511 538.465C970.511 539.846 970.785 541.061 971.334 542.109C971.883 543.141 972.641 543.939 973.606 544.505C974.571 545.071 975.661 545.354 976.875 545.354C978.14 545.354 979.222 545.079 980.12 544.53C981.035 543.964 981.734 543.157 982.217 542.109H984.937C984.288 543.773 983.257 545.063 981.842 545.978C980.428 546.876 978.772 547.326 976.875 547.326C975.261 547.326 973.789 546.951 972.458 546.202C971.143 545.437 970.103 544.38 969.338 543.032C968.572 541.685 968.189 540.162 968.189 538.465ZM995.107 533.248C996.139 533.248 997.071 533.473 997.903 533.922C998.735 534.355 999.384 535.012 999.85 535.894C1000.33 536.776 1000.57 537.849 1000.57 539.114V547.176H998.327V539.438C998.327 538.074 997.986 537.034 997.304 536.318C996.622 535.586 995.69 535.22 994.508 535.22C993.31 535.22 992.353 535.595 991.638 536.343C990.939 537.092 990.59 538.182 990.59 539.613V547.176H988.318V528.706H990.59V535.445C991.039 534.746 991.655 534.205 992.437 533.822C993.235 533.44 994.126 533.248 995.107 533.248ZM1016.76 539.813C1016.76 540.245 1016.74 540.703 1016.69 541.185H1005.76C1005.84 542.533 1006.3 543.59 1007.13 544.355C1007.98 545.104 1009 545.479 1010.2 545.479C1011.18 545.479 1012 545.254 1012.65 544.805C1013.31 544.339 1013.78 543.723 1014.04 542.958H1016.49C1016.12 544.272 1015.39 545.345 1014.29 546.177C1013.19 546.993 1011.83 547.4 1010.2 547.4C1008.9 547.4 1007.74 547.109 1006.7 546.527C1005.69 545.944 1004.89 545.121 1004.31 544.056C1003.73 542.974 1003.44 541.726 1003.44 540.312C1003.44 538.898 1003.72 537.658 1004.28 536.593C1004.85 535.528 1005.64 534.713 1006.65 534.147C1007.69 533.565 1008.87 533.273 1010.2 533.273C1011.5 533.273 1012.65 533.556 1013.64 534.122C1014.64 534.688 1015.41 535.47 1015.94 536.468C1016.49 537.45 1016.76 538.565 1016.76 539.813ZM1014.42 539.338C1014.42 538.473 1014.23 537.733 1013.84 537.117C1013.46 536.485 1012.94 536.011 1012.27 535.694C1011.62 535.362 1010.9 535.195 1010.1 535.195C1008.95 535.195 1007.97 535.561 1007.15 536.293C1006.36 537.026 1005.9 538.041 1005.78 539.338H1014.42ZM1018.91 540.312C1018.91 538.898 1019.2 537.666 1019.76 536.618C1020.33 535.553 1021.11 534.729 1022.11 534.147C1023.12 533.565 1024.28 533.273 1025.58 533.273C1027.26 533.273 1028.64 533.681 1029.72 534.496C1030.82 535.312 1031.54 536.443 1031.89 537.891H1029.45C1029.21 537.059 1028.76 536.402 1028.07 535.919C1027.41 535.436 1026.58 535.195 1025.58 535.195C1024.28 535.195 1023.23 535.644 1022.43 536.543C1021.63 537.425 1021.23 538.681 1021.23 540.312C1021.23 541.959 1021.63 543.232 1022.43 544.131C1023.23 545.029 1024.28 545.479 1025.58 545.479C1026.58 545.479 1027.41 545.246 1028.07 544.78C1028.74 544.314 1029.2 543.648 1029.45 542.783H1031.89C1031.53 544.181 1030.79 545.304 1029.7 546.152C1028.6 546.984 1027.22 547.4 1025.58 547.4C1024.28 547.4 1023.12 547.109 1022.11 546.527C1021.11 545.944 1020.33 545.121 1019.76 544.056C1019.2 542.991 1018.91 541.743 1018.91 540.312ZM1042.56 547.176L1037.19 541.136V547.176H1034.92V528.706H1037.19V539.563L1042.46 533.498H1045.63L1039.19 540.312L1045.66 547.176H1042.56ZM1057.25 537.067V538.989H1047.29V537.067H1057.25ZM1063.79 529.779V547.176H1061.52V529.779H1063.79ZM1074.32 533.248C1075.99 533.248 1077.33 533.756 1078.37 534.771C1079.4 535.769 1079.91 537.217 1079.91 539.114V547.176H1077.67V539.438C1077.67 538.074 1077.33 537.034 1076.64 536.318C1075.96 535.586 1075.03 535.22 1073.85 535.22C1072.65 535.22 1071.69 535.595 1070.98 536.343C1070.28 537.092 1069.93 538.182 1069.93 539.613V547.176H1067.66V533.498H1069.93V535.445C1070.38 534.746 1070.99 534.205 1071.75 533.822C1072.53 533.44 1073.39 533.248 1074.32 533.248Z" fill="black"></path><path d="M1105.84 541.9C1105.96 541.745 1106.03 541.632 1106.12 541.546C1109.14 538.52 1112.16 535.494 1115.19 532.481C1115.38 532.296 1115.63 532.14 1115.89 532.071C1116.28 531.959 1116.71 532.192 1116.92 532.546C1117.13 532.904 1117.1 533.353 1116.85 533.686C1116.78 533.776 1116.69 533.858 1116.61 533.94C1113.3 537.243 1110 540.545 1106.7 543.847C1106.08 544.464 1105.56 544.464 1104.95 543.847C1101.62 540.527 1098.3 537.204 1094.98 533.876C1094.34 533.241 1094.53 532.3 1095.34 532.084C1095.74 531.976 1096.08 532.093 1096.36 532.378C1096.94 532.956 1097.52 533.535 1098.1 534.113C1100.58 536.595 1103.07 539.077 1105.55 541.559C1105.63 541.641 1105.7 541.736 1105.85 541.9H1105.84Z" fill="black"></path><path d="M1175.05 538.465C1175.05 536.768 1175.43 535.245 1176.2 533.897C1176.96 532.533 1178 531.468 1179.32 530.702C1180.65 529.937 1182.12 529.554 1183.74 529.554C1185.63 529.554 1187.29 530.012 1188.7 530.927C1190.12 531.842 1191.15 533.14 1191.8 534.821H1189.08C1188.59 533.773 1187.9 532.965 1186.98 532.4C1186.08 531.834 1185 531.551 1183.74 531.551C1182.52 531.551 1181.43 531.834 1180.47 532.4C1179.5 532.965 1178.74 533.773 1178.19 534.821C1177.65 535.852 1177.37 537.067 1177.37 538.465C1177.37 539.846 1177.65 541.061 1178.19 542.109C1178.74 543.141 1179.5 543.939 1180.47 544.505C1181.43 545.071 1182.52 545.354 1183.74 545.354C1185 545.354 1186.08 545.079 1186.98 544.53C1187.9 543.964 1188.59 543.157 1189.08 542.109H1191.8C1191.15 543.773 1190.12 545.063 1188.7 545.978C1187.29 546.876 1185.63 547.326 1183.74 547.326C1182.12 547.326 1180.65 546.951 1179.32 546.202C1178 545.437 1176.96 544.38 1176.2 543.032C1175.43 541.685 1175.05 540.162 1175.05 538.465ZM1201.97 533.248C1203 533.248 1203.93 533.473 1204.76 533.922C1205.6 534.355 1206.24 535.012 1206.71 535.894C1207.19 536.776 1207.43 537.849 1207.43 539.114V547.176H1205.19V539.438C1205.19 538.074 1204.85 537.034 1204.16 536.318C1203.48 535.586 1202.55 535.22 1201.37 535.22C1200.17 535.22 1199.21 535.595 1198.5 536.343C1197.8 537.092 1197.45 538.182 1197.45 539.613V547.176H1195.18V528.706H1197.45V535.445C1197.9 534.746 1198.51 534.205 1199.3 533.822C1200.1 533.44 1200.99 533.248 1201.97 533.248ZM1223.62 539.813C1223.62 540.245 1223.6 540.703 1223.55 541.185H1212.62C1212.7 542.533 1213.16 543.59 1213.99 544.355C1214.84 545.104 1215.86 545.479 1217.06 545.479C1218.04 545.479 1218.86 545.254 1219.51 544.805C1220.17 544.339 1220.64 543.723 1220.9 542.958H1223.35C1222.98 544.272 1222.25 545.345 1221.15 546.177C1220.05 546.993 1218.69 547.4 1217.06 547.4C1215.76 547.4 1214.6 547.109 1213.57 546.527C1212.55 545.944 1211.75 545.121 1211.17 544.056C1210.59 542.974 1210.3 541.726 1210.3 540.312C1210.3 538.898 1210.58 537.658 1211.14 536.593C1211.71 535.528 1212.5 534.713 1213.52 534.147C1214.55 533.565 1215.73 533.273 1217.06 533.273C1218.36 533.273 1219.51 533.556 1220.5 534.122C1221.5 534.688 1222.27 535.47 1222.8 536.468C1223.35 537.45 1223.62 538.565 1223.62 539.813ZM1221.28 539.338C1221.28 538.473 1221.09 537.733 1220.7 537.117C1220.32 536.485 1219.8 536.011 1219.13 535.694C1218.48 535.362 1217.76 535.195 1216.96 535.195C1215.81 535.195 1214.83 535.561 1214.01 536.293C1213.22 537.026 1212.76 538.041 1212.64 539.338H1221.28ZM1225.77 540.312C1225.77 538.898 1226.06 537.666 1226.62 536.618C1227.19 535.553 1227.97 534.729 1228.97 534.147C1229.98 533.565 1231.14 533.273 1232.44 533.273C1234.12 533.273 1235.5 533.681 1236.58 534.496C1237.68 535.312 1238.4 536.443 1238.75 537.891H1236.31C1236.07 537.059 1235.62 536.402 1234.93 535.919C1234.27 535.436 1233.44 535.195 1232.44 535.195C1231.14 535.195 1230.09 535.644 1229.29 536.543C1228.49 537.425 1228.09 538.681 1228.09 540.312C1228.09 541.959 1228.49 543.232 1229.29 544.131C1230.09 545.029 1231.14 545.479 1232.44 545.479C1233.44 545.479 1234.27 545.246 1234.93 544.78C1235.6 544.314 1236.06 543.648 1236.31 542.783H1238.75C1238.39 544.181 1237.65 545.304 1236.56 546.152C1235.46 546.984 1234.08 547.4 1232.44 547.4C1231.14 547.4 1229.98 547.109 1228.97 546.527C1227.97 545.944 1227.19 545.121 1226.62 544.056C1226.06 542.991 1225.77 541.743 1225.77 540.312ZM1249.42 547.176L1244.05 541.136V547.176H1241.78V528.706H1244.05V539.563L1249.32 533.498H1252.49L1246.05 540.312L1252.52 547.176H1249.42ZM1264.11 537.067V538.989H1254.15V537.067H1264.11ZM1276.26 547.35C1274.65 547.35 1273.18 546.976 1271.84 546.227C1270.51 545.462 1269.46 544.405 1268.68 543.057C1267.91 541.693 1267.53 540.162 1267.53 538.465C1267.53 536.768 1267.91 535.245 1268.68 533.897C1269.46 532.533 1270.51 531.476 1271.84 530.727C1273.18 529.962 1274.65 529.579 1276.26 529.579C1277.89 529.579 1279.37 529.962 1280.71 530.727C1282.04 531.476 1283.09 532.525 1283.85 533.872C1284.62 535.22 1285 536.751 1285 538.465C1285 540.179 1284.62 541.71 1283.85 543.057C1283.09 544.405 1282.04 545.462 1280.71 546.227C1279.37 546.976 1277.89 547.35 1276.26 547.35ZM1276.26 545.379C1277.48 545.379 1278.57 545.096 1279.53 544.53C1280.51 543.964 1281.28 543.157 1281.83 542.109C1282.39 541.061 1282.68 539.846 1282.68 538.465C1282.68 537.067 1282.39 535.852 1281.83 534.821C1281.28 533.773 1280.52 532.965 1279.56 532.4C1278.59 531.834 1277.49 531.551 1276.26 531.551C1275.03 531.551 1273.93 531.834 1272.97 532.4C1272 532.965 1271.24 533.773 1270.67 534.821C1270.12 535.852 1269.85 537.067 1269.85 538.465C1269.85 539.846 1270.12 541.061 1270.67 542.109C1271.24 543.157 1272 543.964 1272.97 544.53C1273.95 545.096 1275.05 545.379 1276.26 545.379ZM1300.13 533.498V547.176H1297.86V545.154C1297.42 545.853 1296.82 546.402 1296.03 546.801C1295.27 547.184 1294.42 547.375 1293.49 547.375C1292.42 547.375 1291.47 547.159 1290.62 546.727C1289.77 546.277 1289.1 545.612 1288.6 544.73C1288.11 543.848 1287.87 542.775 1287.87 541.51V533.498H1290.12V541.21C1290.12 542.558 1290.46 543.598 1291.14 544.33C1291.82 545.046 1292.76 545.404 1293.94 545.404C1295.15 545.404 1296.11 545.029 1296.81 544.28C1297.51 543.532 1297.86 542.442 1297.86 541.011V533.498H1300.13ZM1306.73 535.37V543.432C1306.73 544.097 1306.87 544.572 1307.16 544.855C1307.44 545.121 1307.93 545.254 1308.63 545.254H1310.3V547.176H1308.26C1306.99 547.176 1306.04 546.885 1305.41 546.302C1304.78 545.72 1304.46 544.763 1304.46 543.432V535.37H1302.69V533.498H1304.46V530.054H1306.73V533.498H1310.3V535.37H1306.73Z" fill="black"></path><path d="M1335.7 541.9C1335.82 541.745 1335.89 541.632 1335.98 541.546C1339 538.52 1342.02 535.494 1345.05 532.481C1345.24 532.296 1345.49 532.14 1345.75 532.071C1346.14 531.959 1346.57 532.192 1346.78 532.546C1346.99 532.904 1346.96 533.353 1346.71 533.686C1346.64 533.776 1346.55 533.858 1346.47 533.94C1343.16 537.243 1339.86 540.545 1336.56 543.847C1335.94 544.464 1335.42 544.464 1334.81 543.847C1331.48 540.527 1328.16 537.204 1324.84 533.876C1324.2 533.241 1324.39 532.3 1325.2 532.084C1325.6 531.976 1325.94 532.093 1326.22 532.378C1326.8 532.956 1327.38 533.535 1327.96 534.113C1330.44 536.595 1332.93 539.077 1335.41 541.559C1335.49 541.641 1335.56 541.736 1335.71 541.9H1335.7Z" fill="black"></path></svg>