<?xml version="1.0" encoding="UTF-8" standalone="no"?>
<!-- Created with Inkscape (http://www.inkscape.org/) -->

<svg
   version="1.1"
   id="svg1"
   width="666.66669"
   height="666.66669"
   viewBox="0 0 666.66669 666.66669"
   xmlns="http://www.w3.org/2000/svg"
   xmlns:svg="http://www.w3.org/2000/svg">
  <defs
     id="defs1">
    <clipPath
       clipPathUnits="userSpaceOnUse"
       id="clipPath2">
      <path
         d="M 0,500 H 500 V 0 H 0 Z"
         transform="translate(-155.4624,-212.3133)"
         id="path2" />
    </clipPath>
    <linearGradient
       x1="0"
       y1="0"
       x2="1"
       y2="0"
       gradientUnits="userSpaceOnUse"
       gradientTransform="matrix(198.93474,0,0,-198.93474,251.06526,198.27731)"
       spreadMethod="pad"
       id="linearGradient5">
      <stop
         style="stop-opacity:1;stop-color:#f58441"
         offset="0"
         id="stop2" />
      <stop
         style="stop-opacity:1;stop-color:#f36218"
         offset="0.5"
         id="stop3" />
      <stop
         style="stop-opacity:1;stop-color:#d55220"
         offset="0.796482"
         id="stop4" />
      <stop
         style="stop-opacity:1;stop-color:#d35120"
         offset="1"
         id="stop5" />
    </linearGradient>
    <linearGradient
       x1="0"
       y1="0"
       x2="1"
       y2="0"
       gradientUnits="userSpaceOnUse"
       gradientTransform="matrix(204.71278,-156.6145,-156.6145,-204.71278,61.485855,380.077)"
       spreadMethod="pad"
       id="linearGradient8">
      <stop
         style="stop-opacity:1;stop-color:#f0531c"
         offset="0"
         id="stop6" />
      <stop
         style="stop-opacity:1;stop-color:#f0531c"
         offset="0.457286"
         id="stop7" />
      <stop
         style="stop-opacity:1;stop-color:#691c2e"
         offset="1"
         id="stop8" />
    </linearGradient>
    <clipPath
       clipPathUnits="userSpaceOnUse"
       id="clipPath10">
      <path
         d="M 0,500 H 500 V 0 H 0 Z"
         transform="translate(-248.53611,-381.47721)"
         id="path10" />
    </clipPath>
    <clipPath
       clipPathUnits="userSpaceOnUse"
       id="clipPath14">
      <path
         d="M 0,500 H 500 V 0 H 0 Z"
         transform="translate(-440.24771,-384.10401)"
         id="path14" />
    </clipPath>
    <clipPath
       clipPathUnits="userSpaceOnUse"
       id="clipPath16">
      <path
         d="M 0,500 H 500 V 0 H 0 Z"
         transform="translate(-440.24771,-384.10401)"
         id="path16" />
    </clipPath>
  </defs>
  <g
     id="layer-MC0">
    <path
       id="path1"
       d="m 0,0 c -1.125,-0.319 -2.437,-1.353 -3.288,-2.101 -24.262,-21.338 -66.469,-62.203 -28.327,-93.513 35.358,-29.025 65.666,14.532 88.774,36.774 11.919,11.472 24.644,22.247 36.421,33.623 21.215,20.493 41.764,41.746 62.723,62.517 11.815,-12.276 23.773,-24.288 35.409,-36.775 -20.286,-18.811 -39.024,-39.351 -58.677,-58.839 -12.193,-12.091 -24.619,-23.786 -36.926,-35.724 -38.014,-36.875 -71.954,-86.567 -131.265,-61.467 -19.478,8.244 -58.43,48.032 -65.505,68.559 -8.193,23.768 -3.704,50.856 11.634,70.397 14.726,18.761 36.98,35.975 53.113,53.849 C -24.018,24.814 -11.945,12.442 0,0"
       style="fill:#2b2a2e;fill-opacity:1;fill-rule:nonzero;stroke:none"
       transform="matrix(1.3333333,0,0,-1.3333333,207.2832,383.58227)"
       clip-path="url(#clipPath2)" />
    <path
       id="path5"
       d="m 251.065,312.131 c 20.741,-20.303 40.559,-41.589 60.7,-62.518 v 0 c 11.816,-12.276 23.773,-24.288 35.409,-36.775 v 0 c 11.674,-12.527 38.872,-36.768 42.49,-52.797 v 0 c 6.814,-30.186 -15.731,-56.104 -45.272,-51.748 v 0 c -23.063,3.401 -38.802,31.496 -55.895,45.706 v 0 c -12.192,-12.091 -24.618,-23.785 -36.926,-35.724 v 0 l 50.836,-52.01 c 49.145,-37.358 102.552,-3.244 133.288,40.714 v 0 c 41.874,59.887 -17.929,106.461 -54.631,144.736 v 0 c -11.202,11.683 -24.176,24.144 -35.913,36.249 v 0 c -18.937,19.531 -38.411,38.578 -57.16,58.315 v 0 c -12.074,-11.707 -24.928,-22.552 -36.926,-34.148"
       transform="matrix(1.3333333,0,0,-1.3333333,0,666.66667)"
       style="fill:url(#linearGradient5);stroke:none" />
    <path
       id="path8"
       d="M 98.809,428.759 C 93.464,426.414 62.803,391.838 59.354,385.418 v 0 C 27.495,326.109 84.409,286.494 119.548,249.613 v 0 c 11.896,-12.485 23.969,-24.858 35.914,-37.299 v 0 c 18.94,-19.728 37.695,-39.663 57.159,-58.841 v 0 c 11.92,11.473 24.644,22.247 36.421,33.623 v 0 c -19.874,21.204 -40.569,41.583 -60.7,62.517 v 0 c -11.911,12.386 -23.728,24.668 -35.409,37.301 v 0 c -12.752,13.79 -40.707,38.68 -43.502,57 v 0 c -5.804,38.047 34.41,61.219 64.241,39.665 v 0 l 3.289,-1.577 c -4.305,27.463 -27.891,49.095 -55.137,49.909 v 0 c -0.239,0.007 -0.499,0.011 -0.777,0.011 v 0 c -5.463,-0.001 -18.116,-1.354 -22.238,-3.163"
       transform="matrix(1.3333333,0,0,-1.3333333,0,666.66667)"
       style="fill:url(#linearGradient8);stroke:none" />
    <path
       id="path9"
       d="m 0,0 c -12.438,-12.096 -25.115,-24.027 -37.432,-36.249 -12.216,10.93 -24.457,28.976 -37.432,38.35 l 3.288,-1.576 c -4.304,27.462 -27.891,49.095 -55.136,49.909 -4.927,0.147 -18.682,-1.251 -23.015,-3.152 19.665,19.262 49.934,25.232 75.622,17.337 C -44.375,55.481 -23.22,19.911 0,0"
       style="fill:#f0531c;fill-opacity:1;fill-rule:nonzero;stroke:none"
       transform="matrix(1.3333333,0,0,-1.3333333,331.38147,158.0304)"
       clip-path="url(#clipPath10)" />
    <path
       id="path13"
       d="m 0,0 c -21.139,13.562 -47.359,15.149 -69.299,2.627 -35.412,20.385 -60.542,-18.721 -82.957,-40.452 -12.075,-11.707 -24.929,-22.552 -36.926,-34.148 -21.22,-20.51 -42.15,-41.313 -62.724,-62.518 -11.911,12.386 -23.728,24.668 -35.408,37.301 20.36,18.214 38.721,39.014 58.171,58.314 12.317,12.222 24.994,24.153 37.431,36.249 37.649,36.615 71.953,86.533 130.759,61.992 C -43.152,51.936 -9.19,17.52 0,0"
       style="fill:#2b2a2e;fill-opacity:1;fill-rule:nonzero;stroke:none"
       transform="matrix(1.3333333,0,0,-1.3333333,586.99693,154.528)"
       clip-path="url(#clipPath14)" />
    <path
       id="path15"
       d="m 0,0 c 14.705,-28.035 10.414,-57.66 -9.105,-81.693 l -50.078,-50.696 c -11.202,11.683 -24.177,24.144 -35.914,36.249 12.096,14.11 39.78,33.774 44.008,52.273 4.037,17.664 -2.602,37.509 -18.21,46.494 C -47.359,15.149 -21.139,13.562 0,0"
       style="fill:#000000;fill-opacity:1;fill-rule:nonzero;stroke:none"
       transform="matrix(1.3333333,0,0,-1.3333333,586.99693,154.528)"
       clip-path="url(#clipPath16)" />
  </g>
</svg>
