<?xml version="1.0" encoding="UTF-8"?>
<svg id="Layer_1" data-name="Layer 1" xmlns="http://www.w3.org/2000/svg" xmlns:xlink="http://www.w3.org/1999/xlink" viewBox="0 0 500 500">
  <defs>
    <style>
      .cls-1 {
        fill: url(#linear-gradient-2);
      }

      .cls-2 {
        fill: #fff;
      }

      .cls-3 {
        fill: none;
      }

      .cls-4 {
        fill: #f06623;
      }

      .cls-5 {
        fill: #2f2f34;
      }

      .cls-6 {
        fill: url(#linear-gradient);
      }
    </style>
    <linearGradient id="linear-gradient" x1="251.07" y1="301.72" x2="450" y2="301.72" gradientUnits="userSpaceOnUse">
      <stop offset="0" stop-color="#f69453"/>
      <stop offset=".5" stop-color="#f37521"/>
      <stop offset=".8" stop-color="#d66329"/>
      <stop offset="1" stop-color="#d4622a"/>
    </linearGradient>
    <linearGradient id="linear-gradient-2" x1="61.49" y1="119.92" x2="266.2" y2="276.54" gradientUnits="userSpaceOnUse">
      <stop offset=".46" stop-color="#f06623"/>
      <stop offset="1" stop-color="#6e2231"/>
    </linearGradient>
  </defs>
  <path class="cls-5" d="M155.46,287.69c-1.13.32-2.44,1.35-3.29,2.1-24.26,21.34-66.47,62.2-28.33,93.51,35.36,29.02,65.67-14.53,88.77-36.77,11.92-11.47,24.64-22.25,36.42-33.62,21.22-20.49,41.76-41.75,62.72-62.52,11.81,12.28,23.77,24.29,35.41,36.77-20.29,18.81-39.02,39.35-58.68,58.84-12.19,12.09-24.62,23.79-36.93,35.72-38.01,36.87-71.95,86.57-131.26,61.47-19.48-8.24-58.43-48.03-65.51-68.56-8.19-23.77-3.7-50.86,11.63-70.4s36.98-35.97,53.11-53.85c11.9,12.49,23.97,24.86,35.91,37.3Z"/>
  <path class="cls-6" d="M345.15,212.04c11.74,12.11,24.71,24.57,35.91,36.25,36.7,38.27,96.5,84.85,54.63,144.74-30.74,43.96-84.14,78.07-133.29,40.71l-50.84-52.01c12.31-11.94,24.73-23.63,36.93-35.72,17.09,14.21,32.83,42.31,55.89,45.71,29.54,4.36,52.09-21.56,45.27-51.75-3.62-16.03-30.82-40.27-42.49-52.8-11.64-12.49-23.59-24.5-35.41-36.77-20.14-20.93-39.96-42.21-60.7-62.52,12-11.6,24.85-22.44,36.93-34.15,18.75,19.74,38.22,38.78,57.16,58.31Z"/>
  <path class="cls-1" d="M173.67,116.42c-29.83-21.55-70.05,1.62-64.24,39.66,2.79,18.32,30.75,43.21,43.5,57,11.68,12.63,23.5,24.91,35.41,37.3,20.13,20.93,40.83,41.31,60.7,62.52-11.78,11.38-24.5,22.15-36.42,33.62-19.46-19.18-38.22-39.11-57.16-58.84-11.95-12.44-24.02-24.81-35.91-37.3-35.14-36.88-92.05-76.5-60.19-135.8,3.45-6.42,34.11-41,39.46-43.34,4.33-1.9,18.09-3.3,23.02-3.15,27.25.81,50.83,22.45,55.14,49.91l-3.29-1.58Z"/>
  <path class="cls-4" d="M248.54,118.52c-12.44,12.1-25.11,24.03-37.43,36.25-12.22-10.93-24.46-28.98-37.43-38.35l3.29,1.58c-4.3-27.46-27.89-49.09-55.14-49.91-4.93-.15-18.68,1.25-23.02,3.15,19.67-19.26,49.93-25.23,75.62-17.34,29.73,9.14,50.88,44.71,74.1,64.62Z"/>
  <path class="cls-2" d="M251.07,187.87c20.74,20.3,40.56,41.59,60.7,62.52-20.96,20.77-41.51,42.02-62.72,62.52-19.87-21.2-40.57-41.58-60.7-62.52,20.57-21.2,41.5-42.01,62.72-62.52Z"/>
  <path class="cls-5" d="M440.25,115.9c-21.14-13.56-47.36-15.15-69.3-2.63-35.41-20.38-60.54,18.72-82.96,40.45-12.07,11.71-24.93,22.55-36.93,34.15-21.22,20.51-42.15,41.31-62.72,62.52-11.91-12.39-23.73-24.67-35.41-37.3,20.36-18.21,38.72-39.01,58.17-58.31,12.32-12.22,24.99-24.15,37.43-36.25,37.65-36.61,71.95-86.53,130.76-61.99,17.8,7.43,51.76,41.85,60.95,59.36Z"/>
  <path d="M440.25,115.9c14.7,28.03,10.41,57.66-9.11,81.69l-50.08,50.7c-11.2-11.68-24.18-24.14-35.91-36.25,12.1-14.11,39.78-33.77,44.01-52.27,4.04-17.66-2.6-37.51-18.21-46.49,21.94-12.52,48.16-10.93,69.3,2.63Z"/>
  <path class="cls-2" d="M288.5,346c19.65-19.49,38.39-40.03,58.68-58.84,11.67,12.53,38.87,36.77,42.49,52.8,6.81,30.19-15.73,56.1-45.27,51.75-23.06-3.4-38.8-31.5-55.89-45.71Z"/>
  <path class="cls-2" d="M370.95,113.27c15.61,8.98,22.25,28.83,18.21,46.49-4.23,18.5-31.91,38.16-44.01,52.27-18.94-19.53-38.41-38.58-57.16-58.31,22.42-21.73,47.54-60.84,82.96-40.45Z"/>
  <g>
    <path class="cls-2" d="M155.46,287.69c18.94,19.73,37.69,39.66,57.16,58.84-23.11,22.24-53.42,65.8-88.77,36.77-38.14-31.31,4.07-72.18,28.33-93.51.85-.75,2.16-1.78,3.29-2.1Z"/>
    <path class="cls-2" d="M173.67,116.42c12.97,9.37,25.22,27.42,37.43,38.35-19.45,19.3-37.81,40.1-58.17,58.31-12.75-13.79-40.71-38.68-43.5-57-5.8-38.05,34.41-61.22,64.24-39.66Z"/>
  </g>
  <rect class="cls-3" width="500" height="500"/>
</svg>