<?xml version="1.0" encoding="UTF-8"?>
<svg version="1.1" xmlns="http://www.w3.org/2000/svg" width="256" height="256">
<path d="M0 0 C84.48 0 168.96 0 256 0 C256 84.48 256 168.96 256 256 C171.52 256 87.04 256 0 256 C0 171.52 0 87.04 0 0 Z " fill="#FEFEFE" transform="translate(0,0)"/>
<path d="M0 0 C3.1342401 0.33868593 3.96702574 1.04328849 6.12841797 3.28149414 C7.06621094 4.23572266 7.06621094 4.23572266 8.02294922 5.20922852 C8.66876953 5.89307617 9.31458984 6.57692383 9.97998047 7.28149414 C10.64900391 7.97049805 11.31802734 8.65950195 12.00732422 9.36938477 C15.8387067 13.33947679 19.5749845 17.37864177 23.13623047 21.59399414 C24.71761016 23.41089847 26.38695243 25.09360694 28.10498047 26.78149414 C31.15915517 29.78805365 33.99679476 32.92390986 36.76904297 36.19165039 C38.04441095 37.64339905 39.3782879 39.04495947 40.75341797 40.40258789 C46.25142686 45.97006621 48.02236553 50.48901931 48.60498047 58.28149414 C49.925625 58.32016602 49.925625 58.32016602 51.27294922 58.35961914 C52.43439453 58.41633789 53.59583984 58.47305664 54.79248047 58.53149414 C55.94103516 58.57790039 57.08958984 58.62430664 58.27294922 58.67211914 C64.57455885 59.82458233 67.81057575 64.5273081 71.79296875 69.18041992 C74.6132354 72.45059167 77.5791551 75.57884979 80.54248047 78.71899414 C81.49550049 79.73292236 81.49550049 79.73292236 82.46777344 80.76733398 C85.95887911 84.47998896 89.45838493 88.18464654 92.96044922 91.88696289 C93.67402588 92.64243408 94.38760254 93.39790527 95.12280273 94.17626953 C96.49275353 95.62621745 97.86425232 97.0747049 99.23754883 98.52148438 C109.33737811 109.21108471 109.33737811 109.21108471 110.54248047 114.03149414 C110.21855842 119.33571765 106.20562785 122.23342222 102.47607422 125.59399414 C99.57791488 128.306829 97.03718974 131.16312042 94.45043945 134.16674805 C91.37227308 137.69407668 88.13992359 141.07389192 84.91748047 144.46899414 C80.9242987 148.68396768 76.93367409 152.89727288 73.03857422 157.20336914 C72.49740967 157.79996338 71.95624512 158.39655762 71.39868164 159.01123047 C70.39774637 160.11854381 69.4015033 161.23012386 68.41088867 162.34667969 C65.32350895 165.75499981 62.9315068 168.01470861 58.27287292 168.54891968 C57.41462418 168.55654327 56.55637543 168.56416687 55.67211914 168.57202148 C54.69397751 168.58478119 53.71583588 168.59754089 52.70805359 168.61068726 C51.65696915 168.6129129 50.6058847 168.61513855 49.52294922 168.61743164 C47.89163811 168.62741684 47.89163811 168.62741684 46.22737122 168.63760376 C43.92674449 168.64772619 41.62608843 168.65242091 39.32543945 168.65209961 C35.81591004 168.656465 32.30764615 168.69276912 28.79833984 168.73071289 C26.56071392 168.73658274 24.32308205 168.74055101 22.08544922 168.74243164 C21.04043747 168.75680267 19.99542572 168.77117371 18.91874695 168.78598022 C11.46829388 168.73955996 7.05940124 167.49922312 1.49560547 162.31665039 C0.95419922 161.66567383 0.41279297 161.01469727 -0.14501953 160.34399414 C-0.69673828 159.6955957 -1.24845703 159.04719727 -1.81689453 158.37915039 C-5.46342413 153.53215437 -6.76982141 150.649956 -6.58251953 144.46899414 C-6.54191406 142.72682617 -6.54191406 142.72682617 -6.50048828 140.94946289 C-6.46568359 140.0690332 -6.43087891 139.18860352 -6.39501953 138.28149414 C-12.11999343 143.0866714 -17.29284319 148.20511402 -22.33251953 153.71899414 C-23.65176699 155.15736673 -24.97325182 156.59369166 -26.29736328 158.02758789 C-27.15575806 158.96622681 -27.15575806 158.96622681 -28.03149414 159.92382812 C-29.39501953 161.28149414 -29.39501953 161.28149414 -30.39501953 161.28149414 C-31.46261131 170.04475059 -31.46261131 170.04475059 -28.67236328 178.15649414 C-26.36084354 180.69401152 -23.95729856 182.99859133 -21.39501953 185.28149414 C-20.01244395 186.64887659 -18.63695522 188.02347685 -17.27001953 189.40649414 C-16.62419922 190.04200195 -15.97837891 190.67750977 -15.31298828 191.33227539 C-12.73000837 193.95734052 -10.32883185 196.72004646 -7.93798828 199.51977539 C-7.42880859 200.10114258 -6.91962891 200.68250977 -6.39501953 201.28149414 C-5.97865234 201.85254883 -5.56228516 202.42360352 -5.13330078 203.01196289 C-3.3107832 204.52266884 -3.3107832 204.52266884 -0.23876953 204.96899414 C5.53588088 203.93612984 8.2076751 200.4716203 12.10498047 196.28149414 C12.82556641 195.53770508 13.54615234 194.79391602 14.28857422 194.02758789 C18.88444723 189.24887726 23.28170212 184.3068187 27.60498047 179.28149414 C28.38873047 178.37399414 29.17248047 177.46649414 29.97998047 176.53149414 C31.89512943 174.17317186 31.89512943 174.17317186 32.60498047 170.28149414 C37.22498047 170.28149414 41.84498047 170.28149414 46.60498047 170.28149414 C47.04416667 180.08998596 47.04416667 180.08998596 43.60498047 184.28149414 C41.67401701 186.28204187 39.70753639 188.23740234 37.71435547 190.17602539 C35.74331408 192.1434167 33.91597553 194.16728202 32.10498047 196.28149414 C29.70821459 199.07045807 27.22538656 201.70140199 24.60498047 204.28149414 C20.13356974 208.6924804 16.02406157 213.37029605 12.01123047 218.19946289 C6.24644753 225.0966139 6.24644753 225.0966139 2.60498047 227.28149414 C-1.24713352 227.36174652 -2.85930349 226.74672123 -5.77001953 224.21899414 C-6.63626953 223.24961914 -7.50251953 222.28024414 -8.39501953 221.28149414 C-9.68175253 220.00566566 -10.97385877 218.7352435 -12.27001953 217.46899414 C-14.90165992 214.8422727 -17.41065237 212.16482317 -19.83251953 209.34399414 C-22.40167224 206.35347698 -25.08819209 203.5503273 -27.89501953 200.78149414 C-31.94422153 196.78041508 -35.70099993 192.60877425 -39.39501953 188.28149414 C-39.97767578 187.62665039 -40.56033203 186.97180664 -41.16064453 186.29711914 C-41.71236328 185.67321289 -42.26408203 185.04930664 -42.83251953 184.40649414 C-43.57308594 183.57504883 -43.57308594 183.57504883 -44.32861328 182.72680664 C-45.39501953 181.28149414 -45.39501953 181.28149414 -45.39501953 179.28149414 C-46.05501953 179.28149414 -46.71501953 179.28149414 -47.39501953 179.28149414 C-47.72501953 175.98149414 -48.05501953 172.68149414 -48.39501953 169.28149414 C-49.77173828 169.2950293 -49.77173828 169.2950293 -51.17626953 169.30883789 C-52.40345703 169.27918945 -53.63064453 169.24954102 -54.89501953 169.21899414 C-56.10158203 169.20739258 -57.30814453 169.19579102 -58.55126953 169.18383789 C-63.88782196 167.93104967 -66.6168206 165.11878652 -70.39501953 161.28149414 C-70.9821875 160.68747803 -71.56935547 160.09346191 -72.17431641 159.48144531 C-73.94191182 157.64688793 -75.67203353 155.78297134 -77.39501953 153.90649414 C-78.69940301 152.49996214 -80.00410161 151.09372232 -81.30908203 149.68774414 C-81.97713867 148.96586914 -82.64519531 148.24399414 -83.33349609 147.50024414 C-86.10589191 144.51640554 -88.90286808 141.55621791 -91.70141602 138.59692383 C-93.72872382 136.45022188 -95.74822636 134.29642475 -97.76611328 132.14086914 C-99.94394298 129.81528443 -102.13840178 127.51086576 -104.36767578 125.23461914 C-107.6627888 121.7880667 -110.06284167 119.08425731 -111.89501953 114.65649414 C-111.12124317 109.43350371 -108.09126442 106.87098827 -104.39501953 103.28149414 C-103.66025391 102.54672852 -102.92548828 101.81196289 -102.16845703 101.05493164 C-100.6463127 99.53278731 -99.11890689 98.01588726 -97.58642578 96.50415039 C-94.97400885 93.85447974 -92.56199332 91.06976611 -90.14111328 88.24633789 C-88.29886278 86.1732909 -86.37100291 84.22713613 -84.39501953 82.28149414 C-79.93146453 77.87825745 -75.7904018 73.22919513 -71.83642578 68.36352539 C-71.34013672 67.75895508 -70.84384766 67.15438477 -70.33251953 66.53149414 C-69.69636719 65.73485352 -69.69636719 65.73485352 -69.04736328 64.92211914 C-64.30865731 60.21702101 -60.08974859 58.6715465 -53.52001953 58.53149414 C-52.83166016 58.5018457 -52.14330078 58.47219727 -51.43408203 58.44165039 C-49.75500327 58.37168878 -48.07501141 58.32424203 -46.39501953 58.28149414 C-46.60384766 57.31663086 -46.60384766 57.31663086 -46.81689453 56.33227539 C-47.42129902 51.28837603 -47.14068028 48.33137411 -44.14501953 44.11352539 C-41.57967898 41.25726542 -38.83643998 38.5822119 -36.07080078 35.92114258 C-33.48496124 33.39105832 -31.07415106 30.71078127 -28.64501953 28.03149414 C-23.76348374 22.72780261 -18.83294208 17.47015147 -13.89501953 12.21899414 C-13.21213867 11.49228516 -12.52925781 10.76557617 -11.82568359 10.0168457 C-10.55915171 8.67214062 -9.28828892 7.33149545 -8.01220703 5.99584961 C-6.71898513 4.62492506 -5.47078011 3.21158655 -4.23876953 1.78540039 C-2.39501953 0.28149414 -2.39501953 0.28149414 0 0 Z " fill="#FCFBFB" transform="translate(127.39501953125,16.718505859375)"/>
<path d="M0 0 C5.02488028 0.76006592 6.89888841 2.90148468 10.21875 6.5625 C11.068927 7.45727051 11.068927 7.45727051 11.9362793 8.37011719 C13.55220178 10.0823222 15.14039087 11.81569104 16.71875 13.5625 C17.76482422 14.71492188 17.76482422 14.71492188 18.83203125 15.890625 C19.93011472 17.13259527 21.01695751 18.38463666 22.08984375 19.6484375 C24.7007158 22.71636869 27.41838625 25.68912396 30.1171875 28.6796875 C32.55803656 31.54917347 32.84832564 33.24628042 32.87988281 36.93286133 C32.88949036 37.8375264 32.8990979 38.74219147 32.90899658 39.67427063 C32.9153714 41.14454964 32.9153714 41.14454964 32.921875 42.64453125 C32.92757507 43.65086105 32.93327515 44.65719086 32.93914795 45.6940155 C32.94860585 47.82667995 32.95513506 49.95935907 32.95898438 52.09204102 C32.9686796 55.35133476 32.99969159 58.60999526 33.03125 61.86914062 C33.03778101 63.94010042 33.04303109 66.01106473 33.046875 68.08203125 C33.0592218 69.05614456 33.0715686 70.03025787 33.08428955 71.03388977 C33.05610568 79.61857455 33.05610568 79.61857455 29.71875 83.5625 C26.33832286 85.8161181 25.22664234 85.8053569 21.27270508 85.78613281 C20.15757034 85.78663635 19.04243561 85.78713989 17.89350891 85.78765869 C16.68728378 85.78038757 15.48105865 85.77311646 14.23828125 85.765625 C11.68684386 85.77617647 9.13541123 85.78793341 6.58398438 85.80078125 C2.55935286 85.81342393 -1.46490523 85.81464747 -5.48950195 85.79248047 C-9.37247793 85.77768818 -13.25384585 85.80021041 -17.13671875 85.828125 C-18.33282272 85.81275696 -19.5289267 85.79738892 -20.76127625 85.78155518 C-27.17829857 85.85595742 -31.63824031 86.30811716 -36.50079346 90.70600891 C-37.08834412 91.31865097 -37.67589478 91.93129303 -38.28125 92.5625 C-38.94348572 93.20201096 -39.60572144 93.84152191 -40.2880249 94.50041199 C-46.01929696 100.76344271 -46.28318837 106.45791106 -46.18359375 114.69140625 C-46.19588516 115.92165024 -46.20817657 117.15189423 -46.22084045 118.41941833 C-46.25245646 122.32189352 -46.23632355 126.22246748 -46.21875 130.125 C-46.22798156 132.78198753 -46.24810791 135.43875465 -46.26757812 138.09570312 C-46.30833488 144.58491746 -46.30996672 151.07324097 -46.28125 157.5625 C-46.61125 157.5625 -46.94125 157.5625 -47.28125 157.5625 C-47.61125 154.2625 -47.94125 150.9625 -48.28125 147.5625 C-49.65796875 147.57603516 -49.65796875 147.57603516 -51.0625 147.58984375 C-52.2896875 147.56019531 -53.516875 147.53054687 -54.78125 147.5 C-55.9878125 147.48839844 -57.194375 147.47679687 -58.4375 147.46484375 C-63.77405242 146.21205553 -66.50305107 143.39979238 -70.28125 139.5625 C-70.86841797 138.96848389 -71.45558594 138.37446777 -72.06054688 137.76245117 C-73.82814229 135.92789379 -75.558264 134.0639772 -77.28125 132.1875 C-78.58563348 130.780968 -79.89033208 129.37472817 -81.1953125 127.96875 C-81.86336914 127.246875 -82.53142578 126.525 -83.21972656 125.78125 C-85.99212238 122.7974114 -88.78909854 119.83722377 -91.58764648 116.87792969 C-93.61495428 114.73122774 -95.63445683 112.57743061 -97.65234375 110.421875 C-99.83017345 108.09629028 -102.02463225 105.79187162 -104.25390625 103.515625 C-107.54901927 100.06907255 -109.94907214 97.36526317 -111.78125 92.9375 C-111.00747364 87.71450957 -107.97749489 85.15199413 -104.28125 81.5625 C-103.54648438 80.82773438 -102.81171875 80.09296875 -102.0546875 79.3359375 C-100.53254317 77.81379317 -99.00513736 76.29689312 -97.47265625 74.78515625 C-94.86023932 72.1354856 -92.44822379 69.35077197 -90.02734375 66.52734375 C-88.18509325 64.45429676 -86.25723338 62.50814198 -84.28125 60.5625 C-79.81769499 56.1592633 -75.67663227 51.51020099 -71.72265625 46.64453125 C-71.22636719 46.03996094 -70.73007813 45.43539062 -70.21875 44.8125 C-69.79464844 44.28140625 -69.37054688 43.7503125 -68.93359375 43.203125 C-64.19488778 38.49802687 -59.97597906 36.95255236 -53.40625 36.8125 C-52.71789062 36.78285156 -52.02953125 36.75320312 -51.3203125 36.72265625 C-49.64123374 36.65269464 -47.96124188 36.60524789 -46.28125 36.5625 C-46.28125 36.2325 -46.28125 35.9025 -46.28125 35.5625 C-41.66125 35.5625 -37.04125 35.5625 -32.28125 35.5625 C-31.95125 33.9125 -31.62125 32.2625 -31.28125 30.5625 C-29.26953125 27.9765625 -29.26953125 27.9765625 -26.59375 25.1875 C-26.11550781 24.6829126 -25.63726562 24.1783252 -25.14453125 23.65844727 C-24.09816196 22.55452099 -23.04801264 21.45416859 -21.99462891 20.35693359 C-19.52033929 17.76559294 -17.08706983 15.13675784 -14.64916992 12.51123047 C-12.8522559 10.57645361 -11.05282415 8.64411438 -9.25 6.71484375 C-8.74919922 6.17851318 -8.24839844 5.64218262 -7.73242188 5.08959961 C-7.25353516 4.58565674 -6.77464844 4.08171387 -6.28125 3.5625 C-5.79269531 3.01408447 -5.30414063 2.46566895 -4.80078125 1.90063477 C-3.28125 0.5625 -3.28125 0.5625 0 0 Z " fill="#FDFCFC" transform="translate(127.28125,38.4375)"/>
<path d="M0 0 C3.1342401 0.33868593 3.96702574 1.04328849 6.12841797 3.28149414 C6.75361328 3.91764648 7.37880859 4.55379883 8.02294922 5.20922852 C8.99167969 6.235 8.99167969 6.235 9.97998047 7.28149414 C10.64900391 7.97049805 11.31802734 8.65950195 12.00732422 9.36938477 C15.8387067 13.33947679 19.5749845 17.37864177 23.13623047 21.59399414 C24.71761016 23.41089847 26.38695243 25.09360694 28.10498047 26.78149414 C31.12716223 29.75655948 33.94574063 32.8489084 36.67108154 36.09819031 C38.55645124 38.30258909 38.55645124 38.30258909 40.67047119 40.17585754 C45.05857435 44.38737906 47.12499918 47.48196731 47.57666016 53.62402344 C47.6022072 56.03450838 47.5833872 58.44575553 47.52685547 60.85571289 C47.52410614 62.77961601 47.52410614 62.77961601 47.52130127 64.74238586 C47.5150835 67.44194874 47.482262 70.13935783 47.42822266 72.83837891 C47.36005373 76.28519592 47.34497303 79.72966866 47.34800339 83.17708111 C47.3466505 86.4869351 47.31128751 89.79603107 47.27685547 93.10571289 C47.27240417 94.33706467 47.26795288 95.56841644 47.2633667 96.83708191 C47.12104223 103.26035832 46.95356311 107.41011706 42.60498047 112.28149414 C42.01716797 113.02915039 41.42935547 113.77680664 40.82373047 114.54711914 C39.97294922 115.52938477 39.97294922 115.52938477 39.10498047 116.53149414 C38.53779297 117.19665039 37.97060547 117.86180664 37.38623047 118.54711914 C33.86053667 121.98003152 30.82663488 122.53298216 25.98193359 122.56860352 C24.85396362 122.58201782 23.72599365 122.59543213 22.56384277 122.60925293 C21.35023071 122.61453003 20.13661865 122.61980713 18.88623047 122.62524414 C17.63620239 122.63986694 16.38617432 122.65448975 15.0982666 122.66955566 C10.42208088 122.72399271 5.74587424 122.76114241 1.06951904 122.79718018 C-3.51256487 122.83342234 -8.09434895 122.88414493 -12.67626953 122.93774414 C-13.88988159 122.94302124 -15.10349365 122.94829834 -16.35388184 122.95373535 C-17.48185181 122.96714966 -18.60982178 122.98056396 -19.77197266 122.99438477 C-20.76362427 123.00167603 -21.75527588 123.00896729 -22.77697754 123.01647949 C-25.51428201 123.29356664 -27.10784643 123.7732413 -29.39501953 125.28149414 C-31.45729474 128.37490695 -31.65482978 129.1106737 -31.71728516 132.62597656 C-31.74610779 133.93830513 -31.74610779 133.93830513 -31.7755127 135.27714539 C-31.78401245 136.22088516 -31.79251221 137.16462494 -31.80126953 138.13696289 C-31.81266968 139.11256668 -31.82406982 140.08817047 -31.83581543 141.09333801 C-31.85471474 143.16032578 -31.86778316 145.22737379 -31.87548828 147.29443359 C-31.89484297 150.44029692 -31.95685305 153.58351334 -32.02001953 156.72875977 C-32.03308632 158.739812 -32.04358463 160.75088289 -32.05126953 162.76196289 C-32.07596313 163.69558151 -32.10065674 164.62920013 -32.12609863 165.59111023 C-32.06820773 174.18135257 -28.15972748 178.45540874 -22.43017578 184.40649414 C-21.44374458 185.36941167 -20.45280921 186.32773571 -19.45751953 187.28149414 C-15.3831802 191.26505444 -11.47904533 195.30421171 -7.79736328 199.66040039 C-7.33458984 200.19536133 -6.87181641 200.73032227 -6.39501953 201.28149414 C-5.98380859 201.84739258 -5.57259766 202.41329102 -5.14892578 202.99633789 C-3.31483662 204.52257425 -3.31483662 204.52257425 -0.23876953 204.96899414 C5.53588088 203.93612984 8.2076751 200.4716203 12.10498047 196.28149414 C12.82556641 195.53770508 13.54615234 194.79391602 14.28857422 194.02758789 C18.88444723 189.24887726 23.28170212 184.3068187 27.60498047 179.28149414 C28.38873047 178.37399414 29.17248047 177.46649414 29.97998047 176.53149414 C31.89512943 174.17317186 31.89512943 174.17317186 32.60498047 170.28149414 C37.22498047 170.28149414 41.84498047 170.28149414 46.60498047 170.28149414 C47.04416667 180.08998596 47.04416667 180.08998596 43.60498047 184.28149414 C41.67401701 186.28204187 39.70753639 188.23740234 37.71435547 190.17602539 C35.74331408 192.1434167 33.91597553 194.16728202 32.10498047 196.28149414 C29.70821459 199.07045807 27.22538656 201.70140199 24.60498047 204.28149414 C20.13356974 208.6924804 16.02406157 213.37029605 12.01123047 218.19946289 C6.24644753 225.0966139 6.24644753 225.0966139 2.60498047 227.28149414 C-1.24713352 227.36174652 -2.85930349 226.74672123 -5.77001953 224.21899414 C-6.63626953 223.24961914 -7.50251953 222.28024414 -8.39501953 221.28149414 C-9.68175253 220.00566566 -10.97385877 218.7352435 -12.27001953 217.46899414 C-14.90165992 214.8422727 -17.41065237 212.16482317 -19.83251953 209.34399414 C-22.40167224 206.35347698 -25.08819209 203.5503273 -27.89501953 200.78149414 C-31.94374986 196.78088115 -35.70629668 192.61288231 -39.39501953 188.28149414 C-39.96607422 187.62665039 -40.53712891 186.97180664 -41.12548828 186.29711914 C-44.82009381 182.04963915 -46.49540331 179.88731788 -46.68310547 174.12011719 C-46.71853455 173.04106613 -46.75396362 171.96201508 -46.79046631 170.8502655 C-46.91488863 165.87347938 -47.00517795 160.89679288 -47.07470703 155.91894531 C-47.12124 153.30485885 -47.18928259 150.69105872 -47.27978516 148.078125 C-48.13725309 122.88040606 -48.13725309 122.88040606 -41.16064453 115.17602539 C-37.40419711 111.3708786 -33.05767597 107.64957775 -27.65672302 106.9029541 C-26.66729202 106.90089966 -25.67786102 106.89884521 -24.65844727 106.89672852 C-23.53055283 106.88661743 -22.40265839 106.87650635 -21.24058533 106.86608887 C-19.42790916 106.87062073 -19.42790916 106.87062073 -17.57861328 106.87524414 C-16.33000015 106.86440796 -15.08138702 106.85357178 -13.79493713 106.84240723 C-9.13036303 106.80231619 -4.46598033 106.78837849 0.19873047 106.77618408 C4.77315901 106.76281742 9.34709537 106.72747291 13.92138672 106.68774414 C15.13186172 106.69076538 16.34233673 106.69378662 17.5894928 106.69689941 C19.27660622 106.68173279 19.27660622 106.68173279 20.99780273 106.66625977 C22.48075584 106.6631781 22.48075584 106.6631781 23.9936676 106.66003418 C27.04966079 106.21703258 28.40368571 105.42030172 30.60498047 103.28149414 C31.53055754 100.50476292 31.75564983 98.7215556 31.8137207 95.84521484 C31.83301132 94.95030838 31.85230194 94.05540192 31.87217712 93.13337708 C31.93014396 89.03606412 31.97920999 84.93892284 32.01000977 80.84130859 C32.03156902 78.68522098 32.06564703 76.52922039 32.11254883 74.37353516 C32.1797405 71.25522002 32.20704169 68.13871354 32.22607422 65.01977539 C32.26782021 63.58653679 32.26782021 63.58653679 32.31040955 62.12434387 C32.28910089 55.13027189 30.36349512 51.34589278 25.60498047 46.28149414 C24.84314453 45.46680664 24.08130859 44.65211914 23.29638672 43.81274414 C22.59384766 43.14243164 21.89130859 42.47211914 21.16748047 41.78149414 C18.28925691 38.97570909 15.54017257 36.14026262 12.91748047 33.09399414 C12.35673828 32.45075195 11.79599609 31.80750977 11.21826172 31.14477539 C10.16122775 29.92393955 9.11638483 28.69241611 8.08544922 27.44946289 C5.5466489 24.58912585 4.09729455 23.35051013 0.26123047 22.81274414 C-4.40523615 23.41100909 -5.73461249 24.86081828 -8.89501953 28.28149414 C-9.36858887 28.78479248 -9.8421582 29.28809082 -10.33007812 29.80664062 C-11.70553075 31.27940195 -13.05102548 32.77996963 -14.39501953 34.28149414 C-15.35794922 35.35077148 -15.35794922 35.35077148 -16.34033203 36.44165039 C-17.44982944 37.69822071 -18.54780578 38.96506948 -19.63330078 40.24243164 C-22.48548074 43.54362441 -25.49159703 46.70624711 -28.47705078 49.88696289 C-30.76621647 52.50725572 -30.76621647 52.50725572 -32.39501953 57.28149414 C-37.01501953 57.28149414 -41.63501953 57.28149414 -46.39501953 57.28149414 C-47.10876604 53.29640946 -47.34975251 51.15015175 -46.39501953 47.28149414 C-43.34635908 43.0790004 -39.78448717 39.55139366 -36.07080078 35.93725586 C-33.49531176 33.39253463 -31.0780921 30.71137599 -28.64501953 28.03149414 C-23.76306938 22.7281754 -18.83294841 17.4701582 -13.89501953 12.21899414 C-13.21213867 11.49228516 -12.52925781 10.76557617 -11.82568359 10.0168457 C-10.55915171 8.67214062 -9.28828892 7.33149545 -8.01220703 5.99584961 C-6.71898513 4.62492506 -5.47078011 3.21158655 -4.23876953 1.78540039 C-2.39501953 0.28149414 -2.39501953 0.28149414 0 0 Z " fill="#880805" transform="translate(127.39501953125,16.718505859375)"/>
<path d="M0 0 C1.02141083 -0.01268417 2.04282166 -0.02536835 3.09518433 -0.03843689 C4.74213791 -0.03403343 4.74213791 -0.03403343 6.42236328 -0.02954102 C8.12382004 -0.03740379 8.12382004 -0.03740379 9.85964966 -0.04542542 C12.25863832 -0.05184765 14.65765847 -0.05050605 17.05664062 -0.04199219 C20.72208999 -0.03349499 24.38597464 -0.06222267 28.05126953 -0.09399414 C30.38330031 -0.09560658 32.71533385 -0.0950278 35.04736328 -0.09204102 C36.14128387 -0.10327499 37.23520447 -0.11450897 38.36227417 -0.12608337 C46.14584211 -0.05503522 49.48344452 1.19486792 55.13330078 6.55249023 C56.11556641 7.65463867 56.11556641 7.65463867 57.11767578 8.77905273 C57.78283203 9.50866211 58.44798828 10.23827148 59.13330078 10.98999023 C63.10860165 16.52317928 63.5328674 22.57103046 63.44970703 29.20874023 C62.45751092 34.65583027 59.05649715 37.11505225 54.86767578 40.40405273 C53.87322195 41.38885167 52.89114641 42.38655442 51.93017578 43.40405273 C49.86767578 45.40405273 49.86767578 45.40405273 48.86767578 45.40405273 C48.85309326 44.69796875 48.83851074 43.99188477 48.82348633 43.2644043 C48.74894411 40.060406 48.65230373 36.85744257 48.55517578 33.65405273 C48.53261719 32.54288086 48.51005859 31.43170898 48.48681641 30.28686523 C48.45136719 29.21694336 48.41591797 28.14702148 48.37939453 27.04467773 C48.35321045 26.06015625 48.32702637 25.07563477 48.30004883 24.0612793 C47.80274773 21.00502571 47.00892824 19.61572243 44.86767578 17.40405273 C38.42338975 15.25595739 31.15303858 15.77012808 24.41113281 15.61450195 C22.48248038 15.55803313 20.55438208 15.47643664 18.62792969 15.3684082 C6.49711881 14.46219719 6.49711881 14.46219719 -4.24707031 19.20629883 C-7.58870076 22.32005902 -10.37616306 25.77601424 -13.13232422 29.40405273 C-14.41382038 30.87133133 -15.70249125 32.33248791 -17.00732422 33.77905273 C-17.52810547 34.39264648 -18.04888672 35.00624023 -18.58544922 35.63842773 C-20.23535084 37.52164878 -21.97194278 39.27419063 -23.75732422 41.02905273 C-24.32837891 41.60010742 -24.89943359 42.17116211 -25.48779297 42.75952148 C-26.54253191 43.81426042 -27.6069028 44.85950472 -28.68310547 45.89233398 C-31.2763554 48.60246279 -32.15966851 50.53236058 -32.94482422 54.21655273 C-32.59034896 59.99893043 -28.06110789 63.58604304 -24.13232422 67.40405273 C-22.92576172 68.64155273 -22.92576172 68.64155273 -21.69482422 69.90405273 C-20.42638672 71.14155273 -20.42638672 71.14155273 -19.13232422 72.40405273 C-14.11346706 77.32767541 -9.24122558 82.2733711 -4.73779297 87.67749023 C-0.42419118 92.31644885 2.73230285 92.89277166 8.86767578 93.40405273 C8.86767578 98.35405273 8.86767578 103.30405273 8.86767578 108.40405273 C-3.50732422 109.30639648 -3.50732422 109.30639648 -8.13232422 105.33764648 C-9.48655075 104.04803869 -10.82022083 102.73649502 -12.13232422 101.40405273 C-12.72013672 100.80939209 -13.30794922 100.21473145 -13.91357422 99.60205078 C-15.68048893 97.76812383 -17.40996447 95.90484789 -19.13232422 94.02905273 C-20.4367077 92.62252074 -21.74140629 91.21628091 -23.04638672 89.81030273 C-23.71444336 89.08842773 -24.3825 88.36655273 -25.07080078 87.62280273 C-27.84319659 84.63896413 -30.64017276 81.6787765 -33.4387207 78.71948242 C-35.4660285 76.57278048 -37.48553105 74.41898334 -39.50341797 72.26342773 C-41.68124767 69.93784302 -43.87570647 67.63342435 -46.10498047 65.35717773 C-49.40009349 61.91062529 -51.80014635 59.20681591 -53.63232422 54.77905273 C-52.85854786 49.5560623 -49.82856911 46.99354687 -46.13232422 43.40405273 C-45.39755859 42.66928711 -44.66279297 41.93452148 -43.90576172 41.17749023 C-42.38361739 39.65534591 -40.85621158 38.13844585 -39.32373047 36.62670898 C-36.71131354 33.97703834 -34.29929801 31.19232471 -31.87841797 28.36889648 C-30.03616747 26.2958495 -28.1083076 24.34969472 -26.13232422 22.40405273 C-21.64872088 17.98103863 -17.53566804 13.28575995 -13.50341797 8.45092773 C-12.98908203 7.83733398 -12.47474609 7.22374023 -11.94482422 6.59155273 C-11.27386719 5.77750977 -11.27386719 5.77750977 -10.58935547 4.94702148 C-7.24752167 1.40808221 -4.91981552 0.02964077 0 0 Z " fill="#161616" transform="translate(69.13232421875,76.595947265625)"/>
<path d="M0 0 C5.02488028 0.76006592 6.89888841 2.90148468 10.21875 6.5625 C11.068927 7.45727051 11.068927 7.45727051 11.9362793 8.37011719 C13.55220178 10.0823222 15.14039087 11.81569104 16.71875 13.5625 C17.41613281 14.33078125 18.11351562 15.0990625 18.83203125 15.890625 C19.93011472 17.13259527 21.01695751 18.38463666 22.08984375 19.6484375 C24.7007158 22.71636869 27.41838625 25.68912396 30.1171875 28.6796875 C32.55803656 31.54917347 32.84832564 33.24628042 32.87988281 36.93286133 C32.88949036 37.8375264 32.8990979 38.74219147 32.90899658 39.67427063 C32.91324646 40.65445663 32.91749634 41.63464264 32.921875 42.64453125 C32.92757507 43.65086105 32.93327515 44.65719086 32.93914795 45.6940155 C32.94860585 47.82667995 32.95513506 49.95935907 32.95898438 52.09204102 C32.9686796 55.35133476 32.99969159 58.60999526 33.03125 61.86914062 C33.03778101 63.94010042 33.04303109 66.01106473 33.046875 68.08203125 C33.0592218 69.05614456 33.0715686 70.03025787 33.08428955 71.03388977 C33.05610568 79.61857455 33.05610568 79.61857455 29.71875 83.5625 C26.19923754 85.90884164 24.71221969 85.81968092 20.546875 85.828125 C19.32484375 85.83070312 18.1028125 85.83328125 16.84375 85.8359375 C15.565 85.82820313 14.28625 85.82046875 12.96875 85.8125 C11.70546875 85.82023437 10.4421875 85.82796875 9.140625 85.8359375 C2.97779404 85.82299038 -2.48458609 85.74926543 -8.28125 83.5625 C-7.29125 82.0775 -7.29125 82.0775 -6.28125 80.5625 C-5.62125 80.5625 -4.96125 80.5625 -4.28125 80.5625 C-4.075 80.02625 -3.86875 79.49 -3.65625 78.9375 C-2.28125 76.5625 -2.28125 76.5625 0.84375 74.125 C3.15997906 71.90504452 3.6879285 70.75082666 4.21484375 67.53125 C4.41905171 57.05658285 1.63453179 51.18305727 -5.24609375 43.48046875 C-8.74473989 40.18328016 -11.55516944 39.31592546 -16.32519531 39.24365234 C-17.32593079 39.22378265 -18.32666626 39.20391296 -19.35772705 39.18344116 C-20.96729279 39.16611435 -20.96729279 39.16611435 -22.609375 39.1484375 C-23.71351746 39.12907135 -24.81765991 39.1097052 -25.95526123 39.0897522 C-29.48051233 39.02999108 -33.00579615 38.98358436 -36.53125 38.9375 C-38.92188921 38.89931708 -41.31251471 38.86026517 -43.703125 38.8203125 C-49.56237826 38.72429233 -55.42171415 38.63923452 -61.28125 38.5625 C-61.28125 38.2325 -61.28125 37.9025 -61.28125 37.5625 C-56.33125 37.2325 -51.38125 36.9025 -46.28125 36.5625 C-46.28125 36.2325 -46.28125 35.9025 -46.28125 35.5625 C-41.66125 35.5625 -37.04125 35.5625 -32.28125 35.5625 C-31.95125 33.9125 -31.62125 32.2625 -31.28125 30.5625 C-29.26953125 27.9765625 -29.26953125 27.9765625 -26.59375 25.1875 C-26.11550781 24.6829126 -25.63726562 24.1783252 -25.14453125 23.65844727 C-24.09816196 22.55452099 -23.04801264 21.45416859 -21.99462891 20.35693359 C-19.52033929 17.76559294 -17.08706983 15.13675784 -14.64916992 12.51123047 C-12.8522559 10.57645361 -11.05282415 8.64411438 -9.25 6.71484375 C-8.74919922 6.17851318 -8.24839844 5.64218262 -7.73242188 5.08959961 C-7.25353516 4.58565674 -6.77464844 4.08171387 -6.28125 3.5625 C-5.79269531 3.01408447 -5.30414063 2.46566895 -4.80078125 1.90063477 C-3.28125 0.5625 -3.28125 0.5625 0 0 Z " fill="#FBF9F9" transform="translate(127.28125,38.4375)"/>
<path d="M0 0 C12.26653051 -0.61952174 12.26653051 -0.61952174 15.58984375 2.1875 C16.38519531 3.115625 17.18054688 4.04375 18 5 C18.87398438 5.86238281 19.74796875 6.72476563 20.6484375 7.61328125 C25.36500641 12.28254932 29.94815329 16.98706965 34.2578125 22.0390625 C36.2543789 24.28631885 38.36012946 26.38894927 40.5 28.5 C43.90723364 31.86687723 47.13465906 35.3107234 50.2265625 38.96875 C51.50369907 40.43154959 52.84025165 41.84322074 54.2109375 43.21875 C60.53667529 49.69985679 60.53667529 49.69985679 61.125 53.9375 C60.58756829 59.03803114 56.48275789 62.05815423 52.87109375 65.3125 C49.97293441 68.02533486 47.43220927 70.88162628 44.84545898 73.88525391 C41.76729261 77.41258254 38.53494312 80.79239778 35.3125 84.1875 C31.31931823 88.40247354 27.32869362 92.61577874 23.43359375 96.921875 C22.8924292 97.51846924 22.35126465 98.11506348 21.79370117 98.72973633 C20.7927659 99.83704967 19.79652283 100.94862972 18.8059082 102.06518555 C15.71852848 105.47350567 13.32652633 107.73321447 8.66789246 108.26742554 C7.38051933 108.27886093 7.38051933 108.27886093 6.06713867 108.29052734 C4.59992622 108.3096669 4.59992622 108.3096669 3.10307312 108.32919312 C1.52644646 108.33253159 1.52644646 108.33253159 -0.08203125 108.3359375 C-1.71334236 108.3459227 -1.71334236 108.3459227 -3.37760925 108.35610962 C-5.67823598 108.36623205 -7.97889204 108.37092677 -10.27954102 108.37060547 C-13.78907043 108.37497086 -17.29733432 108.41127498 -20.80664062 108.44921875 C-23.04426654 108.4550886 -25.28189842 108.45905687 -27.51953125 108.4609375 C-28.564543 108.47530853 -29.60955475 108.48967957 -30.68623352 108.50448608 C-38.13668659 108.45806582 -42.54557923 107.21772898 -48.109375 102.03515625 C-48.65078125 101.38417969 -49.1921875 100.73320312 -49.75 100.0625 C-50.30171875 99.41410156 -50.8534375 98.76570313 -51.421875 98.09765625 C-55.33227751 92.89991827 -57.03830891 88.98050614 -56.96484375 82.42578125 C-54.91179799 75.136222 -48.49623996 69.93420746 -43 65 C-42.67 65 -42.34 65 -42 65 C-41.98598145 65.91495239 -41.98598145 65.91495239 -41.97167969 66.84838867 C-41.91778674 69.62889487 -41.83417931 72.40775262 -41.75 75.1875 C-41.72873047 76.62706055 -41.72873047 76.62706055 -41.70703125 78.09570312 C-41.55357146 82.53069106 -41.4463344 85.27697456 -39.078125 89.11328125 C-35.08905052 92.73494097 -31.18963598 92.19449872 -26.046875 92.23828125 C-25.15389709 92.246353 -24.26091919 92.25442474 -23.34088135 92.26274109 C-21.44781437 92.2765857 -19.55472238 92.28730616 -17.66162109 92.29516602 C-14.7752299 92.3123498 -11.88999278 92.35622842 -9.00390625 92.40039062 C-7.16407092 92.4105202 -5.32422585 92.41903547 -3.484375 92.42578125 C-2.19500031 92.45204338 -2.19500031 92.45204338 -0.87957764 92.47883606 C5.59428537 92.45556693 9.04384305 90.71695941 13.86767578 86.28344727 C14.3882959 85.71682373 14.90891602 85.1502002 15.4453125 84.56640625 C16.0419873 83.92324463 16.63866211 83.28008301 17.25341797 82.61743164 C17.87104004 81.9393042 18.48866211 81.26117676 19.125 80.5625 C19.77227051 79.86181396 20.41954102 79.16112793 21.08642578 78.43920898 C23.06297324 76.29766657 25.03147924 74.14891893 27 72 C28.20231765 70.69717114 29.40540443 69.39505152 30.609375 68.09375 C32.67756431 65.85828511 34.74294709 63.62031981 36.8046875 61.37890625 C39 59 39 59 40 58 C40.56656613 54.02967886 40.91437408 51.43652429 38.72167969 47.99169922 C36.85572329 45.87234784 34.90491179 43.900418 32.875 41.9375 C31.40942218 40.45645521 29.94459381 38.97466847 28.48046875 37.4921875 C27.73458496 36.74936523 26.98870117 36.00654297 26.22021484 35.24121094 C22.17165373 31.15436345 18.31753761 26.88647348 14.43115234 22.64624023 C13.62025146 21.77140991 13.62025146 21.77140991 12.79296875 20.87890625 C12.08950317 20.11429077 12.08950317 20.11429077 11.37182617 19.33422852 C7.53767778 15.60516267 5.76607003 15.82372429 0 15 C0 10.05 0 5.1 0 0 Z " fill="#141413" transform="translate(177,77)"/>
<path d="M0 0 C3.1342401 0.33868593 3.96702574 1.04328849 6.12841797 3.28149414 C6.75361328 3.91764648 7.37880859 4.55379883 8.02294922 5.20922852 C8.99167969 6.235 8.99167969 6.235 9.97998047 7.28149414 C10.64900391 7.97049805 11.31802734 8.65950195 12.00732422 9.36938477 C15.8387067 13.33947679 19.5749845 17.37864177 23.13623047 21.59399414 C24.71761016 23.41089847 26.38695243 25.09360694 28.10498047 26.78149414 C30.656056 29.30364591 33.13220551 31.87388714 35.54248047 34.53149414 C36.12900391 35.17602539 36.71552734 35.82055664 37.31982422 36.48461914 C38.60498047 38.28149414 38.60498047 38.28149414 38.60498047 41.28149414 C33.85498047 42.40649414 33.85498047 42.40649414 31.60498047 41.28149414 C30.61498047 44.25149414 30.61498047 44.25149414 29.60498047 47.28149414 C25.82218853 45.98565884 23.49352129 44.53470471 20.72998047 41.65649414 C20.04419922 40.94493164 19.35841797 40.23336914 18.65185547 39.50024414 C16.7265343 37.41325478 14.84267832 35.29942087 12.97998047 33.15649414 C12.41021484 32.50422852 11.84044922 31.85196289 11.25341797 31.17993164 C10.18262069 29.94673857 9.12446534 28.7024118 8.08154297 27.44555664 C5.54432505 24.58615232 4.09513675 23.35020764 0.26123047 22.81274414 C-4.40523615 23.41100909 -5.73461249 24.86081828 -8.89501953 28.28149414 C-9.36858887 28.78479248 -9.8421582 29.28809082 -10.33007812 29.80664062 C-11.70553075 31.27940195 -13.05102548 32.77996963 -14.39501953 34.28149414 C-15.35794922 35.35077148 -15.35794922 35.35077148 -16.34033203 36.44165039 C-17.44982944 37.69822071 -18.54780578 38.96506948 -19.63330078 40.24243164 C-22.48548074 43.54362441 -25.49159703 46.70624711 -28.47705078 49.88696289 C-30.76621647 52.50725572 -30.76621647 52.50725572 -32.39501953 57.28149414 C-37.01501953 57.28149414 -41.63501953 57.28149414 -46.39501953 57.28149414 C-47.10876604 53.29640946 -47.34975251 51.15015175 -46.39501953 47.28149414 C-43.34635908 43.0790004 -39.78448717 39.55139366 -36.07080078 35.93725586 C-33.49531176 33.39253463 -31.0780921 30.71137599 -28.64501953 28.03149414 C-23.76306938 22.7281754 -18.83294841 17.4701582 -13.89501953 12.21899414 C-13.21213867 11.49228516 -12.52925781 10.76557617 -11.82568359 10.0168457 C-10.55915171 8.67214062 -9.28828892 7.33149545 -8.01220703 5.99584961 C-6.71898513 4.62492506 -5.47078011 3.21158655 -4.23876953 1.78540039 C-2.39501953 0.28149414 -2.39501953 0.28149414 0 0 Z " fill="#D80E0C" transform="translate(127.39501953125,16.718505859375)"/>
<path d="M0 0 C4.62 0 9.24 0 14 0 C14.4391862 9.80849182 14.4391862 9.80849182 11 14 C9.06903654 16.00054773 7.10255593 17.9559082 5.109375 19.89453125 C3.13833361 21.86192256 1.31099506 23.88578788 -0.5 26 C-2.89676588 28.78896393 -5.37959391 31.41990785 -8 34 C-12.47141072 38.41098625 -16.5809189 43.08880191 -20.59375 47.91796875 C-26.35853293 54.81511976 -26.35853293 54.81511976 -30 57 C-33.85211399 57.08025237 -35.46428396 56.46522708 -38.375 53.9375 C-39.24125 52.968125 -40.1075 51.99875 -41 51 C-42.286733 49.72417152 -43.57883924 48.45374936 -44.875 47.1875 C-47.50664039 44.56077856 -50.01563284 41.88332903 -52.4375 39.0625 C-55.00665271 36.07198284 -57.69317256 33.26883316 -60.5 30.5 C-65.74343509 25.3191998 -70.62369195 19.93553157 -75 14 C-72.36 14.66 -69.72 15.32 -67 16 C-67 15.01 -67 14.02 -67 13 C-66.01 13 -65.02 13 -64 13 C-64.33 15.64 -64.66 18.28 -65 21 C-64.34 20.67 -63.68 20.34 -63 20 C-63 20.99 -63 21.98 -63 23 C-62.01 23 -61.02 23 -60 23 C-59.67 22.34 -59.34 21.68 -59 21 C-56.4375 20.375 -56.4375 20.375 -54 20 C-54.495 17.525 -54.495 17.525 -55 15 C-48.28852445 20.36918044 -42.72819307 26.62763297 -37 33 C-35.86841102 34.32033052 -35.86841102 34.32033052 -32.96875 34.5625 C-28.20599625 34.48474076 -25.85778601 31.60220781 -22.68359375 28.34765625 C-21.96300781 27.57292969 -21.24242187 26.79820312 -20.5 26 C-19.77941406 25.25621094 -19.05882812 24.51242188 -18.31640625 23.74609375 C-13.72053324 18.96738312 -9.32327835 14.02532455 -5 9 C-4.21625 8.0925 -3.4325 7.185 -2.625 6.25 C-0.70985103 3.89167772 -0.70985103 3.89167772 0 0 Z " fill="#C70F0D" transform="translate(160,187)"/>
<path d="M0 0 C4.62 0 9.24 0 14 0 C14.4391862 9.80849182 14.4391862 9.80849182 11 14 C9.06903654 16.00054773 7.10255593 17.9559082 5.109375 19.89453125 C3.13833361 21.86192256 1.31099506 23.88578788 -0.5 26 C-3.52765254 29.52421514 -6.75682921 32.77719055 -10.06640625 36.03515625 C-12.87813174 38.89232376 -15.4343721 41.92124652 -18 45 C-18.66 43.68 -19.32 42.36 -20 41 C-19.34 40.34 -18.68 39.68 -18 39 C-18 39.66 -18 40.32 -18 41 C-17.34 41 -16.68 41 -16 41 C-16 40.34 -16 39.68 -16 39 C-15.34 39 -14.68 39 -14 39 C-13.87625 38.071875 -13.7525 37.14375 -13.625 36.1875 C-13 33 -13 33 -11 30 C-13.475 32.475 -13.475 32.475 -16 35 C-17.31223496 31.06329512 -16.24296256 28.87511856 -15 25 C-15.45375 25.495 -15.9075 25.99 -16.375 26.5 C-18 28 -18 28 -20 28 C-20.33 29.32 -20.66 30.64 -21 32 C-22.65 32 -24.3 32 -26 32 C-22.82273508 28.18728209 -19.600001 24.54483529 -16.0625 21.0625 C-12.16063426 17.21285809 -8.54219488 13.18050918 -5 9 C-4.21625 8.0925 -3.4325 7.185 -2.625 6.25 C-0.70985103 3.89167772 -0.70985103 3.89167772 0 0 Z " fill="#AB0B05" transform="translate(160,187)"/>
<path d="M0 0 C0.66 0 1.32 0 2 0 C3.91215172 19.20442167 3.91215172 19.20442167 -0.30859375 24.66796875 C-2.94632512 27.43175658 -5.97831928 29.67043609 -9 32 C-9.5671875 32.91136719 -10.134375 33.82273438 -10.71875 34.76171875 C-13.40070625 37.3931587 -14.13373882 37.35714888 -17.765625 37.48828125 C-19.5943887 37.45515147 -21.42282812 37.39566959 -23.25 37.3125 C-24.18585938 37.28994141 -25.12171875 37.26738281 -26.0859375 37.24414062 C-28.39225674 37.18530595 -30.69530838 37.10317146 -33 37 C-29.62289504 32.33213874 -26.2327662 28.00129269 -22.0625 24 C-18.45147636 20.46982017 -15.07662908 16.85829326 -11.80078125 13.01953125 C-8.9540374 9.82697904 -5.88513414 6.86452033 -2.8203125 3.8828125 C-0.93616102 2.12246661 -0.93616102 2.12246661 0 0 Z " fill="#0D0D0D" transform="translate(156,85)"/>
<path d="M0 0 C1.73504856 0.03311161 3.46975671 0.09256933 5.203125 0.17578125 C6.53537109 0.20961914 6.53537109 0.20961914 7.89453125 0.24414062 C10.08245312 0.30295573 12.26692171 0.38506857 14.453125 0.48828125 C14.453125 1.14828125 14.453125 1.80828125 14.453125 2.48828125 C13.793125 2.48828125 13.133125 2.48828125 12.453125 2.48828125 C12.19136475 3.07222656 11.92960449 3.65617188 11.65991211 4.2578125 C10.3845817 6.61496779 8.99667679 8.24495557 7.14453125 10.17578125 C6.48469238 10.86929688 5.82485352 11.5628125 5.14501953 12.27734375 C4.44231934 13.00695312 3.73961914 13.7365625 3.015625 14.48828125 C1.56567977 16.00842198 0.116465 17.52925976 -1.33203125 19.05078125 C-2.04633301 19.79972656 -2.76063477 20.54867187 -3.49658203 21.3203125 C-7.23478048 25.27306342 -10.86975368 29.3185512 -14.5078125 33.36328125 C-16.546875 35.48828125 -16.546875 35.48828125 -18.546875 36.48828125 C-20.28493844 17.11288479 -20.28493844 17.11288479 -16.4609375 12.04296875 C-13.94083207 9.62632805 -11.33441673 7.58316109 -8.546875 5.48828125 C-7.9796875 4.58722656 -7.4125 3.68617188 -6.828125 2.7578125 C-4.19185013 0.13508014 -3.57160893 0.13278149 0 0 Z " fill="#151515" transform="translate(115.546875,141.51171875)"/>
<path d="M0 0 C3.98296755 2.89670367 7.00506783 6.20831536 10.1796875 9.92578125 C11.88594825 11.87003974 13.65296485 13.69023686 15.5 15.5 C18.05107553 18.02215177 20.52722504 20.592393 22.9375 23.25 C23.81728516 24.21679688 23.81728516 24.21679688 24.71484375 25.203125 C26 27 26 27 26 30 C21.25 31.125 21.25 31.125 19 30 C18.34 31.98 17.68 33.96 17 36 C13.21720806 34.7041647 10.88854082 33.25321057 8.125 30.375 C7.43921875 29.6634375 6.7534375 28.951875 6.046875 28.21875 C4.12155383 26.13176064 2.23769785 24.01792673 0.375 21.875 C-0.19476563 21.22273438 -0.76453125 20.57046875 -1.3515625 19.8984375 C-2.42235978 18.66524443 -3.48051513 17.42091766 -4.5234375 16.1640625 C-7.00303572 13.36959466 -8.73630822 12.06836454 -12.375 11.125 C-17.7455207 12.42133258 -20.47842742 15.90217009 -24 20 C-25 17 -25 17 -25 15 C-19.58823529 11 -19.58823529 11 -17 11 C-17 10.34 -17 9.68 -17 9 C-9.25 8.875 -9.25 8.875 -7 10 C-7 10.66 -7 11.32 -7 12 C-0.474566 13.00392976 -0.474566 13.00392976 6 12 C4.62373901 7.98590546 2.65695303 5.27690874 0 2 C0 1.34 0 0.68 0 0 Z " fill="#CC0E0C" transform="translate(140,28)"/>
<path d="M0 0 C5.875 1.875 5.875 1.875 7 3 C8.62252492 3.09886353 10.24947273 3.12971167 11.875 3.125 C12.75929687 3.12757813 13.64359375 3.13015625 14.5546875 3.1328125 C17.13906291 3.10048585 17.13906291 3.10048585 20 2 C22.1875 2.9375 22.1875 2.9375 24 4 C23.58566629 14.66909295 23.58566629 14.66909295 19 19 C18.21625 19.78375 17.4325 20.5675 16.625 21.375 C14 23 14 23 11 23.0625 C7.19675503 21.71551741 5.69287304 20.01345316 3 17 C-0.20829025 13.97751922 -0.20829025 13.97751922 -3.42578125 10.96484375 C-5 9 -5 9 -5 5 C-4.360625 4.731875 -3.72125 4.46375 -3.0625 4.1875 C-0.66868314 3.11332248 -0.66868314 3.11332248 0 0 Z " fill="#E11513" transform="translate(116,221)"/>
<path d="M0 0 C1 2 1 2 0.375 4.25 C-1.33818866 7.67637732 -3.46502376 10.13147426 -6 13 C-5.34 13.33 -4.68 13.66 -4 14 C-3.01 14.66 -2.02 15.32 -1 16 C1.83578683 14.92435672 2.86797063 14.22387589 4.4375 11.5625 C6.26775001 8.56088998 7.81424688 7.4335889 11 6 C12.485 6.495 12.485 6.495 14 7 C13.28714844 7.7734375 12.57429688 8.546875 11.83984375 9.34375 C9.353684 12.04458601 6.87605075 14.753089 4.40234375 17.46533203 C3.19958309 18.78158439 1.99098948 20.09250259 0.78125 21.40234375 C0.1728125 22.07394531 -0.435625 22.74554688 -1.0625 23.4375 C-1.85333984 24.30181641 -1.85333984 24.30181641 -2.66015625 25.18359375 C-4.3930721 27.37300845 -4.3930721 27.37300845 -6 32 C-10.62 32 -15.24 32 -20 32 C-21.40585117 24.15066431 -21.40585117 24.15066431 -18.95117188 20.39550781 C-16.06703628 16.87535105 -12.81746242 13.70900263 -9.55664062 10.54101562 C-7.34474279 8.35132003 -5.29785988 6.03001598 -3.25 3.6875 C-2.61578125 2.96949219 -1.9815625 2.25148437 -1.328125 1.51171875 C-0.88984375 1.01285156 -0.4515625 0.51398437 0 0 Z " fill="#A10805" transform="translate(101,42)"/>
<path d="M0 0 C1.08096954 0.00007553 2.16193909 0.00015106 3.27566528 0.00022888 C5.03195755 0.00797081 5.03195755 0.00797081 6.82373047 0.01586914 C8.019487 0.01728409 9.21524353 0.01869904 10.44723511 0.02015686 C14.27848784 0.02576876 18.10968281 0.03832331 21.94091797 0.05102539 C24.53336504 0.05603886 27.12581303 0.06060203 29.71826172 0.06469727 C36.08416695 0.07574206 42.45003833 0.0924918 48.81591797 0.11352539 C48.81591797 0.44352539 48.81591797 0.77352539 48.81591797 1.11352539 C38.91591797 1.60852539 38.91591797 1.60852539 28.81591797 2.11352539 C28.81591797 9.37352539 28.81591797 16.63352539 28.81591797 24.11352539 C28.48591797 24.11352539 28.15591797 24.11352539 27.81591797 24.11352539 C27.48591797 17.51352539 27.15591797 10.91352539 26.81591797 4.11352539 C22.85591797 8.40352539 18.89591797 12.69352539 14.81591797 17.11352539 C13.82591797 16.45352539 12.83591797 15.79352539 11.81591797 15.11352539 C12.38181641 14.55922852 12.94771484 14.00493164 13.53076172 13.43383789 C14.26423828 12.70938477 14.99771484 11.98493164 15.75341797 11.23852539 C16.48431641 10.51922852 17.21521484 9.79993164 17.96826172 9.05883789 C19.87259796 7.24325347 19.87259796 7.24325347 20.81591797 5.11352539 C21.47591797 5.11352539 22.13591797 5.11352539 22.81591797 5.11352539 C22.81591797 4.45352539 22.81591797 3.79352539 22.81591797 3.11352539 C10.76295533 2.07897642 10.76295533 2.07897642 0.21044922 6.78149414 C-2.54457354 9.6787202 -4.83161726 12.88793427 -7.18408203 16.11352539 C-8.17408203 16.77352539 -9.16408203 17.43352539 -10.18408203 18.11352539 C-10.52210878 20.65931916 -10.67287674 22.97501625 -10.69580078 25.52758789 C-10.71375198 26.25722748 -10.73170319 26.98686707 -10.75019836 27.73861694 C-10.80443335 30.07186074 -10.83823765 32.40489853 -10.87158203 34.73852539 C-10.90474365 36.31928331 -10.93923223 37.900014 -10.97509766 39.48071289 C-11.0601667 43.35816865 -11.12691381 47.23556195 -11.18408203 51.11352539 C-11.51408203 51.11352539 -11.84408203 51.11352539 -12.18408203 51.11352539 C-12.31099023 44.79660524 -12.39847788 38.48001445 -12.45874023 32.16210938 C-12.48386488 30.0135469 -12.51797064 27.86506974 -12.5612793 25.71679688 C-12.62201995 22.62616927 -12.65031247 19.53667276 -12.67236328 16.44555664 C-12.69816971 15.487043 -12.72397614 14.52852936 -12.75056458 13.54096985 C-12.75252361 8.86944519 -12.73266253 6.81666384 -9.77856445 3.03027344 C-6.14974476 0.34937917 -4.45437644 -0.01035901 0 0 Z " fill="#FAF3F2" transform="translate(107.18408203125,138.886474609375)"/>
<path d="M0 0 C0.33 0 0.66 0 1 0 C1.07613738 6.45947714 1.12863649 12.9188383 1.16479492 19.37866211 C1.17987052 21.57564621 1.20033426 23.77260026 1.22631836 25.96948242 C1.26275502 29.12947 1.27973884 32.28905924 1.29296875 35.44921875 C1.30845261 36.42960617 1.32393646 37.40999359 1.33988953 38.42008972 C1.3420173 47.06456322 1.3420173 47.06456322 -2 51 C-5.51951246 53.34634164 -7.00653031 53.25718092 -11.171875 53.265625 C-12.39390625 53.26820312 -13.6159375 53.27078125 -14.875 53.2734375 C-16.15375 53.26570313 -17.4325 53.25796875 -18.75 53.25 C-20.01328125 53.25773437 -21.2765625 53.26546875 -22.578125 53.2734375 C-28.74095596 53.26049038 -34.20333609 53.18676543 -40 51 C-39.34 50.01 -38.68 49.02 -38 48 C-37.34 48 -36.68 48 -36 48 C-35.79375 47.46375 -35.5875 46.9275 -35.375 46.375 C-34 44 -34 44 -30.9375 41.4375 C-27.17530538 37.89499558 -27.20642454 34.16061342 -27.0078125 29.1953125 C-27.00523437 28.47085938 -27.00265625 27.74640625 -27 27 C-26.67 27 -26.34 27 -26 27 C-26 30.3 -26 33.6 -26 37 C-25.34 37.33 -24.68 37.66 -24 38 C-27.63 41.96 -31.26 45.92 -35 50 C-24.23575832 51.55100435 -24.23575832 51.55100435 -14.06884766 48.87060547 C-10.41310272 45.73299761 -7.73828307 41.93364895 -5 38 C-4.47817139 37.60876953 -3.95634277 37.21753906 -3.41870117 36.81445312 C-1.14904737 33.91167098 -1.40326324 30.59993237 -1.26953125 27.05078125 C-1.229384 26.27816452 -1.18923676 25.50554779 -1.14787292 24.70951843 C-1.02282217 22.24428767 -0.9174277 19.77866122 -0.8125 17.3125 C-0.73111154 15.6399105 -0.64844455 13.96738269 -0.56445312 12.29492188 C-0.36146536 8.19718254 -0.17609961 4.09897932 0 0 Z " fill="#FAF4F3" transform="translate(159,71)"/>
<path d="M0 0 C0.99 0 1.98 0 3 0 C2.67 2.64 2.34 5.28 2 8 C2.66 7.67 3.32 7.34 4 7 C4 7.99 4 8.98 4 10 C4.99 10 5.98 10 7 10 C7.33 9.34 7.66 8.68 8 8 C10.5625 7.375 10.5625 7.375 13 7 C12.67 5.35 12.34 3.7 12 2 C18.3343346 7.09500827 23.62789574 12.92530665 29 19 C27.68 19.33 26.36 19.66 25 20 C24.7215625 19.0409375 24.7215625 19.0409375 24.4375 18.0625 C23.963125 17.381875 23.48875 16.70125 23 16 C20.67284 15.62599214 18.33882138 15.29235267 16 15 C15.34 14.01 14.68 13.02 14 12 C13.34 12 12.68 12 12 12 C11.67 13.32 11.34 14.64 11 16 C5.34432141 15.0573869 2.15398704 13.531573 -1.5625 9.125 C-2.14128906 8.44695312 -2.72007813 7.76890625 -3.31640625 7.0703125 C-4.93211201 5.08348175 -6.4799399 3.06062859 -8 1 C-5.36 1.66 -2.72 2.32 0 3 C0 2.01 0 1.02 0 0 Z " fill="#BB0B08" transform="translate(93,200)"/>
<path d="M0 0 C0.495 0.99 0.495 0.99 1 2 C-1.36292656 4.52588702 -2.66462511 5.88820837 -6 7 C-8.18379471 7.07241899 -10.36979596 7.08377853 -12.5546875 7.0625 C-13.89623951 7.05384188 -15.23779228 7.04530167 -16.5793457 7.03686523 C-17.28129059 7.03065155 -17.98323547 7.02443787 -18.70645142 7.01803589 C-29.25012972 6.93034378 -39.77802382 6.92779796 -50.3125 7.4375 C-51.16376465 7.47681641 -52.0150293 7.51613281 -52.89208984 7.55664062 C-59.04321246 7.7532668 -59.04321246 7.7532668 -64 11 C-66.5 12.6875 -66.5 12.6875 -69 14 C-69.66 13.67 -70.32 13.34 -71 13 C-64.36141765 4.46467983 -64.36141765 4.46467983 -58.26170349 3.62145996 C-57.27227249 3.61940552 -56.28284149 3.61735107 -55.26342773 3.61523438 C-54.13553329 3.60512329 -53.00763885 3.59501221 -51.8455658 3.58459473 C-50.03288963 3.58912659 -50.03288963 3.58912659 -48.18359375 3.59375 C-46.93498062 3.58291382 -45.68636749 3.57207764 -44.3999176 3.56091309 C-39.7353435 3.52082205 -35.07096079 3.50688435 -30.40625 3.49468994 C-25.83182146 3.48132328 -21.2578851 3.44597877 -16.68359375 3.40625 C-15.47311874 3.40927124 -14.26264374 3.41229248 -13.01548767 3.41540527 C-11.89074539 3.40529419 -10.76600311 3.39518311 -9.60717773 3.38476562 C-8.61854233 3.38271118 -7.62990692 3.38065674 -6.61131287 3.37854004 C-3.61373857 2.94400693 -2.23191545 1.99702805 0 0 Z " fill="#812B2B" transform="translate(158,120)"/>
<path d="M0 0 C2.475 0.495 2.475 0.495 5 1 C5.33 2.32 5.66 3.64 6 5 C6.78375 4.814375 7.5675 4.62875 8.375 4.4375 C11 4 11 4 13 5 C13.66 3.68 14.32 2.36 15 1 C15.99 1 16.98 1 18 1 C22 5.22857143 22 5.22857143 22 9 C22.99 9.66 23.98 10.32 25 11 C24.525625 11.45375 24.05125 11.9075 23.5625 12.375 C21.90972192 13.93258204 21.90972192 13.93258204 21 16 C18.5625 15.625 18.5625 15.625 16 15 C15.67 14.34 15.34 13.68 15 13 C15.33 12.34 15.66 11.68 16 11 C14.824375 11 13.64875 11 12.4375 11 C7.43117888 10.4209771 5.37319099 7.70758141 2.34765625 3.91015625 C1 2 1 2 0 0 Z M19 8 C19 8.66 19 9.32 19 10 C19.66 9.67 20.32 9.34 21 9 C20.34 8.67 19.68 8.34 19 8 Z " fill="#C00D0A" transform="translate(136,44)"/>
<path d="M0 0 C3.98296755 2.89670367 7.00506783 6.20831536 10.1796875 9.92578125 C11.88594825 11.87003974 13.65296485 13.69023686 15.5 15.5 C18.05107553 18.02215177 20.52722504 20.592393 22.9375 23.25 C23.52402344 23.89453125 24.11054688 24.5390625 24.71484375 25.203125 C26 27 26 27 26 30 C22.71303767 30.79953138 21.28976808 31.09658936 18 30 C18 28.68 18 27.36 18 26 C17.36525925 24.65117592 16.70151152 23.3153341 16 22 C16 21.34 16 20.68 16 20 C14.12423342 17.83814952 12.22428536 15.75590827 10.25 13.6875 C0 2.86124402 0 2.86124402 0 0 Z M15 24 C15.66 24.66 16.32 25.32 17 26 C16.34 26 15.68 26 15 26 C15 25.34 15 24.68 15 24 Z M5 26 C7.31 26.33 9.62 26.66 12 27 C12.33 28.32 12.66 29.64 13 31 C14.32 31.33 15.64 31.66 17 32 C17.33 31.34 17.66 30.68 18 30 C18 31.65 18 33.3 18 35 C17.01 35.495 17.01 35.495 16 36 C11.13431512 33.83747339 8.24066165 30.06474743 5 26 Z " fill="#B20B09" transform="translate(140,28)"/>
<path d="M0 0 C0.99 0.495 0.99 0.495 2 1 C-0.41839585 4.28210865 -2.1752957 6.52278689 -6 8 C-8.61804199 8.26501465 -8.61804199 8.26501465 -11.62304688 8.28710938 C-12.75101685 8.30052368 -13.87898682 8.31393799 -15.0411377 8.32775879 C-16.25474976 8.33303589 -17.46836182 8.33831299 -18.71875 8.34375 C-20.59379211 8.3656842 -20.59379211 8.3656842 -22.50671387 8.38806152 C-27.18289959 8.44249857 -31.85910623 8.47964827 -36.53546143 8.51568604 C-41.11754533 8.5519282 -45.69932942 8.60265079 -50.28125 8.65625 C-51.49486206 8.6615271 -52.70847412 8.6668042 -53.9588623 8.67224121 C-55.08683228 8.68565552 -56.21480225 8.69906982 -57.37695312 8.71289062 C-58.36860474 8.72018188 -59.36025635 8.72747314 -60.38195801 8.73498535 C-63.11926248 9.0120725 -64.7128269 9.49174716 -67 11 C-69.05359902 14.08039853 -69.25738734 14.79484698 -69.31884766 18.2878418 C-69.33871735 19.14850754 -69.35858704 20.00917328 -69.37905884 20.8959198 C-69.39638565 22.28355278 -69.39638565 22.28355278 -69.4140625 23.69921875 C-69.43342865 24.64940384 -69.4527948 25.59958893 -69.4727478 26.5785675 C-69.53254912 29.6147869 -69.57893129 32.65104419 -69.625 35.6875 C-69.66317926 37.74545928 -69.70223096 39.80340258 -69.7421875 41.86132812 C-69.83825119 46.9074223 -69.92228031 51.95359129 -70 57 C-70.33 57 -70.66 57 -71 57 C-71.04944073 50.80697799 -71.08573905 44.61407091 -71.10986328 38.42089844 C-71.11992034 36.31410725 -71.13356768 34.20733001 -71.15087891 32.10058594 C-71.17514 29.07223059 -71.18648608 26.04405981 -71.1953125 23.015625 C-71.20563507 22.07382385 -71.21595764 21.13202271 -71.22659302 20.16168213 C-71.22674408 19.28107117 -71.22689514 18.40046021 -71.22705078 17.49316406 C-71.231492 16.72039124 -71.23593323 15.94761841 -71.24050903 15.15142822 C-70.95830914 12.62706228 -70.41521717 11.11190452 -69 9 C-65.82280728 6.77396417 -63.03083483 6.75638767 -59.22167969 6.77294922 C-57.48032745 6.77317581 -57.48032745 6.77317581 -55.70379639 6.77340698 C-54.45576233 6.78372955 -53.20772827 6.79405212 -51.921875 6.8046875 C-49.99930878 6.80893234 -49.99930878 6.80893234 -48.03790283 6.81326294 C-44.63810361 6.82088212 -41.23847654 6.84051566 -37.83874512 6.8626709 C-34.36647876 6.88316642 -30.89418447 6.89227256 -27.421875 6.90234375 C-20.61451283 6.92376334 -13.80726469 6.95787844 -7 7 C-7 6.34 -7 5.68 -7 5 C-6.34 5 -5.68 5 -5 5 C-5 4.34 -5 3.68 -5 3 C-3.68 3 -2.36 3 -1 3 C-0.67 2.01 -0.34 1.02 0 0 Z " fill="#6E1E1D" transform="translate(165,131)"/>
<path d="M0 0 C17.82 0 35.64 0 54 0 C54 0.33 54 0.66 54 1 C44.1 1.495 44.1 1.495 34 2 C34 9.26 34 16.52 34 24 C33.67 24 33.34 24 33 24 C32.67 17.4 32.34 10.8 32 4 C28.04 8.29 24.08 12.58 20 17 C19.01 16.34 18.02 15.68 17 15 C17.56589844 14.44570312 18.13179687 13.89140625 18.71484375 13.3203125 C19.44832031 12.59585938 20.18179688 11.87140625 20.9375 11.125 C21.66839844 10.40570313 22.39929688 9.68640625 23.15234375 8.9453125 C25.05667999 7.12972808 25.05667999 7.12972808 26 5 C26.66 5 27.32 5 28 5 C27.67 3.68 27.34 2.36 27 1 C18.09 1 9.18 1 0 1 C0 0.67 0 0.34 0 0 Z " fill="#D9C1C1" transform="translate(102,139)"/>
<path d="M0 0 C1 2 1 2 0.5625 4.1875 C-1.40320842 7.72577515 -3.93864993 9.72479713 -7.03125 12.28515625 C-9.34153494 14.29748778 -11.1088047 16.59963673 -13 19 C-13.66 19 -14.32 19 -15 19 C-15 19.66 -15 20.32 -15 21 C-15.66 21.33 -16.32 21.66 -17 22 C-17.46523063 23.89533342 -17.46523063 23.89533342 -17.625 26.0625 C-17.74875 27.361875 -17.8725 28.66125 -18 30 C-11.37226593 29.1377511 -7.22789256 28.35533057 -3 23 C-3 26 -3 26 -6 32 C-10.62 32 -15.24 32 -20 32 C-21.40585117 24.15066431 -21.40585117 24.15066431 -18.95117188 20.39550781 C-16.06703628 16.87535105 -12.81746242 13.70900263 -9.55664062 10.54101562 C-7.34474279 8.35132003 -5.29785988 6.03001598 -3.25 3.6875 C-2.61578125 2.96949219 -1.9815625 2.25148437 -1.328125 1.51171875 C-0.88984375 1.01285156 -0.4515625 0.51398437 0 0 Z " fill="#912726" transform="translate(101,42)"/>
<path d="M0 0 C0.33 0 0.66 0 1 0 C1 3.3 1 6.6 1 10 C1.66 10.33 2.32 10.66 3 11 C-0.63 14.96 -4.26 18.92 -8 23 C2.68514555 23.67842194 13.28907291 24.15498126 24 24 C21.26948297 26.73051703 19.74240771 26.25792409 15.92578125 26.265625 C14.70052734 26.26820312 13.47527344 26.27078125 12.21289062 26.2734375 C10.92576172 26.26570313 9.63863281 26.25796875 8.3125 26.25 C7.04470703 26.25773437 5.77691406 26.26546875 4.47070312 26.2734375 C-1.70667631 26.26050735 -7.1900958 26.19504627 -13 24 C-12.01 22.515 -12.01 22.515 -11 21 C-10.34 21 -9.68 21 -9 21 C-8.690625 20.195625 -8.690625 20.195625 -8.375 19.375 C-7 17 -7 17 -3.9375 14.4375 C-0.17530538 10.89499558 -0.20642454 7.16061342 -0.0078125 2.1953125 C-0.00523437 1.47085938 -0.00265625 0.74640625 0 0 Z " fill="#FDF3EF" transform="translate(132,98)"/>
<path d="M0 0 C0 3.41099168 -0.49145406 6.63088314 -1 10 C-0.34 10 0.32 10 1 10 C1.66 8.68 2.32 7.36 3 6 C3.99 6 4.98 6 6 6 C4.99088542 7.7578125 3.98177083 9.515625 2.97265625 11.2734375 C2.28280949 12.49798475 1.62855462 13.74289077 1 15 C0.34 15 -0.32 15 -1 15 C-1 15.66 -1 16.32 -1 17 C-1.99 17 -2.98 17 -4 17 C-4 18.65 -4 20.3 -4 22 C-4.66 22.33 -5.32 22.66 -6 23 C-5.96519531 22.37351563 -5.93039063 21.74703125 -5.89453125 21.1015625 C-5.86746094 20.28429687 -5.84039062 19.46703125 -5.8125 18.625 C-5.77769531 17.81289062 -5.74289063 17.00078125 -5.70703125 16.1640625 C-5.80371094 15.44992188 -5.90039062 14.73578125 -6 14 C-6.99 13.34 -7.98 12.68 -9 12 C-8.33333333 10.66666667 -7.66666667 9.33333333 -7 8 C-6.731875 7.34 -6.46375 6.68 -6.1875 6 C-4.59894355 3.3245365 -2.48349364 1.82994269 0 0 Z " fill="#D2120E" transform="translate(145,211)"/>
<path d="M0 0 C3.93401379 1.41221008 5.99881658 4.58990068 8.4375 7.875 C5.9625 7.38 5.9625 7.38 3.4375 6.875 C3.4375 6.215 3.4375 5.555 3.4375 4.875 C0.10607722 4.37374717 0.10607722 4.37374717 -3.5625 4.875 C-5.91572796 7.77912546 -5.91572796 7.77912546 -7.5625 10.875 C-8.2225 10.875 -8.8825 10.875 -9.5625 10.875 C-9.8925 11.865 -10.2225 12.855 -10.5625 13.875 C-11.5525 14.205 -12.5425 14.535 -13.5625 14.875 C-14.78695284 16.50448064 -14.78695284 16.50448064 -15.75 18.4375 C-16.348125 19.571875 -16.94625 20.70625 -17.5625 21.875 C-18.2225 21.875 -18.8825 21.875 -19.5625 21.875 C-20.2225 23.195 -20.8825 24.515 -21.5625 25.875 C-22.8825 25.545 -24.2025 25.215 -25.5625 24.875 C-24.99402344 24.318125 -24.42554687 23.76125 -23.83984375 23.1875 C-20.0817969 19.47337022 -16.38567598 15.75585365 -12.9375 11.75 C-3.89992171 1.33168058 -3.89992171 1.33168058 0 0 Z " fill="#C93737" transform="translate(127.5625,16.125)"/>
<path d="M0 0 C4.62 0 9.24 0 14 0 C14.43815609 9.78548608 14.43815609 9.78548608 11 14 C8.72688222 16.3994021 6.39529977 18.7228246 4 21 C3.67 20.01 3.34 19.02 3 18 C3.66 18 4.32 18 5 18 C5.33 17.01 5.66 16.02 6 15 C7.9375 12.8125 7.9375 12.8125 10 11 C10.66 11 11.32 11 12 11 C12 8.03 12 5.06 12 2 C8.37 2 4.74 2 1 2 C1 3.98 1 5.96 1 8 C-0.98 8.66 -2.96 9.32 -5 10 C-4.360625 9.0925 -3.72125 8.185 -3.0625 7.25 C-0.78738491 4.04217023 -0.78738491 4.04217023 0 0 Z " fill="#781D1B" transform="translate(160,187)"/>
<path d="M0 0 C0.33 0 0.66 0 1 0 C1 17.49 1 34.98 1 53 C0.67 53 0.34 53 0 53 C-0.09087891 51.93458984 -0.09087891 51.93458984 -0.18359375 50.84765625 C-0.26738281 49.92855469 -0.35117188 49.00945312 -0.4375 48.0625 C-0.51871094 47.14597656 -0.59992188 46.22945312 -0.68359375 45.28515625 C-0.76044976 43.03840268 -0.76044976 43.03840268 -2 42 C-2.07313567 39.46950598 -2.09247527 36.96695163 -2.0625 34.4375 C-2.05798828 33.72658203 -2.05347656 33.01566406 -2.04882812 32.28320312 C-2.03700864 30.52209987 -2.01907263 28.76103964 -2 27 C-1.34 27 -0.68 27 0 27 C0 18.09 0 9.18 0 0 Z " fill="#EACBCB" transform="translate(80,143)"/>
<path d="M0 0 C0.66 0.33 1.32 0.66 2 1 C-2.16527646 5.89419984 -6.48712429 10.5272861 -11.06640625 15.03515625 C-13.87813174 17.89232376 -16.4343721 20.92124652 -19 24 C-19.66 22.68 -20.32 21.36 -21 20 C-20.34 19.34 -19.68 18.68 -19 18 C-19 18.66 -19 19.32 -19 20 C-18.34 20 -17.68 20 -17 20 C-17 19.34 -17 18.68 -17 18 C-16.34 18 -15.68 18 -15 18 C-14.8453125 16.6078125 -14.8453125 16.6078125 -14.6875 15.1875 C-13.9937139 11.97085535 -13.65754784 10.83984081 -11 9 C-10.01 9 -9.02 9 -8 9 C-8 8.34 -8 7.68 -8 7 C-6.68 6.67 -5.36 6.34 -4 6 C-4.33 4.68 -4.66 3.36 -5 2 C-2.625 0.9375 -2.625 0.9375 0 0 Z " fill="#B81915" transform="translate(161,208)"/>
<path d="M0 0 C6.3343346 5.09500827 11.62789574 10.92530665 17 17 C15.68 17.33 14.36 17.66 13 18 C12.814375 17.360625 12.62875 16.72125 12.4375 16.0625 C11.05753944 13.57873787 11.05753944 13.57873787 7.375 13.25 C6.26125 13.1675 5.1475 13.085 4 13 C3.87625 11.865625 3.7525 10.73125 3.625 9.5625 C3.41875 8.386875 3.2125 7.21125 3 6 C2.34 5.67 1.68 5.34 1 5 C0.375 2.4375 0.375 2.4375 0 0 Z " fill="#B70F09" transform="translate(105,202)"/>
<path d="M0 0 C0.66 0 1.32 0 2 0 C2.5 3.0625 2.5 3.0625 2 7 C0.10304389 8.97058226 -1.94817101 10.55666915 -4.109375 12.23046875 C-6.77661904 14.72687691 -7.05258522 17.54870329 -8 21 C-11 22.1875 -11 22.1875 -14 23 C-14.68268138 24.32520503 -15.3507041 25.65812182 -16 27 C-18.625 27.75 -18.625 27.75 -21 28 C-17.89497262 24.30353883 -14.758833 20.7013585 -11.38671875 17.24609375 C-10.77892578 16.61896484 -10.17113281 15.99183594 -9.54492188 15.34570312 C-8.2951612 14.06177444 -7.0371534 12.78582752 -5.77148438 11.51757812 C-2.21119982 7.81228734 -0.1741917 5.38335313 0 0 Z " fill="#3B3B3A" transform="translate(218,129)"/>
<path d="M0 0 C3.98296755 2.89670367 7.00506783 6.20831536 10.1796875 9.92578125 C11.88594825 11.87003974 13.65296485 13.69023686 15.5 15.5 C18.05107553 18.02215177 20.52722504 20.592393 22.9375 23.25 C23.52402344 23.89453125 24.11054688 24.5390625 24.71484375 25.203125 C26 27 26 27 26 30 C24.8717446 28.8717446 23.74385044 27.74312686 22.6171875 26.61328125 C21.46082551 25.4597124 20.29870256 24.31190691 19.1328125 23.16796875 C14.52520049 18.62310632 10.20814572 13.91440793 6 9 C5.41605469 8.34386719 4.83210937 7.68773437 4.23046875 7.01171875 C3.68003906 6.38910156 3.12960938 5.76648437 2.5625 5.125 C1.82193359 4.29355469 1.82193359 4.29355469 1.06640625 3.4453125 C0 2 0 2 0 0 Z " fill="#AD2E2D" transform="translate(140,28)"/>
<path d="M0 0 C2.49361571 1.20381448 4.68143083 2.45428722 7 4 C7.66 4 8.32 4 9 4 C8.67 5.32 8.34 6.64 8 8 C7.236875 7.773125 6.47375 7.54625 5.6875 7.3125 C4.800625 7.209375 3.91375 7.10625 3 7 C1.1645201 8.33378575 1.1645201 8.33378575 0 10 C-0.33 9.34 -0.66 8.68 -1 8 C-1.66 7.67 -2.32 7.34 -3 7 C-2.25 2.25 -2.25 2.25 0 0 Z " fill="#AD0906" transform="translate(93,54)"/>
<path d="M0 0 C3.465 1.485 3.465 1.485 7 3 C7 3.66 7 4.32 7 5 C9.64 5.33 12.28 5.66 15 6 C15 6.33 15 6.66 15 7 C8.4 7 1.8 7 -5 7 C-3.35 4.69 -1.7 2.38 0 0 Z " fill="#333334" transform="translate(128,115)"/>
<path d="M0 0 C7.75 -0.125 7.75 -0.125 10 1 C10 1.66 10 2.32 10 3 C11.32 3.66 12.64 4.32 14 5 C13.34 5.66 12.68 6.32 12 7 C11.484375 6.34 10.96875 5.68 10.4375 5 C8.08228895 2.76554536 8.08228895 2.76554536 4.75 2.25 C-0.77446451 3.3548929 -3.4202697 6.83449565 -7 11 C-8 8 -8 8 -8 6 C-2.58823529 2 -2.58823529 2 0 2 C0 1.34 0 0.68 0 0 Z " fill="#B82525" transform="translate(123,37)"/>
<path d="M0 0 C-1.74579065 1.9414396 -3.49637493 3.87815784 -5.25 5.8125 C-5.74113281 6.35970703 -6.23226562 6.90691406 -6.73828125 7.47070312 C-9.31729955 10.30762325 -11.80629194 12.83284096 -15 15 C-13.32581942 8.7598724 -10.52241089 3.92183687 -5.375 0 C-3 -1 -3 -1 0 0 Z " fill="#A21F1F" transform="translate(115,49)"/>
<path d="M0 0 C0.78375 0.04125 1.5675 0.0825 2.375 0.125 C-0.375 5 -0.375 5 -2.625 6.125 C-4.33202735 6.19496014 -6.04168003 6.20940154 -7.75 6.1875 C-8.66007812 6.17847656 -9.57015625 6.16945312 -10.5078125 6.16015625 C-11.20648438 6.14855469 -11.90515625 6.13695312 -12.625 6.125 C-12.955 4.475 -13.285 2.825 -13.625 1.125 C-12.635 1.62 -12.635 1.62 -11.625 2.125 C-8.125 2.375 -8.125 2.375 -4.625 2.125 C-2.625 0.125 -2.625 0.125 0 0 Z " fill="#C51612" transform="translate(135.625,218.875)"/>
<path d="M0 0 C0.99 0 1.98 0 3 0 C2.79375 1.19625 2.5875 2.3925 2.375 3.625 C1.86418162 7.5576018 2.43265283 10.3121243 4 14 C0 10 -4 6 -8 2 C-6 1 -6 1 -2.875 1.9375 C-1.92625 2.288125 -0.9775 2.63875 0 3 C0 2.01 0 1.02 0 0 Z " fill="#A41613" transform="translate(93,200)"/>
<path d="M0 0 C1 2 1 2 0.875 3.875 C-0.37358503 6.90727793 -2.33247382 8.17827481 -5 10 C-5.66 10 -6.32 10 -7 10 C-7.33 11.32 -7.66 12.64 -8 14 C-9.65 14 -11.3 14 -13 14 C-8.88380164 9.08064098 -4.59589638 4.47352044 0 0 Z " fill="#A1201A" transform="translate(147,205)"/>
<path d="M0 0 C0.33 0.66 0.66 1.32 1 2 C3.12576782 2.46651207 3.12576782 2.46651207 5.5625 2.625 C6.38878906 2.69976562 7.21507812 2.77453125 8.06640625 2.8515625 C8.70449219 2.90054688 9.34257812 2.94953125 10 3 C8.02 5.97 8.02 5.97 6 9 C3.5625 8.625 3.5625 8.625 1 8 C0.67 7.34 0.34 6.68 0 6 C0.33 5.34 0.66 4.68 1 4 C0.01 3.67 -0.98 3.34 -2 3 C-1.34 2.67 -0.68 2.34 0 2 C0 1.34 0 0.68 0 0 Z " fill="#B80807" transform="translate(151,51)"/>
<path d="M0 0 C0.33 0 0.66 0 1 0 C1.103125 1.0725 1.20625 2.145 1.3125 3.25 C1.6864001 6.94724039 1.6864001 6.94724039 3.6875 9.125 C4.120625 9.74375 4.55375 10.3625 5 11 C4.1875 13.75 4.1875 13.75 3 16 C0 16 0 16 -3 15 C-2.01 13.02 -1.02 11.04 0 9 C-0.66 8.67 -1.32 8.34 -2 8 C-1.34 5.36 -0.68 2.72 0 0 Z " fill="#353533" transform="translate(35,128)"/>
<path d="M0 0 C0.33 0 0.66 0 1 0 C1 3.3 1 6.6 1 10 C1.66 10.33 2.32 10.66 3 11 C0.03 14.3 -2.94 17.6 -6 21 C-6.99 20.34 -7.98 19.68 -9 19 C-8.43410156 18.55011719 -7.86820312 18.10023437 -7.28515625 17.63671875 C-2.80064232 13.70390249 -0.49585218 11.08402755 0 5 C0.03622333 3.33372702 0.04899842 1.66594626 0 0 Z " fill="#EBEBEB" transform="translate(132,98)"/>
<path d="M0 0 C3.63 0 7.26 0 11 0 C11 2.97 11 5.94 11 9 C10.67 7.68 10.34 6.36 10 5 C9.34 5 8.68 5 8 5 C7.67 4.01 7.34 3.02 7 2 C4.69 2.66 2.38 3.32 0 4 C0 2.68 0 1.36 0 0 Z " fill="#8E0806" transform="translate(161,189)"/>
<path d="M0 0 C0.33 0 0.66 0 1 0 C1 2.31 1 4.62 1 7 C7.62773407 6.1377511 11.77210744 5.35533057 16 0 C16 3 16 3 14 6 C13.34 6 12.68 6 12 6 C12 6.66 12 7.32 12 8 C8.04 8 4.08 8 0 8 C0 5.36 0 2.72 0 0 Z " fill="#8F1918" transform="translate(82,65)"/>
<path d="M0 0 C0.99 0 1.98 0 3 0 C3.66 2.97 4.32 5.94 5 9 C1 8 1 8 -0.8125 5.5625 C-1.204375 4.716875 -1.59625 3.87125 -2 3 C-1 1 -1 1 0 0 Z " fill="#EC110E" transform="translate(121,232)"/>
<path d="M0 0 C2.31 0 4.62 0 7 0 C5.08864614 3.53600465 3.37357234 5.78972846 0 8 C-1.09658936 4.71023192 -0.79953138 3.28696233 0 0 Z " fill="#2A2A2A" transform="translate(122,143)"/>
<path d="M0 0 C4.62 0 9.24 0 14 0 C14 0.33 14 0.66 14 1 C9.71 1 5.42 1 1 1 C1 3.31 1 5.62 1 8 C-0.98 8.66 -2.96 9.32 -5 10 C-4.360625 9.0925 -3.72125 8.185 -3.0625 7.25 C-0.78738491 4.04217023 -0.78738491 4.04217023 0 0 Z " fill="#9E514D" transform="translate(160,187)"/>
<path d="M0 0 C0.66 0.33 1.32 0.66 2 1 C0.90033225 2.29549899 -0.20491801 3.58626071 -1.3125 4.875 C-1.92738281 5.59429687 -2.54226562 6.31359375 -3.17578125 7.0546875 C-5 9 -5 9 -8 11 C-8 9.68 -8 8.36 -8 7 C-6.68 6.67 -5.36 6.34 -4 6 C-4.33 4.68 -4.66 3.36 -5 2 C-2.625 0.9375 -2.625 0.9375 0 0 Z " fill="#A32623" transform="translate(161,208)"/>
<path d="M0 0 C2.475 0.495 2.475 0.495 5 1 C5.33 2.32 5.66 3.64 6 5 C7.65 4.67 9.3 4.34 11 4 C10.34 5.98 9.68 7.96 9 10 C5.73991357 6.83047153 2.77762123 3.60062011 0 0 Z " fill="#AC1E1E" transform="translate(136,44)"/>
<path d="M0 0 C0 3.61029169 -0.96092582 6.55806676 -2 10 C-3.65 9.67 -5.3 9.34 -7 9 C-5.64978174 4.58110387 -3.73884332 2.65654657 0 0 Z " fill="#C80D07" transform="translate(145,211)"/>
<path d="M0 0 C3.59634744 3.49359465 6.83451967 7.11098131 10 11 C7.625 10.75 7.625 10.75 5 10 C4.29848848 8.6846659 3.63474075 7.34882408 3 6 C0.46811352 4.24677063 0.46811352 4.24677063 -2 3 C-1 1 -1 1 0 0 Z " fill="#AB2E28" transform="translate(112,209)"/>
<path d="M0 0 C2.31 0.33 4.62 0.66 7 1 C7.66666667 3.66666667 8.33333333 6.33333333 9 9 C7.87105124 8.06725891 6.74699124 7.12859878 5.625 6.1875 C4.99851563 5.66542969 4.37203125 5.14335938 3.7265625 4.60546875 C2 3 2 3 0 0 Z " fill="#A02221" transform="translate(145,54)"/>
<path d="M0 0 C0 3.10551666 -0.5393715 4.35261084 -2 7 C-2.66 7 -3.32 7 -4 7 C-4.66 8.32 -5.32 9.64 -6 11 C-7.32 10.67 -8.64 10.34 -10 10 C-6.7 6.7 -3.4 3.4 0 0 Z " fill="#B72222" transform="translate(112,31)"/>
<path d="M0 0 C1.11375 0.9590625 1.11375 0.9590625 2.25 1.9375 C4.7111121 3.78333407 6.03466926 4.56069174 9 5 C8.01 5.495 8.01 5.495 7 6 C7 6.66 7 7.32 7 8 C7.99 8.33 8.98 8.66 10 9 C10 9.66 10 10.32 10 11 C6.8510285 9.63088196 4.9521513 8.1247864 2.75 5.5 C2.22921875 4.8915625 1.7084375 4.283125 1.171875 3.65625 C0 2 0 2 0 0 Z " fill="#3B3B39" transform="translate(209,116)"/>
<path d="M0 0 C0.66 0 1.32 0 2 0 C2.29296875 6.0546875 2.29296875 6.0546875 2 8 C1.01 8.66 0.02 9.32 -1 10 C-2.15837626 5.94568308 -1.83691257 3.78187881 0 0 Z " fill="#3C3C3C" transform="translate(235,127)"/>
<path d="M0 0 C1 2 1 2 0.375 4.375 C-1.25561397 7.4879903 -3.15997255 8.98208576 -6 11 C-4.88059018 6.14922412 -3.8665284 3.222107 0 0 Z " fill="#B02724" transform="translate(101,42)"/>
<path d="M0 0 C0.66 0.33 1.32 0.66 2 1 C-2.30769231 6.84615385 -2.30769231 6.84615385 -6 8 C-8.25 7.625 -8.25 7.625 -10 7 C-9.01 7 -8.02 7 -7 7 C-7 6.34 -7 5.68 -7 5 C-6.34 5 -5.68 5 -5 5 C-5 4.34 -5 3.68 -5 3 C-3.68 3 -2.36 3 -1 3 C-0.67 2.01 -0.34 1.02 0 0 Z " fill="#782322" transform="translate(165,131)"/>
<path d="M0 0 C0 2.64 0 5.28 0 8 C-0.66 7.67 -1.32 7.34 -2 7 C-2.99 7 -3.98 7 -5 7 C-5.99 7 -6.98 7 -8 7 C-6.8572081 5.83035398 -5.71068285 4.66435444 -4.5625 3.5 C-3.92441406 2.8503125 -3.28632813 2.200625 -2.62890625 1.53125 C-1 0 -1 0 0 0 Z " fill="#3D3D3D" transform="translate(135,142)"/>
<path d="M0 0 C2.1875 -0.375 2.1875 -0.375 5 0 C6.99022836 1.83961648 8.38989899 3.79186148 10 6 C8.35 5.67 6.7 5.34 5 5 C5 4.34 5 3.68 5 3 C2.03 2.505 2.03 2.505 -1 2 C-0.67 1.34 -0.34 0.68 0 0 Z " fill="#D02325" transform="translate(126,18)"/>
<path d="M0 0 C2.62386487 3.06117568 3 3.73173127 3 8 C1.68 8 0.36 8 -1 8 C-1.625 5.6875 -1.625 5.6875 -2 3 C-1.34 2.01 -0.68 1.02 0 0 Z " fill="#D40C07" transform="translate(113,218)"/>
<path d="M0 0 C0.66 0.33 1.32 0.66 2 1 C2 1.99 2 2.98 2 4 C-0.375 5.75 -0.375 5.75 -3 7 C-3.66 6.67 -4.32 6.34 -5 6 C-3.35 4.02 -1.7 2.04 0 0 Z " fill="#7B2221" transform="translate(92,127)"/>
<path d="M0 0 C0.99 0.33 1.98 0.66 3 1 C0.03 3.97 -2.94 6.94 -6 10 C-6.33 9.01 -6.66 8.02 -7 7 C-6.34 7 -5.68 7 -5 7 C-4.67 6.01 -4.34 5.02 -4 4 C-2.70644173 2.62804426 -1.37701298 1.28817344 0 0 Z " fill="#8E2320" transform="translate(170,198)"/>
<path d="M0 0 C2.93200474 2.85276137 5.64315404 5.65079784 8 9 C4.21304827 8.4590069 2.37254028 6.96567536 0 4 C0 2.68 0 1.36 0 0 Z " fill="#911E1C" transform="translate(97,193)"/>
<path d="M0 0 C0.33 0.66 0.66 1.32 1 2 C0.67 2.99 0.34 3.98 0 5 C-3.63 4.67 -7.26 4.34 -11 4 C-10.67 3.01 -10.34 2.02 -10 1 C-9.67 1.33 -9.34 1.66 -9 2 C-5.54178598 2.25003964 -5.54178598 2.25003964 -2 2 C-1.34 1.34 -0.68 0.68 0 0 Z " fill="#C94F4C" transform="translate(133,219)"/>
<path d="M0 0 C0.66 0.99 1.32 1.98 2 3 C0.6875 4.5 0.6875 4.5 -1 6 C-1.99 6 -2.98 6 -4 6 C-4 6.66 -4 7.32 -4 8 C-4.66 7.67 -5.32 7.34 -6 7 C-4.02 4.69 -2.04 2.38 0 0 Z " fill="#962724" transform="translate(154,197)"/>
<path d="M0 0 C-0.33 0.99 -0.66 1.98 -1 3 C-0.01 3.33 0.98 3.66 2 4 C1.67 4.66 1.34 5.32 1 6 C-1.31 5.34 -3.62 4.68 -6 4 C-2.25 0 -2.25 0 0 0 Z " fill="#EEEDED" transform="translate(125,118)"/>
<path d="M0 0 C0 3 0 3 -1.5 4.6875 C-1.995 5.120625 -2.49 5.55375 -3 6 C-5.31 5.34 -7.62 4.68 -10 4 C-9.67 3.34 -9.34 2.68 -9 2 C-7.6078125 2.3403125 -7.6078125 2.3403125 -6.1875 2.6875 C-3.03173152 3.36319983 -3.03173152 3.36319983 -1.125 1.5625 C-0.75375 1.046875 -0.3825 0.53125 0 0 Z " fill="#F8D0CB" transform="translate(133,240)"/>
<path d="M0 0 C1.875 0.125 1.875 0.125 4 1 C5.25 4.0625 5.25 4.0625 6 7 C5.01 7 4.02 7 3 7 C2.01 4.69 1.02 2.38 0 0 Z " fill="#961B18" transform="translate(157,67)"/>
<path d="M0 0 C2.64 0 5.28 0 8 0 C8 0.66 8 1.32 8 2 C9.32 2.66 10.64 3.32 12 4 C11.34 4.66 10.68 5.32 10 6 C9.46375 5.360625 8.9275 4.72125 8.375 4.0625 C5.55632807 1.61470596 3.66139268 1.33285388 0 1 C0 0.67 0 0.34 0 0 Z " fill="#BF4343" transform="translate(125,38)"/>
<path d="M0 0 C2.31 1.98 4.62 3.96 7 6 C6.01 6.33 5.02 6.66 4 7 C1 5 1 5 0.3125 2.375 C0.209375 1.59125 0.10625 0.8075 0 0 Z " fill="#A53331" transform="translate(105,202)"/>
<path d="M0 0 C2.31 0.66 4.62 1.32 7 2 C7 3.65 7 5.3 7 7 C5.83040013 6.02433888 4.66438823 5.044375 3.5 4.0625 C2.8503125 3.51722656 2.200625 2.97195312 1.53125 2.41015625 C1.0259375 1.94480469 0.520625 1.47945312 0 1 C0 0.67 0 0.34 0 0 Z " fill="#952323" transform="translate(85,201)"/>
<path d="M0 0 C0.33 1.32 0.66 2.64 1 4 C-1.375 5.5625 -1.375 5.5625 -4 7 C-4.66 6.67 -5.32 6.34 -6 6 C-4.02 4.02 -2.04 2.04 0 0 Z " fill="#2E2E2E" transform="translate(203,150)"/>
<path d="M0 0 C-0.598125 0.20625 -1.19625 0.4125 -1.8125 0.625 C-4.81018767 2.50926082 -5.61361776 4.81132084 -7 8 C-7.88492145 5.52221994 -8.11637742 4.33943414 -7.25 1.8125 C-5.09546211 -1.31157994 -3.43399009 -1.14466336 0 0 Z " fill="#701B1A" transform="translate(102,140)"/>
<path d="M0 0 C2.0625 0.4375 2.0625 0.4375 4 1 C3.67 2.65 3.34 4.3 3 6 C2.34 6 1.68 6 1 6 C0.34 4.35 -0.32 2.7 -1 1 C-0.67 0.67 -0.34 0.34 0 0 Z " fill="#F20E0E" transform="translate(127,20)"/>
<path d="M0 0 C0.33 1.32 0.66 2.64 1 4 C-0.8125 5.5625 -0.8125 5.5625 -3 7 C-3.99 6.67 -4.98 6.34 -6 6 C-4.02 4.02 -2.04 2.04 0 0 Z " fill="#FBD6D7" transform="translate(141,232)"/>
<path d="M0 0 C0.33 0.66 0.66 1.32 1 2 C1.66 2 2.32 2 3 2 C3 1.34 3 0.68 3 0 C3.99 0.33 4.98 0.66 6 1 C3.03 3.475 3.03 3.475 0 6 C-0.38218767 4.34385343 -0.71395102 2.67542976 -1 1 C-0.67 0.67 -0.34 0.34 0 0 Z " fill="#C5322F" transform="translate(141,226)"/>
<path d="M0 0 C2.31 0.66 4.62 1.32 7 2 C6.67 3.32 6.34 4.64 6 6 C3.97945196 4.35830472 1.97956942 2.69088222 0 1 C0 0.67 0 0.34 0 0 Z " fill="#B22D2B" transform="translate(97,214)"/>
<path d="M0 0 C0.99 0 1.98 0 3 0 C2.67 1.32 2.34 2.64 2 4 C0.35 4 -1.3 4 -3 4 C-1.6875 2 -1.6875 2 0 0 Z " fill="#B62822" transform="translate(137,215)"/>
<path d="M0 0 C1.32 0.33 2.64 0.66 4 1 C3.34 2.65 2.68 4.3 2 6 C1.34 5.67 0.68 5.34 0 5 C0 3.35 0 1.7 0 0 Z " fill="#A10506" transform="translate(83,192)"/>
<path d="M0 0 C0.99 0.33 1.98 0.66 3 1 C2.34 3.31 1.68 5.62 1 8 C-1 5 -1 5 -0.625 2.3125 C-0.41875 1.549375 -0.2125 0.78625 0 0 Z " fill="#20201F" transform="translate(122,143)"/>
<path d="M0 0 C-1.75 4.875 -1.75 4.875 -4 6 C-4.66 5.34 -5.32 4.68 -6 4 C-2.25 0 -2.25 0 0 0 Z " fill="#DDDCDA" transform="translate(129,113)"/>
</svg>
